<svg width="46" height="54" viewBox="0 0 46 54" fill="none" xmlns="http://www.w3.org/2000/svg">
<circle opacity="0.2" cx="23" cy="31" r="22.5" stroke="white"/>
<rect opacity="0.2" x="-0.5" y="0.5" width="7" height="5" rx="2.5" transform="matrix(-1 8.74228e-08 8.74228e-08 1 26 7.35137e-08)" stroke="white"/>
<path fill-rule="evenodd" clip-rule="evenodd" d="M22.9951 12.5H23.0049C23.281 12.5001 23.5048 12.724 23.5047 13.0001C23.5047 13.2763 23.2807 13.5001 23.0046 13.5H22.9954C22.7193 13.5001 22.4953 13.2763 22.4953 13.0001C22.4952 12.724 22.719 12.5001 22.9951 12.5ZM31.5645 15.1563C31.7027 14.9172 32.0086 14.8355 32.2477 14.9737L32.256 14.9786C32.495 15.1169 32.5766 15.4228 32.4382 15.6618C32.2999 15.9008 31.994 15.9823 31.755 15.844L31.7471 15.8394C31.508 15.7012 31.4263 15.3953 31.5645 15.1563ZM14.4355 15.1563C14.5737 15.3953 14.492 15.7012 14.2529 15.8394L14.245 15.844C14.006 15.9823 13.7001 15.9008 13.5618 15.6618C13.4234 15.4228 13.505 15.1169 13.744 14.9786L13.7523 14.9737C13.9914 14.8355 14.2973 14.9172 14.4355 15.1563ZM38.3382 21.5618C38.5772 21.4234 38.8831 21.505 39.0214 21.744L39.0263 21.7523C39.1645 21.9914 39.0828 22.2973 38.8437 22.4355C38.6047 22.5737 38.2988 22.492 38.1606 22.2529L38.156 22.245C38.0177 22.006 38.0992 21.7001 38.3382 21.5618ZM7.66178 21.5618C7.90077 21.7001 7.98234 22.006 7.84398 22.245L7.8394 22.2529C7.70117 22.492 7.39532 22.5737 7.15626 22.4355C6.91721 22.2973 6.83548 21.9914 6.97371 21.7523L6.97855 21.744C7.11691 21.505 7.4228 21.4234 7.66178 21.5618ZM5.00013 30.4953C5.27627 30.4953 5.50007 30.7193 5.5 30.9954V31.0046C5.50007 31.2807 5.27627 31.5047 5.00013 31.5047C4.72399 31.5048 4.50007 31.281 4.5 31.0049V30.9951C4.50007 30.719 4.72399 30.4952 5.00013 30.4953ZM40.9999 30.4953C41.276 30.4952 41.4999 30.719 41.5 30.9951V31.0049C41.4999 31.281 41.276 31.5048 40.9999 31.5047C40.7237 31.5047 40.4999 31.2807 40.5 31.0046V30.9954C40.4999 30.7193 40.7237 30.4953 40.9999 30.4953ZM38.8437 39.5645C39.0828 39.7027 39.1645 40.0086 39.0263 40.2477L39.0214 40.256C38.8831 40.495 38.5772 40.5766 38.3382 40.4382C38.0992 40.2999 38.0177 39.994 38.156 39.755L38.1606 39.7471C38.2988 39.508 38.6047 39.4263 38.8437 39.5645ZM7.15626 39.5645C7.39532 39.4263 7.70117 39.508 7.8394 39.7471L7.84398 39.755C7.98234 39.994 7.90077 40.2999 7.66178 40.4382C7.4228 40.5766 7.11691 40.495 6.97855 40.256L6.97371 40.2477C6.83548 40.0086 6.91721 39.7027 7.15626 39.5645ZM13.5618 46.3382C13.7001 46.0992 14.006 46.0177 14.245 46.156L14.2529 46.1606C14.492 46.2988 14.5737 46.6047 14.4355 46.8437C14.2973 47.0828 13.9914 47.1645 13.7523 47.0263L13.744 47.0214C13.505 46.8831 13.4234 46.5772 13.5618 46.3382ZM32.4382 46.3382C32.5766 46.5772 32.495 46.8831 32.256 47.0214L32.2477 47.0263C32.0086 47.1645 31.7027 47.0828 31.5645 46.8437C31.4263 46.6047 31.508 46.2988 31.7471 46.1606L31.755 46.156C31.994 46.0177 32.2999 46.0992 32.4382 46.3382ZM22.4953 48.9999C22.4953 48.7237 22.7193 48.4999 22.9954 48.5H23.0046C23.2807 48.4999 23.5047 48.7237 23.5047 48.9999C23.5048 49.276 23.281 49.4999 23.0049 49.5H22.9951C22.719 49.4999 22.4952 49.276 22.4953 48.9999Z" fill="white"/>
<path opacity="0.2" d="M23 6L23 8" stroke="white"/>
</svg>
