<svg width="204" height="71" viewBox="0 0 204 71" fill="none" xmlns="http://www.w3.org/2000/svg">
<rect x="0.5" y="0.98877" width="202.467" height="69" rx="7.5" stroke="url(#paint0_linear_1582_165)"/>
<path d="M64.911 39.6193C64.6354 39.9647 64.2817 40.2404 63.8787 40.424C63.4518 40.6147 62.9881 40.7102 62.5202 40.7039C62.0624 40.7135 61.6084 40.6199 61.1922 40.4301C60.776 40.2403 60.4083 39.9593 60.1167 39.6081C59.4847 38.8775 59.1688 37.859 59.1688 36.5528C59.1688 35.6654 59.3094 34.919 59.5907 34.3134C59.8427 33.7399 60.2634 33.2559 60.7973 32.9251C61.3386 32.6012 61.9604 32.4353 62.5919 32.4464C63.3719 32.4464 64.0086 32.6409 64.5017 33.03C64.9949 33.4191 65.3038 33.9943 65.4285 34.7557H68.6632C68.6248 33.8188 68.3152 32.9128 67.7716 32.1469C67.2224 31.3998 66.4871 30.8079 65.6381 30.4296C64.6802 30.0031 63.6397 29.7919 62.5905 29.811C61.246 29.811 60.0773 30.0793 59.0844 30.6158C58.1004 31.1429 57.2935 31.9459 56.7638 32.9251C56.2107 33.9272 55.9341 35.1364 55.9341 36.5528C55.9341 37.9365 56.1961 39.1336 56.7202 40.1441C57.2226 41.1336 58.0158 41.9474 58.9944 42.4772C59.9863 43.0212 61.1625 43.2931 62.523 43.2931C63.5592 43.3084 64.5865 43.1017 65.5354 42.6871C66.395 42.3125 67.1479 41.7316 67.7266 40.9964C68.2979 40.2479 68.6464 39.3546 68.7321 38.4184H65.4975C65.3937 38.8569 65.1934 39.2671 64.911 39.6193Z" fill="white"/>
<path d="M76.9708 29.811C75.5953 29.811 74.4154 30.083 73.4309 30.627C72.4586 31.1593 71.6671 31.9669 71.1568 32.9475C70.6252 33.9505 70.3594 35.1598 70.3594 36.5752C70.3594 37.9589 70.6252 39.1528 71.1568 40.1567C71.6671 41.1373 72.4586 41.945 73.4309 42.4772C74.4154 43.0212 75.5953 43.2932 76.9708 43.2932C78.3462 43.2932 79.5266 43.0212 80.512 42.4772C81.4825 41.9468 82.2704 41.1383 82.7735 40.1567C83.2985 39.1537 83.5606 37.9598 83.5596 36.5752C83.5596 34.46 82.9774 32.8038 81.8129 31.6067C80.6484 30.4096 79.0344 29.811 76.9708 29.811ZM79.4446 39.5731C78.8427 40.3139 78.018 40.6844 76.9708 40.6844C75.9094 40.6844 75.0773 40.3149 74.4744 39.5759C73.8716 38.8369 73.5706 37.8302 73.5715 36.5556C73.5715 35.2633 73.8725 34.2524 74.4744 33.5227C75.0764 32.7931 75.9085 32.4278 76.9708 32.4268C78.019 32.4268 78.8436 32.7921 79.4446 33.5227C80.0456 34.2533 80.3465 35.2643 80.3475 36.5556C80.3475 37.8292 80.0465 38.8351 79.4446 39.5731Z" fill="white"/>
<path d="M95.0311 31.4905C94.5606 30.9647 93.9809 30.5469 93.3322 30.2659C92.6344 29.9588 91.8787 29.8037 91.1157 29.8111C90.0483 29.7939 89.0012 30.1031 88.1159 30.697C87.2254 31.3056 86.5134 32.1388 86.0528 33.1113C85.5398 34.1857 85.2828 35.3634 85.3018 36.5528C85.2842 37.734 85.5413 38.9032 86.0528 39.9692C86.5147 40.9443 87.2262 41.7812 88.1159 42.3961C88.9987 42.9964 90.0467 43.3098 91.1157 43.2932C91.8963 43.3033 92.6693 43.1402 93.3786 42.8159C94.0304 42.518 94.6103 42.0841 95.0789 41.5437L95.1492 43.0133H98.2236V25.7985H95.0311V31.4905ZM95.0311 38.2785C94.8073 38.9558 94.3875 39.5522 93.8244 39.993C93.2794 40.4172 92.605 40.6434 91.9131 40.634C91.2852 40.6431 90.6702 40.4556 90.1552 40.098C89.6303 39.7296 89.2169 39.2252 88.9598 38.6396C88.6696 37.9824 88.5257 37.2706 88.5378 36.5528C88.5239 35.8268 88.6678 35.1064 88.9598 34.4409C89.2152 33.8576 89.6292 33.3568 90.1552 32.9951C90.673 32.6445 91.2869 32.4613 91.9131 32.4703C92.6012 32.4604 93.2733 32.6774 93.8244 33.0875C94.3948 33.5231 94.8163 34.1233 95.0311 34.8062V38.2785Z" fill="white"/>
<path d="M111.874 31.6655C110.85 30.4142 109.221 29.7882 106.985 29.7872C105.548 29.7872 104.321 30.0555 103.305 30.592C102.308 31.1108 101.494 31.9205 100.972 32.9125C100.433 33.9249 100.163 35.1304 100.163 36.529C100.163 37.9276 100.433 39.1327 100.972 40.1441C101.488 41.1319 102.288 41.9442 103.27 42.4772C104.263 43.0212 105.454 43.2932 106.845 43.2932C108.642 43.2932 110.104 42.8658 111.23 42.0112C112.356 41.1565 113.012 40.0056 113.199 38.5584H109.964C109.833 39.1879 109.458 39.7409 108.921 40.0979C108.311 40.5139 107.584 40.7261 106.845 40.7039C106.095 40.7039 105.466 40.5253 104.957 40.1679C104.444 39.8035 104.039 39.3079 103.786 38.7333C103.52 38.1263 103.381 37.4714 103.378 36.8089H113.173C113.331 34.634 112.898 32.9195 111.874 31.6655ZM103.678 34.5696C103.807 34.1651 104.007 33.7862 104.267 33.4499C104.86 32.7035 105.759 32.3303 106.963 32.3303C107.791 32.3303 108.471 32.5402 109.002 32.9601C109.255 33.1497 109.464 33.3919 109.614 33.6698C109.764 33.9477 109.851 34.2547 109.87 34.5696H103.678Z" fill="white"/>
<path d="M137.364 29.811C136.683 29.7966 136.006 29.9252 135.378 30.1883C134.75 30.4513 134.185 30.843 133.719 31.3379C133.567 31.4933 133.426 31.6612 133.285 31.8375L133.172 30.0909H130.097V43.0132H133.332V34.8844C133.645 34.2943 134.062 33.7648 134.562 33.3211C135.169 32.7908 135.948 32.4966 136.755 32.4926C137.426 32.4926 137.935 32.6843 138.278 33.065L139.924 30.4394C139.142 30.0069 138.258 29.79 137.364 29.811Z" fill="#CDBEF4"/>
<path d="M151.371 31.6655C150.347 30.4142 148.718 29.7882 146.483 29.7872C145.043 29.7872 143.816 30.0555 142.802 30.592C141.804 31.11 140.99 31.9199 140.469 32.9125C139.929 33.9249 139.659 35.1304 139.66 36.529C139.661 37.9276 139.931 39.1327 140.469 40.1441C140.985 41.1319 141.785 41.9442 142.767 42.4772C143.759 43.0212 144.95 43.2932 146.342 43.2932C148.139 43.2932 149.6 42.8658 150.726 42.0112C151.851 41.1565 152.507 40.0056 152.694 38.5584H149.458C149.328 39.1884 148.953 39.7416 148.415 40.0979C147.806 40.5139 147.079 40.7262 146.34 40.7039C145.59 40.7039 144.961 40.5253 144.453 40.1679C143.94 39.8031 143.535 39.3076 143.28 38.7333C143.015 38.126 142.877 37.4712 142.874 36.8089H152.671C152.828 34.634 152.395 32.9195 151.371 31.6655ZM143.173 34.5696C143.303 34.1651 143.502 33.7862 143.763 33.4499C144.356 32.7035 145.255 32.3303 146.459 32.3303C147.286 32.3303 147.967 32.5402 148.499 32.9601C148.752 33.15 148.961 33.3922 149.11 33.6701C149.26 33.948 149.347 34.2549 149.366 34.5696H143.173Z" fill="#CDBEF4"/>
<path d="M164.6 30.4408C163.889 30.021 163.041 29.811 162.056 29.811C161.101 29.8116 160.162 30.0652 159.338 30.5458C158.788 30.8642 158.305 31.2853 157.916 31.7858L157.837 30.091H154.743V43.0133H157.955V35.2456C158.405 34.3653 158.882 33.7061 159.386 33.275C159.945 32.7728 160.671 32.4942 161.425 32.4926C161.724 32.4819 162.021 32.5382 162.295 32.6574C162.569 32.7766 162.812 32.9556 163.007 33.1812C163.406 33.6403 163.606 34.243 163.606 34.9895V43.0133H166.841V34.8061C166.841 33.7956 166.645 32.9214 166.254 32.1833C165.88 31.4587 165.306 30.8546 164.6 30.4408Z" fill="#CDBEF4"/>
<path d="M180.093 31.9915C179.583 31.2641 178.87 30.7008 178.043 30.3708C177.16 29.9976 176.116 29.811 174.912 29.811C173.841 29.7909 172.776 29.9689 171.77 30.3358C170.928 30.641 170.181 31.1596 169.602 31.8404C169.055 32.5111 168.732 33.3342 168.676 34.1959H171.794C171.823 33.8895 171.92 33.5934 172.078 33.329C172.236 33.0646 172.451 32.8386 172.708 32.6675C173.24 32.3036 173.936 32.1212 174.795 32.1203C175.67 32.1203 176.358 32.3223 176.859 32.7263C177.359 33.1303 177.609 33.6901 177.608 34.4058V35.2455H174.936C173.091 35.2455 171.653 35.615 170.621 36.354C169.59 37.093 169.074 38.1231 169.074 39.4443C169.059 40.1508 169.246 40.847 169.614 41.4513C169.981 42.0337 170.505 42.5021 171.126 42.8033C171.831 43.1429 172.606 43.3108 173.389 43.2931C174.545 43.2931 175.53 43.0715 176.342 42.6283C176.856 42.3502 177.304 41.9655 177.655 41.5003L177.726 43.0132H180.82V34.5933C180.82 33.566 180.578 32.6988 180.093 31.9915ZM177.608 38.7585C177.258 39.2964 176.804 39.7597 176.272 40.1217C175.642 40.543 174.898 40.7628 174.139 40.7515C173.543 40.7515 173.074 40.6073 172.732 40.319C172.57 40.1935 172.439 40.0325 172.35 39.8485C172.26 39.6646 172.215 39.4625 172.216 39.2581C172.204 38.9976 172.264 38.7388 172.387 38.509C172.511 38.2792 172.695 38.0868 172.919 37.9523C173.388 37.6565 174.029 37.5087 174.842 37.5087H177.608V38.7585Z" fill="#CDBEF4"/>
<path d="M126.457 25.8124H122.068L114.895 38.452V40.8439H123.3V43.2035H126.462V40.8383H128.388V37.9733H126.457V25.8124ZM123.3 34.1469V37.9733H118.449L123.371 29.1672L123.3 34.1469Z" fill="#CDBEF4"/>
<path d="M50.5405 39.1224L48.9274 31.4793C48.9132 31.4113 48.893 31.3448 48.8669 31.2805C48.6377 30.4855 48.3311 30.3134 47.9176 29.9789C47.5351 29.6906 47.3706 29.5814 47.3706 29.5814C47.3706 29.5814 46.3242 31.9859 46.0387 32.214C43.24 34.4534 38.5512 37.9425 37.405 38.5723L37.3839 38.5835C37.0071 38.8122 36.5808 38.9475 36.1406 38.9782V50.4813C37.1193 50.4559 38.0751 50.1812 38.9168 49.6836C40.1826 48.9838 43.5494 46.2938 47.4957 43.1056L49.0427 41.8571C50.0708 41.0328 50.5644 40.214 50.5532 39.3505C50.5563 39.2742 50.5521 39.1978 50.5405 39.1224Z" fill="#56189E"/>
<path d="M35.1353 38.6675L26.1007 32.0475C26.0253 31.9853 25.9582 31.9138 25.901 31.8348C25.893 31.6175 25.827 31.4063 25.7099 31.2228C25.5927 31.0393 25.4286 30.8902 25.2344 30.7907L25.292 29.4723C25.292 29.4723 25.1036 29.5955 24.6732 29.8544C24.1317 30.1777 23.7253 30.4142 23.4468 31.6864L23.2373 32.7277L21.9237 39.2693C21.9055 39.3615 21.8974 39.4554 21.8998 39.5493C21.9308 40.7319 22.9504 41.5605 23.1839 41.734L33.487 49.622C34.2572 50.1964 35.1967 50.501 36.1591 50.4884V38.9768C35.7916 38.9992 35.4282 38.8894 35.1353 38.6675Z" fill="#3A1B9B"/>
<path d="M48.1193 30.1203C48.1017 30.1077 48.0848 30.0942 48.0687 30.0797C47.7508 29.8124 41.477 25.5241 37.7655 22.9923C37.2743 22.6548 36.6893 22.4789 36.0925 22.4892C35.4958 22.4995 34.9172 22.6955 34.4381 23.0496L33.9838 23.3911C33.1962 23.9804 31.7336 25.0706 29.97 26.3205C27.9476 27.755 26.087 29.0035 24.4317 29.993C23.7285 30.4128 23.0787 31.5479 24.8536 32.9321C25.0406 33.072 34.3776 39.965 34.3776 39.965C35.4492 40.7501 36.7178 40.6801 37.9765 39.9538C39.2015 39.2806 43.5387 36.0489 46.2741 33.8922L46.9689 33.3421C47.0336 33.2904 47.0926 33.24 47.1489 33.1896C48.3176 32.2281 49.2978 30.9307 48.1193 30.1203Z" fill="#8524E2"/>
<path d="M31.8119 32.6102C32.1268 32.8734 32.5047 33.0513 32.9089 33.1267C33.298 33.1929 33.6963 33.1834 34.0818 33.0987C34.4815 33.0131 34.8727 32.8918 35.2505 32.7362C35.5219 32.6256 35.7962 32.5039 36.0943 32.3639C36.1196 32.3527 36.235 32.2953 36.2504 32.3121L37.7145 33.4318C37.8171 33.5074 37.8214 33.5438 37.6174 33.6249C37.4401 33.6898 37.2522 33.7212 37.0633 33.7173H37.0493C36.6072 33.711 36.1789 33.5638 35.8271 33.2974C35.7867 33.2668 35.7373 33.2502 35.6865 33.2502C35.6357 33.2502 35.5863 33.2668 35.5458 33.2974L34.176 34.3555C34.1478 34.377 34.1251 34.4048 34.1097 34.4367C34.0944 34.4685 34.0867 34.5035 34.0874 34.5389C34.0879 34.5753 34.0969 34.611 34.1138 34.6434C34.1306 34.6757 34.1548 34.7036 34.1845 34.725C34.6554 35.0741 35.2022 35.3081 35.7807 35.408C36.0073 35.4472 36.237 35.4668 36.467 35.4668C36.9126 35.4644 37.3553 35.396 37.7806 35.2638C38.2377 35.1243 38.6735 34.9232 39.0758 34.6662C39.0888 34.657 39.1043 34.652 39.1201 34.652C39.136 34.652 39.1515 34.657 39.1644 34.6662L39.8676 35.2009C39.9082 35.2311 39.9576 35.2474 40.0083 35.2474C40.059 35.2474 40.1083 35.2311 40.1489 35.2009L40.8113 34.6802C40.8396 34.6585 40.8624 34.6304 40.8778 34.5984C40.8932 34.5663 40.9007 34.531 40.8999 34.4955C40.8993 34.4603 40.8906 34.4258 40.8745 34.3945C40.8584 34.3632 40.8354 34.336 40.8071 34.3149L40.2066 33.8671C40.1982 33.8604 40.1912 33.8522 40.1862 33.8428C40.1811 33.8334 40.178 33.8231 40.177 33.8125C40.1758 33.801 40.1772 33.7893 40.1811 33.7784C40.185 33.7675 40.1913 33.7576 40.1995 33.7495C40.4745 33.4736 40.7059 33.158 40.8859 32.8132C41.1126 32.406 41.1934 31.9341 41.1151 31.4752C41.0186 31.0395 40.7533 30.6592 40.3767 30.4171C40.0291 30.1618 39.6298 29.9846 39.2066 29.8979C38.8265 29.8272 38.4364 29.8272 38.0562 29.8979C37.6772 29.9674 37.3064 30.0753 36.9494 30.2198C36.6273 30.3499 36.0676 30.6074 35.9959 30.6396C35.9242 30.6718 35.837 30.697 35.7962 30.6676L34.5093 29.7075C34.5612 29.6827 34.6148 29.6616 34.6697 29.6445C34.9141 29.5683 35.1705 29.537 35.4263 29.5522C35.6398 29.5646 35.8472 29.628 36.031 29.7369C36.0703 29.7609 36.1159 29.7727 36.1619 29.771C36.208 29.7692 36.2525 29.754 36.2898 29.7271L37.5105 28.8328C37.5418 28.8098 37.5668 28.7794 37.5831 28.7443C37.5995 28.7092 37.6067 28.6706 37.6042 28.6321C37.6017 28.5935 37.5895 28.5561 37.5687 28.5235C37.5479 28.4908 37.5192 28.4638 37.4852 28.4451C37.0796 28.2206 36.6281 28.0909 36.1646 28.0658C35.5936 28.0351 35.0217 28.1081 34.477 28.2813C34.1097 28.3953 33.7549 28.5458 33.418 28.7306C33.4056 28.7384 33.3912 28.7426 33.3765 28.7426C33.3618 28.7426 33.3474 28.7384 33.335 28.7306L32.7471 28.2911C32.7075 28.2632 32.66 28.2482 32.6114 28.2482C32.5628 28.2482 32.5154 28.2632 32.4757 28.2911L31.8569 28.711C31.8266 28.7313 31.8018 28.7586 31.7844 28.7905C31.767 28.8224 31.7576 28.858 31.7571 28.8944C31.7558 28.9307 31.7634 28.9668 31.779 28.9997C31.7947 29.0326 31.818 29.0612 31.8471 29.0833L32.2788 29.4136C32.2879 29.4203 32.2955 29.4289 32.3008 29.4388C32.3062 29.4487 32.3092 29.4597 32.3098 29.471C32.3097 29.4828 32.3072 29.4946 32.3024 29.5054C32.2975 29.5163 32.2905 29.526 32.2816 29.534C32.019 29.7599 31.789 30.0208 31.5981 30.3093C31.3388 30.6746 31.2082 31.1151 31.2268 31.5619C31.2458 31.7676 31.3076 31.967 31.4083 32.1475C31.5091 32.328 31.6465 32.4856 31.8119 32.6102ZM33.3772 30.6732C33.4085 30.5921 33.4496 30.515 33.4996 30.4437C33.5811 30.3261 33.5966 30.3233 33.6711 30.3793L34.6134 31.0987C34.7006 31.1687 34.754 31.1967 34.5332 31.2792C34.4018 31.3244 34.2653 31.3536 34.1268 31.366C34.0284 31.3822 33.9277 31.3781 33.831 31.354C33.7342 31.3299 33.6434 31.2864 33.5642 31.2261C33.4727 31.1705 33.4038 31.0847 33.3695 30.9835C33.3353 30.8824 33.338 30.7725 33.3772 30.6732ZM38.7608 31.7383C39.0055 31.9174 39.0955 32.1232 39.0421 32.3681C39.0097 32.506 38.9462 32.6347 38.8565 32.7446C38.7847 32.8314 38.7439 32.8552 38.6736 32.8076L37.4937 31.9272C37.353 31.8097 37.353 31.8097 37.5935 31.7033C37.776 31.6419 37.9646 31.6001 38.1561 31.5787C38.3706 31.5551 38.5862 31.612 38.7608 31.7383Z" fill="white"/>
<defs>
<linearGradient id="paint0_linear_1582_165" x1="0" y1="0.48877" x2="221.706" y2="63.1008" gradientUnits="userSpaceOnUse">
<stop stop-color="#A0D2EB"/>
<stop offset="1" stop-color="#7B78FF"/>
</linearGradient>
</defs>
</svg>
