<svg width="24" height="24" viewBox="0 0 24 24" fill="none" xmlns="http://www.w3.org/2000/svg">
<rect width="24" height="24" rx="12" fill="#0F1426"/>
<path d="M17.4545 8.11364C17.4545 8.11364 15.8911 6.88977 14.0455 6.75L13.8791 7.08307C15.5475 7.49182 16.3132 8.07614 17.1136 8.79545C15.734 8.09114 14.3727 7.43182 12 7.43182C9.62727 7.43182 8.26602 8.09114 6.88636 8.79545C7.68682 8.07614 8.59773 7.42636 10.1209 7.08307L9.95455 6.75C8.01818 6.93239 6.54545 8.11364 6.54545 8.11364C6.54545 8.11364 4.79966 10.6452 4.5 15.6136C6.25909 17.6431 8.93182 17.6591 8.93182 17.6591L9.49091 16.9145C8.54182 16.5845 7.47136 15.9958 6.54545 14.9318C7.64932 15.767 9.31534 16.6364 12 16.6364C14.6847 16.6364 16.3507 15.767 17.4545 14.9318C16.529 15.9958 15.4585 16.5845 14.5091 16.9145L15.0682 17.6591C15.0682 17.6591 17.7409 17.6431 19.5 15.6136C19.2003 10.6452 17.4545 8.11364 17.4545 8.11364ZM9.78409 14.25C9.12477 14.25 8.59091 13.6398 8.59091 12.8864C8.59091 12.133 9.12477 11.5227 9.78409 11.5227C10.4434 11.5227 10.9773 12.133 10.9773 12.8864C10.9773 13.6398 10.4434 14.25 9.78409 14.25ZM14.2159 14.25C13.5566 14.25 13.0227 13.6398 13.0227 12.8864C13.0227 12.133 13.5566 11.5227 14.2159 11.5227C14.8752 11.5227 15.4091 12.133 15.4091 12.8864C15.4091 13.6398 14.8752 14.25 14.2159 14.25Z" fill="#A0D2EB"/>
</svg>
