<svg width="115" height="32" viewBox="0 0 115 32" fill="none" xmlns="http://www.w3.org/2000/svg">
<path d="M0 16.2993L9.83481 22.1031V0L0 16.2993Z" fill="#8A93AF"/>
<path d="M9.83496 0V22.1031L19.6659 16.2993L9.83496 0Z" fill="#636A8B"/>
<path d="M9.8348 11.8317L0 16.2994L9.8348 22.1032L19.6657 16.2994L9.8348 11.8317Z" fill="#636A8B"/>
<path d="M19.6657 16.3673L9.83472 22.1711V11.8995L19.6657 16.3673Z" fill="#474E6E"/>
<path d="M0 18.1604L9.83481 31.9999V23.9642L0 18.1604Z" fill="#8A93AF"/>
<path d="M9.83496 23.9642V31.9999L19.6736 18.1604L9.83496 23.9642Z" fill="#636A8B"/>
<path d="M34.7472 16.5806C34.7472 16.7672 34.5861 16.919 34.3936 16.919H27.5806C27.7507 18.5505 29.0175 20.0388 30.7991 20.0388C32.0167 20.0388 32.9209 19.5876 33.6013 18.646C33.6998 18.5158 33.8475 18.4334 34.0355 18.5115C34.1384 18.5549 34.2101 18.646 34.228 18.7501C34.2459 18.8586 34.2145 18.9193 34.1832 18.9801C33.4983 20.1386 32.133 20.707 30.7946 20.707C28.5028 20.707 26.8689 18.7198 26.8689 16.5936C26.8689 14.4675 28.5028 12.4802 30.7946 12.4802C33.0865 12.4758 34.7427 14.4588 34.7472 16.5806ZM34.0176 16.2595C33.8699 14.628 32.5807 13.1397 30.7991 13.1397C29.0175 13.1397 27.7507 14.628 27.5806 16.2595H34.0176ZM43.015 12.6407C43.2119 12.6407 43.3552 12.8056 43.3552 12.9705C43.3552 13.1614 43.2075 13.3003 43.015 13.3003H41.1886V20.2471C41.1886 20.412 41.0409 20.5769 40.8484 20.5769C40.6515 20.5769 40.5082 20.412 40.5082 20.2471V13.3003H38.7535C38.5566 13.3003 38.4133 13.1571 38.4133 12.9705C38.4133 12.8056 38.561 12.6407 38.7535 12.6407H40.5082V10.098C40.5082 9.93749 40.6202 9.78996 40.7813 9.76392C41.0096 9.72921 41.1886 9.88108 41.1886 10.0894V12.6407H43.015ZM54.1565 15.9992V20.2081C54.1565 20.399 53.9864 20.5378 53.8163 20.5378C53.6194 20.5378 53.4761 20.3946 53.4761 20.2081V15.9992C53.4761 14.5803 52.648 13.1614 51.0142 13.1614C48.9192 13.1614 48.015 14.9361 48.1359 16.7542C48.1359 16.8019 48.1583 17.0145 48.1583 17.0362V20.195C48.1583 20.3556 48.0464 20.5031 47.8852 20.5291C47.6569 20.5639 47.4779 20.412 47.4779 20.2037V6.37945C47.4779 6.21457 47.6256 6.04968 47.8181 6.04968C48.015 6.04968 48.1583 6.21457 48.1583 6.37945V14.2028C48.7447 13.1874 49.7921 12.5019 51.0097 12.5019C53.0106 12.5019 54.1565 14.2028 54.1565 15.9992ZM66.3724 16.5806C66.3724 16.7672 66.2113 16.919 66.0188 16.919H59.2014C59.3715 18.5505 60.6383 20.0388 62.4198 20.0388C63.6374 20.0388 64.5416 19.5876 65.222 18.646C65.3205 18.5158 65.4682 18.4334 65.6562 18.5115C65.7592 18.5549 65.8308 18.646 65.8487 18.7501C65.8666 18.8586 65.8353 18.9193 65.8039 18.9801C65.119 20.1386 63.7538 20.707 62.4153 20.707C60.1235 20.707 58.4896 18.7198 58.4896 16.5936C58.4896 14.4675 60.1235 12.4802 62.4153 12.4802C64.7117 12.4758 66.3679 14.4588 66.3724 16.5806ZM65.6383 16.2595C65.4906 14.628 64.2014 13.1397 62.4198 13.1397C60.6383 13.1397 59.3715 14.628 59.2014 16.2595H65.6383ZM74.7342 12.9488C74.7342 13.1614 74.6133 13.2786 74.4164 13.3046C72.4154 13.5866 71.5157 15.1704 71.5157 17.0145V20.1733C71.5157 20.3339 71.4038 20.4814 71.2427 20.5075C71.0144 20.5422 70.8353 20.3903 70.8353 20.182V12.9835C70.8353 12.823 70.9472 12.6754 71.1084 12.6494C71.3367 12.6147 71.5157 12.7666 71.5157 12.9748V14.4414C72.0752 13.5216 73.1988 12.6451 74.3671 12.6451C74.5372 12.6407 74.7342 12.7622 74.7342 12.9488ZM85.925 16.5806C85.925 16.7672 85.7638 16.919 85.5714 16.919H78.7584C78.9285 18.5505 80.1953 20.0388 81.9769 20.0388C83.1944 20.0388 84.0986 19.5876 84.779 18.646C84.8775 18.5158 85.0252 18.4334 85.2132 18.5115C85.3162 18.5549 85.3878 18.646 85.4057 18.7501C85.4236 18.8586 85.3923 18.9193 85.361 18.9801C84.6761 20.1386 83.3108 20.707 81.9724 20.707C79.6805 20.707 78.0467 18.7198 78.0467 16.5936C78.0467 14.4675 79.6805 12.4802 81.9724 12.4802C84.2643 12.4758 85.9205 14.4588 85.925 16.5806ZM85.1953 16.2595C85.0476 14.628 83.7584 13.1397 81.9769 13.1397C80.1953 13.1397 78.9285 14.628 78.7584 16.2595H85.1953ZM96.9233 13.0312V20.2471C96.9233 20.438 96.7532 20.5769 96.5831 20.5769C96.3861 20.5769 96.2429 20.4337 96.2429 20.2471V18.876C95.6834 19.9651 94.6807 20.7418 93.4139 20.7418C91.3906 20.7418 90.267 19.0408 90.267 17.2445V13.0139C90.267 12.849 90.4147 12.6841 90.6072 12.6841C90.8042 12.6841 90.9474 12.849 90.9474 13.0139V17.2445C90.9474 18.6633 91.7755 20.0822 93.4094 20.0822C95.7013 20.0822 96.2384 18.0038 96.2384 15.7084V13.0139C96.2384 12.823 96.4354 12.6277 96.6771 12.6971C96.8248 12.7449 96.9233 12.8837 96.9233 13.0312ZM114.157 15.9731V20.2037C114.157 20.3946 113.987 20.5335 113.817 20.5335C113.62 20.5335 113.477 20.3903 113.477 20.2037V15.9731C113.477 14.5543 112.649 13.1614 111.015 13.1614C108.965 13.1614 108.186 15.2876 108.186 16.9407V20.2037C108.186 20.3946 108.016 20.5335 107.846 20.5335C107.649 20.5335 107.505 20.3903 107.505 20.2037V15.9731C107.505 14.5543 106.677 13.1614 105.043 13.1614C102.971 13.1614 102.116 14.7452 102.192 16.8496C102.192 16.8973 102.214 16.9928 102.192 17.0145V20.195C102.192 20.3556 102.08 20.5031 101.914 20.5291C101.686 20.5639 101.507 20.412 101.507 20.2037V12.9835C101.507 12.823 101.619 12.6754 101.78 12.6494C102.008 12.6147 102.187 12.7666 102.187 12.9748V14.1811C102.774 13.1657 103.821 12.5019 105.039 12.5019C106.427 12.5019 107.501 13.3523 107.94 14.6063C108.499 13.3784 109.596 12.5019 111.01 12.5019C113.011 12.5019 114.157 14.1768 114.157 15.9731Z" fill="#8C8E9D"/>
</svg>
