<svg width="297" height="629" viewBox="0 0 297 629" fill="none" xmlns="http://www.w3.org/2000/svg">
<circle cx="145.5" cy="77.4999" r="60.1864" stroke="white" stroke-opacity="0.2"/>
<circle cx="145.5" cy="77.5" r="68.5932" stroke="white" stroke-opacity="0.1"/>
<circle cx="145.5" cy="77.5" r="77" stroke="white" stroke-opacity="0.05"/>
<circle cx="145.027" cy="76.922" r="52.7525" fill="white"/>
<g clip-path="url(#clip0)">
<path d="M170.553 52.2876V55.5248C170.553 57.7505 169.976 59.8605 168.91 61.7104L159.916 77.3766L150.519 61.0456C148.27 57.1435 141.784 57.1435 139.536 61.0456L130.139 77.3188L121.203 61.7682C120.107 59.8605 119.502 57.6927 119.502 55.5248V52.2876C119.502 49.4549 121.808 47.1426 124.633 47.1426H165.422C168.247 47.1426 170.553 49.4549 170.553 52.2876Z" fill="#7B78FF"/>
<path d="M159.916 77.3767L150.519 93.6499C149.395 95.6154 147.29 96.8293 145.013 96.8293C142.736 96.8293 140.66 95.5864 139.507 93.6499L130.11 77.3189L139.507 61.0457C141.756 57.1436 148.242 57.1436 150.49 61.0457L159.916 77.3767Z" fill="#12429F"/>
<path d="M170.553 99.1417V102.379C170.553 105.212 168.247 107.524 165.422 107.524H124.633C121.808 107.553 119.502 105.24 119.502 102.408V99.1128C119.502 96.9449 120.078 94.8349 121.145 92.985L130.139 77.3188L139.536 93.6498C140.66 95.6153 142.765 96.8293 145.042 96.8293C147.319 96.8293 149.395 95.5864 150.548 93.6498L159.945 77.3767L168.881 92.9272C169.976 94.8349 170.553 97.0027 170.553 99.1417Z" fill="#A0D2EB"/>
</g>
<line x1="145" y1="127" x2="145" y2="216" stroke="url(#paint0_linear)" stroke-width="2" stroke-linecap="round" stroke-linejoin="round"/>
<rect x="94" y="217" width="104" height="38" rx="19" fill="url(#paint1_linear)"/>
<path d="M121.179 235.107H116.318V236.789H119.053C118.67 238.279 117.439 239.25 115.71 239.25C113.543 239.25 112.183 237.719 112.183 235.798C112.183 233.747 113.714 232.25 115.676 232.25C116.872 232.25 117.897 232.811 118.526 233.672L120.297 232.694C119.326 231.272 117.651 230.363 115.683 230.363C112.531 230.363 110.139 232.681 110.139 235.75C110.139 238.819 112.531 241.137 115.683 241.137C118.841 241.137 121.227 238.819 121.227 235.736C121.227 235.504 121.206 235.285 121.179 235.107ZM129.346 241.137C132.498 241.137 134.89 238.819 134.89 235.75C134.89 232.681 132.498 230.363 129.346 230.363C126.195 230.363 123.802 232.681 123.802 235.75C123.802 238.819 126.195 241.137 129.346 241.137ZM129.346 239.25C127.378 239.25 125.846 237.726 125.846 235.75C125.846 233.774 127.378 232.25 129.346 232.25C131.322 232.25 132.846 233.774 132.846 235.75C132.846 237.726 131.322 239.25 129.346 239.25ZM144.575 230.5L141.697 238.546L138.826 230.5H136.673L140.645 241H142.75L146.729 230.5H144.575ZM156.072 232.312V230.5H149.804V241H156.072V239.188H151.841V236.652H155.566V234.861H151.841V232.312H156.072ZM165.928 241H168.143L165.374 236.324C166.461 235.887 167.193 234.889 167.193 233.61C167.193 231.895 166.01 230.5 163.85 230.5H159.748V241H161.786V236.563H163.495L165.928 241ZM161.786 232.223H163.713C164.691 232.223 165.217 232.763 165.217 233.59C165.217 234.431 164.691 234.93 163.713 234.93H161.786V232.223ZM179.113 230.5V237.992L173.125 230.5H171.211V241H173.221V233.48L179.209 241H181.137V230.5H179.113Z" fill="white"/>
<rect x="1" y="282" width="295" height="346" rx="9" stroke="#7B78FF" stroke-opacity="0.2" stroke-width="2"/>
<line x1="145" y1="260" x2="145" y2="281" stroke="#7B78FF" stroke-opacity="0.2" stroke-width="2"/>
<rect x="77" y="302" width="135" height="41" rx="20.5" fill="#7B78FF" fill-opacity="0.25"/>
<path d="M123.645 327H125.543L123.17 322.992C124.102 322.617 124.729 321.762 124.729 320.666C124.729 319.195 123.715 318 121.863 318H118.348V327H120.094V323.197H121.559L123.645 327ZM120.094 319.477H121.746C122.584 319.477 123.035 319.939 123.035 320.648C123.035 321.369 122.584 321.797 121.746 321.797H120.094V319.477ZM127.576 319.805C128.098 319.805 128.537 319.371 128.537 318.838C128.537 318.305 128.098 317.883 127.576 317.883C127.043 317.883 126.604 318.305 126.604 318.838C126.604 319.371 127.043 319.805 127.576 319.805ZM126.738 327H128.396V320.795H126.738V327ZM132.275 327.117C133.658 327.117 134.684 326.455 134.684 325.119C134.684 323.848 133.74 323.467 132.896 323.197C132.182 322.969 131.543 322.846 131.543 322.406C131.543 322.078 131.842 321.902 132.275 321.902C132.721 321.902 133.354 322.113 133.799 322.418L134.52 321.322C133.875 320.906 133.078 320.678 132.316 320.678C131.062 320.678 129.979 321.287 129.979 322.576C129.979 323.812 130.975 324.146 131.812 324.422C132.492 324.65 133.066 324.791 133.066 325.266C133.066 325.646 132.744 325.852 132.264 325.852C131.66 325.852 130.887 325.523 130.383 325.125L129.68 326.32C130.342 326.777 131.291 327.117 132.275 327.117ZM142.441 327L139.406 323.701L142.107 320.795H140.086L137.736 323.408V318H136.066V327H137.736V324.07L140.32 327H142.441ZM150.908 318H147.059V327H148.805V323.73H150.908C152.713 323.73 153.873 322.506 153.873 320.889C153.873 319.295 152.713 318 150.908 318ZM150.645 322.254H148.805V319.471H150.645C151.652 319.471 152.18 320.045 152.18 320.871C152.18 321.732 151.652 322.254 150.645 322.254ZM157.629 327.117C159.551 327.117 161.021 325.764 161.021 323.895C161.021 322.031 159.551 320.678 157.629 320.678C155.701 320.678 154.236 322.031 154.236 323.895C154.236 325.764 155.701 327.117 157.629 327.117ZM157.623 325.682C156.627 325.682 155.836 324.955 155.836 323.895C155.836 322.846 156.627 322.107 157.623 322.107C158.613 322.107 159.416 322.857 159.416 323.895C159.416 324.938 158.613 325.682 157.623 325.682ZM162.375 327H164.045V318H162.375V327ZM166.764 319.805C167.285 319.805 167.725 319.371 167.725 318.838C167.725 318.305 167.285 317.883 166.764 317.883C166.23 317.883 165.791 318.305 165.791 318.838C165.791 319.371 166.23 319.805 166.764 319.805ZM165.926 327H167.584V320.795H165.926V327ZM172.336 327.105C173.426 327.105 174.375 326.66 174.984 325.939L173.795 324.938C173.473 325.395 172.951 325.676 172.33 325.676C171.322 325.676 170.543 324.949 170.543 323.895C170.543 322.834 171.322 322.107 172.33 322.107C172.951 322.107 173.473 322.389 173.795 322.846L174.984 321.844C174.375 321.123 173.426 320.678 172.336 320.678C170.408 320.678 168.943 322.025 168.943 323.895C168.943 325.758 170.408 327.105 172.336 327.105ZM176.994 319.805C177.516 319.805 177.955 319.371 177.955 318.838C177.955 318.305 177.516 317.883 176.994 317.883C176.461 317.883 176.021 318.305 176.021 318.838C176.021 319.371 176.461 319.805 176.994 319.805ZM176.156 327H177.814V320.795H176.156V327ZM185.66 323.83C185.631 321.92 184.254 320.666 182.467 320.666C180.557 320.666 179.174 322.102 179.174 323.9C179.174 325.693 180.527 327.117 182.525 327.117C183.85 327.117 184.881 326.49 185.379 325.482L184.055 324.926C183.732 325.488 183.158 325.787 182.52 325.787C181.617 325.787 180.885 325.178 180.814 324.158H185.643L185.66 323.83ZM182.484 321.896C183.275 321.896 183.873 322.359 183.996 323.139H180.873C181.066 322.365 181.676 321.896 182.484 321.896ZM188.982 327.117C190.365 327.117 191.391 326.455 191.391 325.119C191.391 323.848 190.447 323.467 189.604 323.197C188.889 322.969 188.25 322.846 188.25 322.406C188.25 322.078 188.549 321.902 188.982 321.902C189.428 321.902 190.061 322.113 190.506 322.418L191.227 321.322C190.582 320.906 189.785 320.678 189.023 320.678C187.77 320.678 186.686 321.287 186.686 322.576C186.686 323.812 187.682 324.146 188.52 324.422C189.199 324.65 189.773 324.791 189.773 325.266C189.773 325.646 189.451 325.852 188.971 325.852C188.367 325.852 187.594 325.523 187.09 325.125L186.387 326.32C187.049 326.777 187.998 327.117 188.982 327.117Z" fill="white"/>
<circle cx="102.886" cy="322.886" r="6.88636" fill="#7B78FF"/>
<path d="M100.132 323.181L101.785 324.952L105.641 320.82" stroke="white" stroke-width="2" stroke-linecap="round" stroke-linejoin="round"/>
<rect x="24" y="354" width="241" height="41" rx="20.5" fill="#7B78FF" fill-opacity="0.25"/>
<path d="M68.3086 379.781C69.6445 379.781 70.9102 379.236 71.7539 378.369L70.5176 377.208C69.9785 377.806 69.1699 378.164 68.3086 378.164C66.6152 378.164 65.3086 376.863 65.3086 375.164C65.3086 373.464 66.6152 372.164 68.3086 372.164C69.1699 372.164 69.9785 372.521 70.5176 373.119L71.7539 371.958C70.9102 371.091 69.6445 370.546 68.3086 370.546C65.6016 370.546 63.5566 372.533 63.5566 375.164C63.5566 377.794 65.6016 379.781 68.3086 379.781ZM75.8965 379.781C77.8184 379.781 79.2891 378.427 79.2891 376.558C79.2891 374.695 77.8184 373.341 75.8965 373.341C73.9688 373.341 72.5039 374.695 72.5039 376.558C72.5039 378.427 73.9688 379.781 75.8965 379.781ZM75.8906 378.345C74.8945 378.345 74.1035 377.619 74.1035 376.558C74.1035 375.509 74.8945 374.771 75.8906 374.771C76.8809 374.771 77.6836 375.521 77.6836 376.558C77.6836 377.601 76.8809 378.345 75.8906 378.345ZM87.7207 373.341C86.9238 373.341 86.2793 373.728 85.8516 374.337C85.541 373.652 84.9082 373.341 84.1055 373.341C83.3203 373.341 82.7109 373.728 82.3125 374.343V373.458H80.6426V379.664H82.3125V375.937C82.3125 375.205 82.7051 374.724 83.3789 374.724C83.9707 374.724 84.3867 375.099 84.3867 375.855V379.664H86.0625V375.937C86.0625 375.205 86.4551 374.724 87.1289 374.724C87.7148 374.724 88.1367 375.099 88.1367 375.855V379.664H89.8066V375.404C89.8066 374.103 88.9746 373.341 87.7207 373.341ZM98.6543 373.341C97.8574 373.341 97.2129 373.728 96.7852 374.337C96.4746 373.652 95.8418 373.341 95.0391 373.341C94.2539 373.341 93.6445 373.728 93.2461 374.343V373.458H91.5762V379.664H93.2461V375.937C93.2461 375.205 93.6387 374.724 94.3125 374.724C94.9043 374.724 95.3203 375.099 95.3203 375.855V379.664H96.9961V375.937C96.9961 375.205 97.3887 374.724 98.0625 374.724C98.6484 374.724 99.0703 375.099 99.0703 375.855V379.664H100.74V375.404C100.74 374.103 99.9082 373.341 98.6543 373.341ZM105.188 379.781C106.992 379.781 108.059 378.867 108.059 377.373V373.458H106.389V377.267C106.389 378.011 105.873 378.351 105.188 378.351C104.508 378.351 103.998 378.011 103.998 377.267V373.458H102.334V377.373C102.334 378.867 103.395 379.781 105.188 379.781ZM113.326 373.341C112.506 373.341 111.861 373.728 111.451 374.332V373.458H109.775V379.664H111.451V376.136C111.457 375.193 111.973 374.742 112.682 374.742C113.326 374.742 113.789 375.029 113.789 376.019V379.664H115.471V375.72C115.471 374.167 114.65 373.341 113.326 373.341ZM118.066 372.468C118.588 372.468 119.027 372.035 119.027 371.501C119.027 370.968 118.588 370.546 118.066 370.546C117.533 370.546 117.094 370.968 117.094 371.501C117.094 372.035 117.533 372.468 118.066 372.468ZM117.229 379.664H118.887V373.458H117.229V379.664ZM124.102 374.625V373.458H122.689V371.742H121.014V373.458H120.035V374.625H121.014V377.73C121.014 378.972 121.781 379.664 123.029 379.664H124.084V378.38H123.445C123 378.38 122.689 378.111 122.689 377.542V374.625H124.102ZM129.609 373.458L128.18 377.712L126.744 373.458H124.91L127.295 379.294L125.994 382.582H127.711L131.361 373.458H129.609ZM144.891 374.613H140.725V376.054H143.068C142.74 377.332 141.686 378.164 140.203 378.164C138.346 378.164 137.18 376.851 137.18 375.205C137.18 373.447 138.492 372.164 140.174 372.164C141.199 372.164 142.078 372.644 142.617 373.382L144.135 372.544C143.303 371.326 141.867 370.546 140.18 370.546C137.479 370.546 135.428 372.533 135.428 375.164C135.428 377.794 137.479 379.781 140.18 379.781C142.887 379.781 144.932 377.794 144.932 375.152C144.932 374.953 144.914 374.765 144.891 374.613ZM149.186 379.781C151.107 379.781 152.578 378.427 152.578 376.558C152.578 374.695 151.107 373.341 149.186 373.341C147.258 373.341 145.793 374.695 145.793 376.558C145.793 378.427 147.258 379.781 149.186 379.781ZM149.18 378.345C148.184 378.345 147.393 377.619 147.393 376.558C147.393 375.509 148.184 374.771 149.18 374.771C150.17 374.771 150.973 375.521 150.973 376.558C150.973 377.601 150.17 378.345 149.18 378.345ZM157.945 373.458L156.369 377.771L154.805 373.458H153.023L155.678 379.664H157.055L159.727 373.458H157.945ZM166.658 376.494C166.629 374.583 165.252 373.33 163.465 373.33C161.555 373.33 160.172 374.765 160.172 376.564C160.172 378.357 161.525 379.781 163.523 379.781C164.848 379.781 165.879 379.154 166.377 378.146L165.053 377.589C164.73 378.152 164.156 378.451 163.518 378.451C162.615 378.451 161.883 377.841 161.812 376.822H166.641L166.658 376.494ZM163.482 374.56C164.273 374.56 164.871 375.023 164.994 375.802H161.871C162.064 375.029 162.674 374.56 163.482 374.56ZM169.588 374.648V373.458H167.994V379.664H169.664V376.699C169.664 375.462 170.426 374.994 171.727 374.994V373.4C170.648 373.458 169.916 374.074 169.588 374.648ZM176.408 373.341C175.588 373.341 174.943 373.728 174.533 374.332V373.458H172.857V379.664H174.533V376.136C174.539 375.193 175.055 374.742 175.764 374.742C176.408 374.742 176.871 375.029 176.871 376.019V379.664H178.553V375.72C178.553 374.167 177.732 373.341 176.408 373.341ZM186.264 376.494C186.234 374.583 184.857 373.33 183.07 373.33C181.16 373.33 179.777 374.765 179.777 376.564C179.777 378.357 181.131 379.781 183.129 379.781C184.453 379.781 185.484 379.154 185.982 378.146L184.658 377.589C184.336 378.152 183.762 378.451 183.123 378.451C182.221 378.451 181.488 377.841 181.418 376.822H186.246L186.264 376.494ZM183.088 374.56C183.879 374.56 184.477 375.023 184.6 375.802H181.477C181.67 375.029 182.279 374.56 183.088 374.56ZM190.096 379.792C191.021 379.792 191.707 379.423 192.152 378.873V379.664H193.828V370.664H192.158L192.152 374.244C191.707 373.681 191.016 373.312 190.096 373.312C188.473 373.312 187.09 374.677 187.09 376.546C187.09 378.421 188.473 379.792 190.096 379.792ZM190.553 378.369C189.551 378.369 188.76 377.63 188.76 376.546C188.76 375.468 189.551 374.736 190.553 374.736C191.549 374.736 192.334 375.468 192.334 376.546C192.334 377.63 191.549 378.369 190.553 378.369ZM206.842 370.664L204.275 376.822L201.732 370.664H199.365V379.664H201.111V372.99L203.824 379.664H204.732L207.457 373.001V379.664H209.203V370.664H206.842ZM213.826 379.792C214.752 379.792 215.438 379.423 215.883 378.873V379.664H217.559V373.458H215.889L215.883 374.244C215.438 373.681 214.746 373.312 213.826 373.312C212.203 373.312 210.82 374.677 210.82 376.546C210.82 378.421 212.203 379.792 213.826 379.792ZM214.283 378.369C213.281 378.369 212.49 377.63 212.49 376.546C212.49 375.468 213.281 374.736 214.283 374.736C215.279 374.736 216.064 375.468 216.064 376.546C216.064 377.63 215.279 378.369 214.283 378.369ZM221.033 374.648V373.458H219.439V379.664H221.109V376.699C221.109 375.462 221.871 374.994 223.172 374.994V373.4C222.094 373.458 221.361 374.074 221.033 374.648ZM230.678 379.664L227.643 376.365L230.344 373.458H228.322L225.973 376.072V370.664H224.303V379.664H225.973V376.734L228.557 379.664H230.678ZM237.334 376.494C237.305 374.583 235.928 373.33 234.141 373.33C232.23 373.33 230.848 374.765 230.848 376.564C230.848 378.357 232.201 379.781 234.199 379.781C235.523 379.781 236.555 379.154 237.053 378.146L235.729 377.589C235.406 378.152 234.832 378.451 234.193 378.451C233.291 378.451 232.559 377.841 232.488 376.822H237.316L237.334 376.494ZM234.158 374.56C234.949 374.56 235.547 375.023 235.67 375.802H232.547C232.74 375.029 233.35 374.56 234.158 374.56ZM241.992 374.625V373.458H240.58V371.742H238.904V373.458H237.926V374.625H238.904V377.73C238.904 378.972 239.672 379.664 240.92 379.664H241.975V378.38H241.336C240.891 378.38 240.58 378.111 240.58 377.542V374.625H241.992ZM245.391 379.781C246.773 379.781 247.799 379.119 247.799 377.783C247.799 376.511 246.855 376.13 246.012 375.861C245.297 375.632 244.658 375.509 244.658 375.07C244.658 374.742 244.957 374.566 245.391 374.566C245.836 374.566 246.469 374.777 246.914 375.082L247.635 373.986C246.99 373.57 246.193 373.341 245.432 373.341C244.178 373.341 243.094 373.951 243.094 375.24C243.094 376.476 244.09 376.81 244.928 377.085C245.607 377.314 246.182 377.455 246.182 377.929C246.182 378.31 245.859 378.515 245.379 378.515C244.775 378.515 244.002 378.187 243.498 377.789L242.795 378.984C243.457 379.441 244.406 379.781 245.391 379.781Z" fill="white"/>
<circle cx="44.8864" cy="374.886" r="6.88636" fill="#7B78FF"/>
<path d="M42.1323 375.181L43.7851 376.952L47.6414 372.82" stroke="white" stroke-width="2" stroke-linecap="round" stroke-linejoin="round"/>
<rect x="63" y="407" width="164" height="41" rx="20.5" fill="#7B78FF" fill-opacity="0.25"/>
<path d="M107.28 423.772H103.431V432.772H105.177V429.503H107.28C109.085 429.503 110.245 428.278 110.245 426.661C110.245 425.067 109.085 423.772 107.28 423.772ZM107.017 428.026H105.177V425.243H107.017C108.024 425.243 108.552 425.817 108.552 426.644C108.552 427.505 108.024 428.026 107.017 428.026ZM113.239 427.757V426.567H111.646V432.772H113.315V429.808C113.315 428.571 114.077 428.103 115.378 428.103V426.509C114.3 426.567 113.567 427.183 113.239 427.757ZM119.321 432.89C121.243 432.89 122.714 431.536 122.714 429.667C122.714 427.804 121.243 426.45 119.321 426.45C117.394 426.45 115.929 427.804 115.929 429.667C115.929 431.536 117.394 432.89 119.321 432.89ZM119.315 431.454C118.319 431.454 117.528 430.728 117.528 429.667C117.528 428.618 118.319 427.88 119.315 427.88C120.306 427.88 121.108 428.63 121.108 429.667C121.108 430.71 120.306 431.454 119.315 431.454ZM127.39 427.733V426.567H125.978V424.851H124.302V426.567H123.323V427.733H124.302V430.839C124.302 432.081 125.069 432.772 126.317 432.772H127.372V431.489H126.733C126.288 431.489 125.978 431.22 125.978 430.651V427.733H127.39ZM131.614 432.89C133.536 432.89 135.007 431.536 135.007 429.667C135.007 427.804 133.536 426.45 131.614 426.45C129.687 426.45 128.222 427.804 128.222 429.667C128.222 431.536 129.687 432.89 131.614 432.89ZM131.608 431.454C130.612 431.454 129.821 430.728 129.821 429.667C129.821 428.618 130.612 427.88 131.608 427.88C132.599 427.88 133.401 428.63 133.401 429.667C133.401 430.71 132.599 431.454 131.608 431.454ZM139.22 432.878C140.31 432.878 141.259 432.433 141.868 431.712L140.679 430.71C140.356 431.167 139.835 431.448 139.214 431.448C138.206 431.448 137.427 430.722 137.427 429.667C137.427 428.606 138.206 427.88 139.214 427.88C139.835 427.88 140.356 428.161 140.679 428.618L141.868 427.616C141.259 426.896 140.31 426.45 139.22 426.45C137.292 426.45 135.827 427.798 135.827 429.667C135.827 431.53 137.292 432.878 139.22 432.878ZM145.899 432.89C147.821 432.89 149.292 431.536 149.292 429.667C149.292 427.804 147.821 426.45 145.899 426.45C143.972 426.45 142.507 427.804 142.507 429.667C142.507 431.536 143.972 432.89 145.899 432.89ZM145.894 431.454C144.897 431.454 144.106 430.728 144.106 429.667C144.106 428.618 144.897 427.88 145.894 427.88C146.884 427.88 147.687 428.63 147.687 429.667C147.687 430.71 146.884 431.454 145.894 431.454ZM150.646 432.772H152.315V423.772H150.646V432.772ZM153.2 435.099H154.788L160.63 423.772H159.048L153.2 435.099ZM163.513 431.22V423.772H161.767V432.772H166.577V431.22H163.513ZM171.944 423.772H168.095V432.772H169.841V429.503H171.944C173.749 429.503 174.909 428.278 174.909 426.661C174.909 425.067 173.749 423.772 171.944 423.772ZM171.681 428.026H169.841V425.243H171.681C172.688 425.243 173.216 425.817 173.216 426.644C173.216 427.505 172.688 428.026 171.681 428.026ZM178.296 432.89C179.679 432.89 180.704 432.228 180.704 430.892C180.704 429.62 179.761 429.239 178.917 428.97C178.202 428.741 177.563 428.618 177.563 428.179C177.563 427.851 177.862 427.675 178.296 427.675C178.741 427.675 179.374 427.886 179.819 428.19L180.54 427.095C179.896 426.679 179.099 426.45 178.337 426.45C177.083 426.45 175.999 427.06 175.999 428.349C175.999 429.585 176.995 429.919 177.833 430.194C178.513 430.423 179.087 430.563 179.087 431.038C179.087 431.419 178.765 431.624 178.284 431.624C177.681 431.624 176.907 431.296 176.403 430.897L175.7 432.093C176.362 432.55 177.312 432.89 178.296 432.89ZM191.175 425.325V423.772H185.731V432.772H187.478V429.04H190.671V427.505H187.478V425.325H191.175ZM198.294 429.603C198.265 427.692 196.888 426.438 195.101 426.438C193.19 426.438 191.808 427.874 191.808 429.673C191.808 431.466 193.161 432.89 195.159 432.89C196.483 432.89 197.515 432.263 198.013 431.255L196.688 430.698C196.366 431.261 195.792 431.56 195.153 431.56C194.251 431.56 193.519 430.95 193.448 429.931H198.276L198.294 429.603ZM195.118 427.669C195.909 427.669 196.507 428.132 196.63 428.911H193.507C193.7 428.138 194.31 427.669 195.118 427.669ZM205.583 429.603C205.554 427.692 204.177 426.438 202.39 426.438C200.479 426.438 199.097 427.874 199.097 429.673C199.097 431.466 200.45 432.89 202.448 432.89C203.772 432.89 204.804 432.263 205.302 431.255L203.978 430.698C203.655 431.261 203.081 431.56 202.442 431.56C201.54 431.56 200.808 430.95 200.737 429.931H205.565L205.583 429.603ZM202.407 427.669C203.198 427.669 203.796 428.132 203.919 428.911H200.796C200.989 428.138 201.599 427.669 202.407 427.669ZM208.905 432.89C210.288 432.89 211.313 432.228 211.313 430.892C211.313 429.62 210.37 429.239 209.526 428.97C208.812 428.741 208.173 428.618 208.173 428.179C208.173 427.851 208.472 427.675 208.905 427.675C209.351 427.675 209.983 427.886 210.429 428.19L211.149 427.095C210.505 426.679 209.708 426.45 208.946 426.45C207.692 426.45 206.608 427.06 206.608 428.349C206.608 429.585 207.604 429.919 208.442 430.194C209.122 430.423 209.696 430.563 209.696 431.038C209.696 431.419 209.374 431.624 208.894 431.624C208.29 431.624 207.517 431.296 207.013 430.897L206.31 432.093C206.972 432.55 207.921 432.89 208.905 432.89Z" fill="white"/>
<circle cx="83.8864" cy="427.886" r="6.88636" fill="#7B78FF"/>
<path d="M81.1323 428.181L82.7851 429.952L86.6414 425.82" stroke="white" stroke-width="2" stroke-linecap="round" stroke-linejoin="round"/>
<rect x="50" y="460" width="190" height="41" rx="20.5" fill="#7B78FF" fill-opacity="0.25"/>
<path d="M93.0557 485.884C94.6611 485.884 96.0205 485.017 96.0205 483.294C96.0205 481.618 94.7373 480.974 93.5537 480.452C92.5166 480.007 91.7432 479.72 91.7432 478.987C91.7432 478.425 92.1943 478.138 92.7627 478.138C93.4072 478.138 94.1924 478.448 94.8486 479.087L95.7686 477.839C94.9482 477.106 93.9111 476.655 92.8037 476.655C91.2686 476.655 90.0264 477.569 90.0264 479.163C90.0264 480.751 91.2686 481.337 92.4463 481.853C93.4717 482.304 94.2744 482.603 94.2744 483.405C94.2744 484.044 93.7646 484.407 93.0615 484.407C92.2354 484.407 91.2803 483.903 90.6709 483.194L89.6631 484.454C90.5127 485.339 91.8018 485.884 93.0557 485.884ZM100.808 480.733V479.567H99.3955V477.851H97.7197V479.567H96.7412V480.733H97.7197V483.839C97.7197 485.081 98.4873 485.772 99.7354 485.772H100.79V484.489H100.151C99.7061 484.489 99.3955 484.22 99.3955 483.651V480.733H100.808ZM103.813 480.757V479.567H102.22V485.772H103.89V482.808C103.89 481.571 104.651 481.103 105.952 481.103V479.509C104.874 479.567 104.142 480.183 103.813 480.757ZM109.532 485.901C110.458 485.901 111.144 485.532 111.589 484.981V485.772H113.265V479.567H111.595L111.589 480.353C111.144 479.79 110.452 479.421 109.532 479.421C107.909 479.421 106.526 480.786 106.526 482.655C106.526 484.53 107.909 485.901 109.532 485.901ZM109.989 484.478C108.987 484.478 108.196 483.739 108.196 482.655C108.196 481.577 108.987 480.845 109.989 480.845C110.985 480.845 111.771 481.577 111.771 482.655C111.771 483.739 110.985 484.478 109.989 484.478ZM118.468 480.733V479.567H117.056V477.851H115.38V479.567H114.401V480.733H115.38V483.839C115.38 485.081 116.147 485.772 117.396 485.772H118.45V484.489H117.812C117.366 484.489 117.056 484.22 117.056 483.651V480.733H118.468ZM125.786 482.603C125.757 480.692 124.38 479.438 122.593 479.438C120.683 479.438 119.3 480.874 119.3 482.673C119.3 484.466 120.653 485.89 122.651 485.89C123.976 485.89 125.007 485.263 125.505 484.255L124.181 483.698C123.858 484.261 123.284 484.56 122.646 484.56C121.743 484.56 121.011 483.95 120.94 482.931H125.769L125.786 482.603ZM122.61 480.669C123.401 480.669 123.999 481.132 124.122 481.911H120.999C121.192 481.138 121.802 480.669 122.61 480.669ZM129.823 488.69C131.944 488.69 133.204 487.501 133.204 485.438V479.567H131.528V480.37C131.106 479.819 130.474 479.45 129.571 479.45C127.913 479.45 126.601 480.733 126.601 482.562C126.601 484.39 127.913 485.708 129.595 485.708C130.485 485.708 131.118 485.345 131.528 484.806V485.591C131.528 486.704 130.913 487.343 129.794 487.343C129.114 487.343 128.37 487.108 127.796 486.276L126.724 487.237C127.632 488.386 128.78 488.69 129.823 488.69ZM129.964 484.284C129.021 484.284 128.271 483.593 128.271 482.562C128.271 481.53 129.021 480.833 129.964 480.833C130.907 480.833 131.663 481.53 131.663 482.562C131.663 483.593 130.907 484.284 129.964 484.284ZM135.929 478.577C136.45 478.577 136.89 478.144 136.89 477.61C136.89 477.077 136.45 476.655 135.929 476.655C135.396 476.655 134.956 477.077 134.956 477.61C134.956 478.144 135.396 478.577 135.929 478.577ZM135.091 485.772H136.749V479.567H135.091V485.772ZM141.501 485.878C142.591 485.878 143.54 485.433 144.149 484.712L142.96 483.71C142.638 484.167 142.116 484.448 141.495 484.448C140.487 484.448 139.708 483.722 139.708 482.667C139.708 481.606 140.487 480.88 141.495 480.88C142.116 480.88 142.638 481.161 142.96 481.618L144.149 480.616C143.54 479.896 142.591 479.45 141.501 479.45C139.573 479.45 138.108 480.798 138.108 482.667C138.108 484.53 139.573 485.878 141.501 485.878ZM152.815 476.772H148.966V485.772H150.712V482.503H152.815C154.62 482.503 155.78 481.278 155.78 479.661C155.78 478.067 154.62 476.772 152.815 476.772ZM152.552 481.026H150.712V478.243H152.552C153.56 478.243 154.087 478.817 154.087 479.644C154.087 480.505 153.56 481.026 152.552 481.026ZM159.173 485.901C160.099 485.901 160.784 485.532 161.229 484.981V485.772H162.905V479.567H161.235L161.229 480.353C160.784 479.79 160.093 479.421 159.173 479.421C157.55 479.421 156.167 480.786 156.167 482.655C156.167 484.53 157.55 485.901 159.173 485.901ZM159.63 484.478C158.628 484.478 157.837 483.739 157.837 482.655C157.837 481.577 158.628 480.845 159.63 480.845C160.626 480.845 161.411 481.577 161.411 482.655C161.411 483.739 160.626 484.478 159.63 484.478ZM166.38 480.757V479.567H164.786V485.772H166.456V482.808C166.456 481.571 167.218 481.103 168.519 481.103V479.509C167.44 479.567 166.708 480.183 166.38 480.757ZM173.37 480.733V479.567H171.958V477.851H170.282V479.567H169.304V480.733H170.282V483.839C170.282 485.081 171.05 485.772 172.298 485.772H173.353V484.489H172.714C172.269 484.489 171.958 484.22 171.958 483.651V480.733H173.37ZM178.333 479.45C177.513 479.45 176.868 479.837 176.458 480.44V479.567H174.782V485.772H176.458V482.245C176.464 481.302 176.979 480.851 177.688 480.851C178.333 480.851 178.796 481.138 178.796 482.128V485.772H180.478V481.829C180.478 480.276 179.657 479.45 178.333 479.45ZM188.188 482.603C188.159 480.692 186.782 479.438 184.995 479.438C183.085 479.438 181.702 480.874 181.702 482.673C181.702 484.466 183.056 485.89 185.054 485.89C186.378 485.89 187.409 485.263 187.907 484.255L186.583 483.698C186.261 484.261 185.687 484.56 185.048 484.56C184.146 484.56 183.413 483.95 183.343 482.931H188.171L188.188 482.603ZM185.013 480.669C185.804 480.669 186.401 481.132 186.524 481.911H183.401C183.595 481.138 184.204 480.669 185.013 480.669ZM191.118 480.757V479.567H189.524V485.772H191.194V482.808C191.194 481.571 191.956 481.103 193.257 481.103V479.509C192.179 479.567 191.446 480.183 191.118 480.757ZM196.374 485.89C197.757 485.89 198.782 485.228 198.782 483.892C198.782 482.62 197.839 482.239 196.995 481.97C196.28 481.741 195.642 481.618 195.642 481.179C195.642 480.851 195.94 480.675 196.374 480.675C196.819 480.675 197.452 480.886 197.897 481.19L198.618 480.095C197.974 479.679 197.177 479.45 196.415 479.45C195.161 479.45 194.077 480.06 194.077 481.349C194.077 482.585 195.073 482.919 195.911 483.194C196.591 483.423 197.165 483.563 197.165 484.038C197.165 484.419 196.843 484.624 196.362 484.624C195.759 484.624 194.985 484.296 194.481 483.897L193.778 485.093C194.44 485.55 195.39 485.89 196.374 485.89ZM203.704 479.45C202.884 479.45 202.239 479.831 201.823 480.458V476.772H200.165V485.772H201.823V482.239C201.829 481.302 202.333 480.851 203.083 480.851C203.692 480.851 204.185 481.144 204.185 482.128V485.772H205.843V481.829C205.843 480.276 205.022 479.45 203.704 479.45ZM208.433 478.577C208.954 478.577 209.394 478.144 209.394 477.61C209.394 477.077 208.954 476.655 208.433 476.655C207.899 476.655 207.46 477.077 207.46 477.61C207.46 478.144 207.899 478.577 208.433 478.577ZM207.595 485.772H209.253V479.567H207.595V485.772ZM211.146 488.69H212.815V484.981C213.284 485.562 213.999 485.89 214.854 485.89C216.513 485.89 217.884 484.554 217.884 482.679C217.884 480.81 216.507 479.45 214.854 479.45C213.935 479.45 213.237 479.837 212.815 480.364V479.567H211.146V488.69ZM214.427 484.501C213.425 484.501 212.64 483.763 212.64 482.679C212.64 481.601 213.425 480.862 214.427 480.862C215.423 480.862 216.214 481.601 216.214 482.679C216.214 483.763 215.423 484.501 214.427 484.501ZM221.253 485.89C222.636 485.89 223.661 485.228 223.661 483.892C223.661 482.62 222.718 482.239 221.874 481.97C221.159 481.741 220.521 481.618 220.521 481.179C220.521 480.851 220.819 480.675 221.253 480.675C221.698 480.675 222.331 480.886 222.776 481.19L223.497 480.095C222.853 479.679 222.056 479.45 221.294 479.45C220.04 479.45 218.956 480.06 218.956 481.349C218.956 482.585 219.952 482.919 220.79 483.194C221.47 483.423 222.044 483.563 222.044 484.038C222.044 484.419 221.722 484.624 221.241 484.624C220.638 484.624 219.864 484.296 219.36 483.897L218.657 485.093C219.319 485.55 220.269 485.89 221.253 485.89Z" fill="white"/>
<circle cx="71.8864" cy="480.886" r="6.88636" fill="#7B78FF"/>
<path d="M69.1323 481.181L70.7851 482.952L74.6414 478.82" stroke="white" stroke-width="2" stroke-linecap="round" stroke-linejoin="round"/>
<rect x="70" y="513" width="149" height="41" rx="20.5" fill="#7B78FF" fill-opacity="0.25"/>
<path d="M115.874 531.325V529.772H110.431V538.772H112.177V535.04H115.37V533.505H112.177V531.325H115.874ZM119.964 538.89C121.769 538.89 122.835 537.976 122.835 536.481V532.567H121.165V536.376C121.165 537.12 120.649 537.46 119.964 537.46C119.284 537.46 118.774 537.12 118.774 536.376V532.567H117.11V536.481C117.11 537.976 118.171 538.89 119.964 538.89ZM127.874 533.733V532.567H126.462V530.851H124.786V532.567H123.808V533.733H124.786V536.839C124.786 538.081 125.554 538.772 126.802 538.772H127.856V537.489H127.218C126.772 537.489 126.462 537.22 126.462 536.651V533.733H127.874ZM131.964 538.89C133.769 538.89 134.835 537.976 134.835 536.481V532.567H133.165V536.376C133.165 537.12 132.649 537.46 131.964 537.46C131.284 537.46 130.774 537.12 130.774 536.376V532.567H129.11V536.481C129.11 537.976 130.171 538.89 131.964 538.89ZM138.146 533.757V532.567H136.552V538.772H138.222V535.808C138.222 534.571 138.983 534.103 140.284 534.103V532.509C139.206 532.567 138.474 533.183 138.146 533.757ZM147.321 535.603C147.292 533.692 145.915 532.438 144.128 532.438C142.218 532.438 140.835 533.874 140.835 535.673C140.835 537.466 142.188 538.89 144.187 538.89C145.511 538.89 146.542 538.263 147.04 537.255L145.716 536.698C145.394 537.261 144.819 537.56 144.181 537.56C143.278 537.56 142.546 536.95 142.476 535.931H147.304L147.321 535.603ZM144.146 533.669C144.937 533.669 145.534 534.132 145.657 534.911H142.534C142.728 534.138 143.337 533.669 144.146 533.669ZM156.151 529.772H152.302V538.772H154.048V535.503H156.151C157.956 535.503 159.116 534.278 159.116 532.661C159.116 531.067 157.956 529.772 156.151 529.772ZM155.888 534.026H154.048V531.243H155.888C156.896 531.243 157.423 531.817 157.423 532.644C157.423 533.505 156.896 534.026 155.888 534.026ZM162.11 533.757V532.567H160.517V538.772H162.187V535.808C162.187 534.571 162.948 534.103 164.249 534.103V532.509C163.171 532.567 162.438 533.183 162.11 533.757ZM168.192 538.89C170.114 538.89 171.585 537.536 171.585 535.667C171.585 533.804 170.114 532.45 168.192 532.45C166.265 532.45 164.8 533.804 164.8 535.667C164.8 537.536 166.265 538.89 168.192 538.89ZM168.187 537.454C167.19 537.454 166.399 536.728 166.399 535.667C166.399 534.618 167.19 533.88 168.187 533.88C169.177 533.88 169.979 534.63 169.979 535.667C169.979 536.71 169.177 537.454 168.187 537.454ZM175.435 538.901C176.36 538.901 177.046 538.532 177.491 537.981V538.772H179.167V529.772H177.497L177.491 533.353C177.046 532.79 176.354 532.421 175.435 532.421C173.812 532.421 172.429 533.786 172.429 535.655C172.429 537.53 173.812 538.901 175.435 538.901ZM175.892 537.478C174.89 537.478 174.099 536.739 174.099 535.655C174.099 534.577 174.89 533.845 175.892 533.845C176.888 533.845 177.673 534.577 177.673 535.655C177.673 536.739 176.888 537.478 175.892 537.478ZM183.737 538.89C185.542 538.89 186.608 537.976 186.608 536.481V532.567H184.938V536.376C184.938 537.12 184.423 537.46 183.737 537.46C183.058 537.46 182.548 537.12 182.548 536.376V532.567H180.884V536.481C180.884 537.976 181.944 538.89 183.737 538.89ZM191.185 538.878C192.274 538.878 193.224 538.433 193.833 537.712L192.644 536.71C192.321 537.167 191.8 537.448 191.179 537.448C190.171 537.448 189.392 536.722 189.392 535.667C189.392 534.606 190.171 533.88 191.179 533.88C191.8 533.88 192.321 534.161 192.644 534.618L193.833 533.616C193.224 532.896 192.274 532.45 191.185 532.45C189.257 532.45 187.792 533.798 187.792 535.667C187.792 537.53 189.257 538.878 191.185 538.878ZM198.327 533.733V532.567H196.915V530.851H195.239V532.567H194.261V533.733H195.239V536.839C195.239 538.081 196.007 538.772 197.255 538.772H198.31V537.489H197.671C197.226 537.489 196.915 537.22 196.915 536.651V533.733H198.327ZM201.726 538.89C203.108 538.89 204.134 538.228 204.134 536.892C204.134 535.62 203.19 535.239 202.347 534.97C201.632 534.741 200.993 534.618 200.993 534.179C200.993 533.851 201.292 533.675 201.726 533.675C202.171 533.675 202.804 533.886 203.249 534.19L203.97 533.095C203.325 532.679 202.528 532.45 201.767 532.45C200.513 532.45 199.429 533.06 199.429 534.349C199.429 535.585 200.425 535.919 201.263 536.194C201.942 536.423 202.517 536.563 202.517 537.038C202.517 537.419 202.194 537.624 201.714 537.624C201.11 537.624 200.337 537.296 199.833 536.897L199.13 538.093C199.792 538.55 200.741 538.89 201.726 538.89Z" fill="white"/>
<circle cx="90.6593" cy="533.659" r="6.88636" fill="#7B78FF"/>
<path d="M88 533.361L89.6527 535.132L93.5091 531" stroke="white" stroke-width="2" stroke-linecap="round" stroke-linejoin="round"/>
<rect x="47" y="566" width="196" height="41" rx="20.5" fill="#7B78FF" fill-opacity="0.25"/>
<path d="M87.4307 591.772H90.5127C93.501 591.772 95.083 589.997 95.083 587.272C95.083 584.548 93.501 582.772 90.5127 582.772H87.4307V591.772ZM89.1709 590.22V584.325H90.4365C92.3467 584.325 93.2725 585.368 93.2725 587.272C93.2725 589.177 92.3467 590.22 90.4365 590.22H89.1709ZM99.1377 591.901C100.063 591.901 100.749 591.532 101.194 590.981V591.772H102.87V585.567H101.2L101.194 586.353C100.749 585.79 100.058 585.421 99.1377 585.421C97.5146 585.421 96.1318 586.786 96.1318 588.655C96.1318 590.53 97.5146 591.901 99.1377 591.901ZM99.5947 590.478C98.5928 590.478 97.8018 589.739 97.8018 588.655C97.8018 587.577 98.5928 586.845 99.5947 586.845C100.591 586.845 101.376 587.577 101.376 588.655C101.376 589.739 100.591 590.478 99.5947 590.478ZM107.61 591.89C109.532 591.89 111.003 590.536 111.003 588.667C111.003 586.804 109.532 585.45 107.61 585.45C105.683 585.45 104.218 586.804 104.218 588.667C104.218 590.536 105.683 591.89 107.61 591.89ZM107.604 590.454C106.608 590.454 105.817 589.728 105.817 588.667C105.817 587.618 106.608 586.88 107.604 586.88C108.595 586.88 109.397 587.63 109.397 588.667C109.397 589.71 108.595 590.454 107.604 590.454ZM121.444 584.325V582.772H116.001V591.772H117.747V588.04H120.94V586.505H117.747V584.325H121.444ZM125.534 591.89C127.339 591.89 128.405 590.976 128.405 589.481V585.567H126.735V589.376C126.735 590.12 126.22 590.46 125.534 590.46C124.854 590.46 124.345 590.12 124.345 589.376V585.567H122.681V589.481C122.681 590.976 123.741 591.89 125.534 591.89ZM133.673 585.45C132.853 585.45 132.208 585.837 131.798 586.44V585.567H130.122V591.772H131.798V588.245C131.804 587.302 132.319 586.851 133.028 586.851C133.673 586.851 134.136 587.138 134.136 588.128V591.772H135.817V587.829C135.817 586.276 134.997 585.45 133.673 585.45ZM140.071 591.901C140.997 591.901 141.683 591.532 142.128 590.981V591.772H143.804V582.772H142.134L142.128 586.353C141.683 585.79 140.991 585.421 140.071 585.421C138.448 585.421 137.065 586.786 137.065 588.655C137.065 590.53 138.448 591.901 140.071 591.901ZM140.528 590.478C139.526 590.478 138.735 589.739 138.735 588.655C138.735 587.577 139.526 586.845 140.528 586.845C141.524 586.845 142.31 587.577 142.31 588.655C142.31 589.739 141.524 590.478 140.528 590.478ZM156.817 582.772L154.251 588.931L151.708 582.772H149.341V591.772H151.087V585.099L153.8 591.772H154.708L157.433 585.11V591.772H159.179V582.772H156.817ZM163.802 591.901C164.728 591.901 165.413 591.532 165.858 590.981V591.772H167.534V585.567H165.864L165.858 586.353C165.413 585.79 164.722 585.421 163.802 585.421C162.179 585.421 160.796 586.786 160.796 588.655C160.796 590.53 162.179 591.901 163.802 591.901ZM164.259 590.478C163.257 590.478 162.466 589.739 162.466 588.655C162.466 587.577 163.257 586.845 164.259 586.845C165.255 586.845 166.04 587.577 166.04 588.655C166.04 589.739 165.255 590.478 164.259 590.478ZM172.966 585.45C172.146 585.45 171.501 585.837 171.091 586.44V585.567H169.415V591.772H171.091V588.245C171.097 587.302 171.612 586.851 172.321 586.851C172.966 586.851 173.429 587.138 173.429 588.128V591.772H175.11V587.829C175.11 586.276 174.29 585.45 172.966 585.45ZM179.364 591.901C180.29 591.901 180.976 591.532 181.421 590.981V591.772H183.097V585.567H181.427L181.421 586.353C180.976 585.79 180.284 585.421 179.364 585.421C177.741 585.421 176.358 586.786 176.358 588.655C176.358 590.53 177.741 591.901 179.364 591.901ZM179.821 590.478C178.819 590.478 178.028 589.739 178.028 588.655C178.028 587.577 178.819 586.845 179.821 586.845C180.817 586.845 181.603 587.577 181.603 588.655C181.603 589.739 180.817 590.478 179.821 590.478ZM187.679 594.69C189.8 594.69 191.06 593.501 191.06 591.438V585.567H189.384V586.37C188.962 585.819 188.329 585.45 187.427 585.45C185.769 585.45 184.456 586.733 184.456 588.562C184.456 590.39 185.769 591.708 187.45 591.708C188.341 591.708 188.974 591.345 189.384 590.806V591.591C189.384 592.704 188.769 593.343 187.649 593.343C186.97 593.343 186.226 593.108 185.651 592.276L184.579 593.237C185.487 594.386 186.636 594.69 187.679 594.69ZM187.819 590.284C186.876 590.284 186.126 589.593 186.126 588.562C186.126 587.53 186.876 586.833 187.819 586.833C188.763 586.833 189.519 587.53 189.519 588.562C189.519 589.593 188.763 590.284 187.819 590.284ZM198.899 588.603C198.87 586.692 197.493 585.438 195.706 585.438C193.796 585.438 192.413 586.874 192.413 588.673C192.413 590.466 193.767 591.89 195.765 591.89C197.089 591.89 198.12 591.263 198.618 590.255L197.294 589.698C196.972 590.261 196.397 590.56 195.759 590.56C194.856 590.56 194.124 589.95 194.054 588.931H198.882L198.899 588.603ZM195.724 586.669C196.515 586.669 197.112 587.132 197.235 587.911H194.112C194.306 587.138 194.915 586.669 195.724 586.669ZM207.313 585.45C206.517 585.45 205.872 585.837 205.444 586.446C205.134 585.761 204.501 585.45 203.698 585.45C202.913 585.45 202.304 585.837 201.905 586.452V585.567H200.235V591.772H201.905V588.046C201.905 587.313 202.298 586.833 202.972 586.833C203.563 586.833 203.979 587.208 203.979 587.964V591.772H205.655V588.046C205.655 587.313 206.048 586.833 206.722 586.833C207.308 586.833 207.729 587.208 207.729 587.964V591.772H209.399V587.513C209.399 586.212 208.567 585.45 207.313 585.45ZM217.122 588.603C217.093 586.692 215.716 585.438 213.929 585.438C212.019 585.438 210.636 586.874 210.636 588.673C210.636 590.466 211.989 591.89 213.987 591.89C215.312 591.89 216.343 591.263 216.841 590.255L215.517 589.698C215.194 590.261 214.62 590.56 213.981 590.56C213.079 590.56 212.347 589.95 212.276 588.931H217.104L217.122 588.603ZM213.946 586.669C214.737 586.669 215.335 587.132 215.458 587.911H212.335C212.528 587.138 213.138 586.669 213.946 586.669ZM222.009 585.45C221.188 585.45 220.544 585.837 220.134 586.44V585.567H218.458V591.772H220.134V588.245C220.14 587.302 220.655 586.851 221.364 586.851C222.009 586.851 222.472 587.138 222.472 588.128V591.772H224.153V587.829C224.153 586.276 223.333 585.45 222.009 585.45ZM229.233 586.733V585.567H227.821V583.851H226.146V585.567H225.167V586.733H226.146V589.839C226.146 591.081 226.913 591.772 228.161 591.772H229.216V590.489H228.577C228.132 590.489 227.821 590.22 227.821 589.651V586.733H229.233Z" fill="white"/>
<circle cx="67.6593" cy="576.659" r="6.88636" fill="#7B78FF"/>
<path d="M64.9053 576.954L66.558 578.725L70.4144 574.593" stroke="white" stroke-width="2" stroke-linecap="round" stroke-linejoin="round"/>
<defs>
<linearGradient id="paint0_linear" x1="144" y1="130" x2="144" y2="214.5" gradientUnits="userSpaceOnUse">
<stop stop-color="white"/>
<stop offset="1" stop-color="#394763"/>
</linearGradient>
<linearGradient id="paint1_linear" x1="146" y1="217" x2="146" y2="255" gradientUnits="userSpaceOnUse">
<stop stop-color="#A0D2EB" stop-opacity="0.24"/>
<stop offset="1" stop-opacity="0"/>
</linearGradient>
<clipPath id="clip0">
<rect width="51.0508" height="60.4102" fill="white" transform="translate(119.502 47.1426)"/>
</clipPath>
</defs>
</svg>
