<svg width="35" height="41" viewBox="0 0 35 41" fill="none" xmlns="http://www.w3.org/2000/svg">
<path d="M34.3413 3.42979V5.58786C34.3413 7.07154 33.9534 8.47814 33.236 9.71132L27.186 20.1549L20.8646 9.26815C19.3521 6.6669 14.9892 6.6669 13.4767 9.26815L7.15524 20.1163L1.14406 9.74986C0.407209 8.47814 0 7.033 0 5.58786V3.42979C0 1.54148 1.55127 0 3.45158 0H30.8897C32.79 0 34.3413 1.54148 34.3413 3.42979Z" fill="#7B78FF"/>
<path d="M27.1859 20.155L20.8645 31.0032C20.1082 32.3134 18.6927 33.1227 17.1608 33.1227C15.629 33.1227 14.2328 32.2942 13.4572 31.0032L7.13574 20.1165L13.4572 9.26832C14.9697 6.66707 19.3326 6.66707 20.8451 9.26832L27.1859 20.155Z" fill="#12429F"/>
<path d="M34.3413 34.6639V36.822C34.3413 38.7103 32.79 40.2518 30.8897 40.2518H3.45158C1.55127 40.2711 0 38.7296 0 36.8413V34.6447C0 33.1995 0.387818 31.7929 1.10528 30.5597L7.15524 20.1162L13.4767 31.0029C14.2329 32.3132 15.6484 33.1225 17.1803 33.1225C18.7122 33.1225 20.1083 32.2939 20.884 31.0029L27.2054 20.1547L33.2166 30.5212C33.9534 31.7929 34.3413 33.2381 34.3413 34.6639Z" fill="#A0D2EB"/>
</svg>
