<svg width="175" height="64" viewBox="0 0 175 64" fill="none" xmlns="http://www.w3.org/2000/svg">
<g opacity="0.4">
<path d="M68.945 25.7084C69.9634 26.3364 70.8251 27.1998 71.3735 28.3773C72.0002 29.5547 72.3136 30.9676 72.3136 32.5376C72.3136 34.1075 72.0002 35.4419 71.2952 36.6193C70.6685 37.7968 69.7284 38.6602 68.5533 39.2097C67.3782 39.8376 65.9681 40.1516 64.4797 40.1516C63.6179 40.1516 62.8346 39.9946 62.0512 39.6807C61.2678 39.4452 60.5627 38.9742 60.0144 38.4247V46.5883H55.4707V25.0805H59.3876L59.7793 26.8074C61.5028 25.3944 63.3829 24.688 65.3414 24.688C66.6732 24.688 67.9266 25.002 68.945 25.7084ZM66.4381 35.4419C67.2215 34.7354 67.6132 33.7935 67.6132 32.616C67.6132 31.4386 67.2215 30.4967 66.5165 29.7117C65.8114 28.9268 64.8714 28.6128 63.853 28.6128C62.9912 28.6128 62.2078 28.7698 61.5811 29.1622C60.9544 29.4762 60.4844 30.0257 60.0927 30.7322V34.2645C60.3277 34.9709 60.7977 35.5204 61.3461 35.9129C61.9728 36.3053 62.6779 36.5408 63.5396 36.5408C64.7147 36.5408 65.6548 36.1484 66.4381 35.4419Z" fill="white"/>
<path d="M74.9803 28.4542C75.6854 27.3552 76.6254 26.4133 77.8789 25.7853C79.1323 25.1574 80.5424 24.7649 82.1092 24.7649C83.6759 24.7649 85.086 25.0789 86.3395 25.7853C87.5146 26.4133 88.4546 27.3552 89.1597 28.5327C89.8647 29.7101 90.1781 30.966 90.1781 32.4575C90.1781 33.9489 89.8647 35.2048 89.1597 36.3822C88.4546 37.5597 87.5929 38.5016 86.3395 39.1296C85.1644 39.7576 83.6759 40.15 82.1092 40.15C80.5424 40.15 79.1323 39.8361 77.8789 39.2081C76.6254 38.5801 75.6854 37.7167 74.9803 36.5392C74.3536 35.3618 73.9619 34.0274 73.9619 32.4575C73.9619 30.966 74.3536 29.6316 74.9803 28.4542ZM79.6023 35.2833C80.229 36.0683 81.0908 36.3822 82.1092 36.3822C83.1276 36.3822 83.9893 35.9898 84.616 35.2833C85.2427 34.5768 85.5561 33.5564 85.5561 32.4575C85.5561 31.28 85.2427 30.3381 84.616 29.6316C83.911 28.8467 83.1276 28.4542 82.0308 28.4542C81.0124 28.4542 80.229 28.8467 79.524 29.5531C78.8973 30.3381 78.5839 31.28 78.5839 32.4575C78.5839 33.5564 78.8973 34.4984 79.6023 35.2833Z" fill="white"/>
<path d="M97.5388 13.9333V39.7584H92.9951V13.9333H97.5388Z" fill="white"/>
<path d="M116.185 25.4739L106.941 46.6677H102.554L106.001 39.0536L99.4209 25.4739H104.591L108.352 33.9514L112.112 25.4739H116.185Z" fill="white"/>
<path d="M133.571 25.4714V39.7576C133.571 41.092 133.18 42.3479 132.396 43.4469C131.613 44.5458 130.595 45.4092 129.263 46.0372C127.931 46.6652 126.521 46.9792 124.954 46.9792C123.779 46.9792 122.761 46.8222 121.899 46.5867C121.037 46.2727 120.332 45.9587 119.784 45.6447C119.157 45.2523 118.53 44.7813 117.825 44.1533L120.489 41.0135C121.116 41.6415 121.821 42.1124 122.447 42.4264C123.074 42.7404 123.936 42.9759 124.876 42.9759C126.051 42.9759 126.991 42.6619 127.774 42.1124C128.558 41.563 128.949 40.6995 128.949 39.6791V37.6382C128.479 38.3446 127.853 38.9726 126.913 39.4436C125.973 39.9146 124.876 40.15 123.622 40.15C122.369 40.15 121.116 39.8361 120.019 39.1296C118.922 38.5016 118.06 37.5597 117.355 36.3822C116.729 35.2048 116.337 33.9489 116.337 32.536C116.337 31.123 116.65 29.7886 117.355 28.6112C118.06 27.4337 118.922 26.4918 120.097 25.7853C121.194 25.0789 122.369 24.7649 123.622 24.7649C124.798 24.7649 125.816 24.9219 126.756 25.2359C127.696 25.5498 128.401 26.0208 128.871 26.5703L129.341 25.4714H133.571ZM128.949 34.2629V30.7306C128.636 30.0241 128.166 29.4746 127.461 29.0822C126.756 28.6897 125.973 28.4542 125.033 28.4542C123.936 28.4542 122.996 28.8467 122.212 29.5531C121.429 30.2596 121.037 31.2015 121.037 32.379C121.037 33.4779 121.429 34.4984 122.212 35.2833C122.996 36.0683 123.936 36.4607 125.033 36.4607C126.834 36.3822 128.166 35.6758 128.949 34.2629Z" fill="white"/>
<path d="M137.337 28.4558C138.042 27.2783 138.982 26.4149 140.235 25.7084C141.489 25.0805 142.899 24.688 144.466 24.688C146.032 24.688 147.442 25.002 148.696 25.7084C149.871 26.3364 150.811 27.2783 151.516 28.4558C152.143 29.6332 152.534 30.8891 152.534 32.3806C152.534 33.872 152.221 35.1279 151.516 36.3053C150.889 37.4828 149.949 38.4247 148.696 39.0527C147.521 39.6807 146.032 40.0731 144.466 40.0731C142.899 40.0731 141.489 39.7592 140.235 39.1312C138.982 38.5032 138.042 37.6398 137.337 36.4623C136.632 35.2849 136.318 33.9505 136.318 32.3021C136.318 30.9676 136.632 29.6332 137.337 28.4558ZM141.88 35.2849C142.507 36.0699 143.369 36.3838 144.387 36.3838C145.406 36.3838 146.267 35.9914 146.894 35.2849C147.521 34.5784 147.834 33.558 147.834 32.4591C147.834 31.2816 147.521 30.3397 146.894 29.6332C146.267 28.9268 145.406 28.5343 144.387 28.5343C143.369 28.5343 142.585 28.9268 141.88 29.6332C141.175 30.3397 140.862 31.3601 140.862 32.4591C140.94 33.558 141.254 34.4999 141.88 35.2849Z" fill="white"/>
<path d="M168.594 25.9423C169.534 26.7273 169.926 27.7477 170.004 29.0037V39.7576H165.382V30.7306C165.304 29.3176 164.599 28.6112 163.267 28.6112C162.249 28.6112 161.387 29.0822 160.76 30.1026C160.133 31.123 159.82 32.379 159.82 33.8704V39.7576H155.276V25.4714H159.428L159.742 27.7477C160.29 26.8058 160.995 26.0993 161.935 25.5498C162.875 25.0004 163.972 24.7649 165.225 24.7649C166.557 24.7649 167.732 25.1574 168.594 25.9423Z" fill="white"/>
<path d="M36.0406 25.2373C35.2572 24.7663 34.2388 24.7663 33.3771 25.2373L27.2667 28.8481L23.1147 31.2029L17.0043 34.8137C16.2209 35.2847 15.2025 35.2847 14.3407 34.8137L9.48372 31.9879C8.70034 31.5169 8.15196 30.6535 8.15196 29.7115V24.1383C8.15196 23.1964 8.622 22.3329 9.48372 21.862L14.2624 19.1146C15.0458 18.6436 16.0642 18.6436 16.9259 19.1146L21.7046 21.862C22.488 22.3329 23.0364 23.1964 23.0364 24.1383V27.7491L27.1883 25.3158V21.705C27.1883 20.763 26.7183 19.8996 25.8566 19.4286L17.0043 14.2479C16.2209 13.7769 15.2025 13.7769 14.3407 14.2479L5.33176 19.4286C4.47003 19.8996 4 20.763 4 21.705V32.1449C4 33.0868 4.47003 33.9503 5.33176 34.4213L14.3407 39.602C15.1241 40.073 16.1425 40.073 17.0043 39.602L23.1147 36.0697L27.2667 33.6363L33.3771 30.104C34.1605 29.633 35.1789 29.633 36.0406 30.104L40.8193 32.8514C41.6027 33.3223 42.1511 34.1858 42.1511 35.1277V40.7009C42.1511 41.6429 41.681 42.5063 40.8193 42.9773L36.0406 45.8031C35.2572 46.2741 34.2388 46.2741 33.3771 45.8031L28.5984 43.0558C27.815 42.5848 27.2667 41.7214 27.2667 40.7794V37.1686L23.1147 39.602V43.2128C23.1147 44.1547 23.5847 45.0182 24.4465 45.4892L33.4554 50.6699C34.2388 51.1408 35.2572 51.1408 36.119 50.6699L45.1279 45.4892C45.9113 45.0182 46.4597 44.1547 46.4597 43.2128V32.7729C46.4597 31.8309 45.9897 30.9675 45.1279 30.4965L36.0406 25.2373Z" fill="white"/>
</g>
</svg>
