<svg width="197" height="71" viewBox="0 0 197 71" fill="none" xmlns="http://www.w3.org/2000/svg">
<rect x="0.966797" y="0.988892" width="195" height="69" rx="7.5" stroke="url(#paint0_linear)"/>
<g clip-path="url(#clip0)">
<path d="M47.5642 34.4602C47.5654 32.2382 46.8969 30.0639 45.6402 28.2029L50.3102 23.6901L46.803 20.3004L42.1359 24.8132C40.2095 23.5993 37.9592 22.953 35.6594 22.953C33.3595 22.953 31.1092 23.5993 29.1828 24.8132L24.5086 20.3004L21.0005 23.6901L25.6709 28.2025C24.4146 30.0639 23.7457 32.2382 23.7457 34.4604C23.7457 36.6827 24.4146 38.857 25.6709 40.7184L21.0005 45.2316L24.5086 48.6213L29.179 44.1085C31.1054 45.3224 33.3557 45.9687 35.6556 45.9687C37.9554 45.9687 40.2057 45.3224 42.1321 44.1085L46.8025 48.6213L50.3102 45.2316L45.6402 40.7225C46.8978 38.8601 47.5664 36.684 47.5642 34.4602ZM28.7083 34.4602C28.7065 33.4588 28.9366 32.4696 29.3817 31.5652C29.8269 30.6608 30.4758 29.8641 31.281 29.2334C32.0862 28.6028 33.0272 28.1542 34.035 27.9206C35.0429 27.687 36.0921 27.6742 37.1057 27.8832C38.1194 28.0922 39.0717 28.5177 39.8931 29.1286C40.7145 29.7394 41.384 30.52 41.8526 31.4133C42.3212 32.3066 42.577 33.2898 42.6013 34.291C42.6256 35.2922 42.4177 36.286 41.9929 37.1995L37.4102 32.7654L33.9009 36.1559L38.4853 40.5843C37.4282 41.0436 36.2689 41.2395 35.1134 41.1541C33.9578 41.0688 32.8428 40.7049 31.8703 40.0957C30.8978 39.4866 30.0988 38.6516 29.5465 37.6671C28.9941 36.6826 28.7059 35.5801 28.7083 34.4602Z" fill="#4CBBFD"/>
<path fill-rule="evenodd" clip-rule="evenodd" d="M72.7918 34.5963C72.7918 37.3645 71.3393 39.8638 68.7527 41.017L70.1255 42.7473L67.3002 44.132L65.41 41.7098H65.3505C60.6746 41.7098 57.9092 38.4224 57.9092 34.5967C57.9092 30.7706 60.6746 27.4832 65.3505 27.4832C70.026 27.4832 72.7918 30.7706 72.7918 34.5967V34.5963ZM65.3505 38.9216C67.9965 38.9216 69.4288 36.9415 69.4288 34.5963C69.4288 32.2506 67.9965 30.2705 65.3505 30.2705C62.6842 30.2705 61.2515 32.2506 61.2718 34.5963C61.2515 36.9415 62.6846 38.9216 65.3501 38.9216H65.3505ZM78.0046 41.5745C75.6964 41.5745 74.4632 40.1906 74.4632 37.7875V32.0583H77.547V37.1338C77.547 38.4024 77.9848 39.0948 79.1387 39.0948C80.4317 39.0948 80.9889 38.2871 80.9889 37.0377V32.0583H84.0132V41.3251H80.9893V39.9982C80.452 40.9787 79.4571 41.5749 78.0046 41.5749V41.5745ZM90.3601 41.5745C87.4951 41.5745 85.8436 39.4791 85.8436 36.6917C85.8436 33.9231 87.6149 31.8085 90.4001 31.8085C91.7927 31.8085 92.8872 32.443 93.4042 33.3847V32.0583H96.4286V41.3251H93.4047V40.0174C92.8872 40.9404 91.6932 41.5749 90.3601 41.5749V41.5745ZM91.2356 39.1335C92.748 39.1335 93.524 38.0373 93.524 36.6917C93.524 35.3652 92.748 34.2694 91.2356 34.2694C89.8228 34.2694 88.9476 35.2882 88.9476 36.6917C88.9476 38.0952 89.8232 39.1331 91.2356 39.1331V39.1335ZM98.9557 32.0583H102V33.4043C102.557 32.366 103.651 31.8085 105.104 31.8085C107.432 31.8085 108.605 33.0775 108.605 35.5959V41.3243H105.541V36.5564C105.541 34.9997 105.084 34.2882 103.85 34.2882C102.636 34.2882 102 35.0572 102 36.4798V41.3243H98.9557V32.0583ZM116.066 39.0369C116.445 39.0369 116.842 39.0178 117.121 38.9795V41.3247C116.683 41.4017 115.967 41.4787 115.092 41.4787C113.659 41.4787 111.69 41.1711 111.69 38.076V34.3844H110.177V32.0579H111.69V29.3088H114.734V32.0579H116.902V34.3844H114.734V37.4603C114.734 38.8254 115.311 39.0365 116.066 39.0365V39.0369ZM122.712 41.6132C119.906 41.6132 118.176 40.2868 118.176 38.5373H121.199C121.199 39.1718 121.836 39.6331 122.772 39.6331C123.428 39.6331 123.886 39.3063 123.886 38.768C123.886 38.4024 123.707 38.0952 123.189 37.9798L120.842 37.4028C119.25 37.0185 118.434 36.0572 118.434 34.7308C118.434 33.0005 120.006 31.7893 122.533 31.7893C125.339 31.7893 126.811 32.9234 126.811 34.6729H123.806C123.806 34.0192 123.309 33.6541 122.493 33.6541C121.836 33.6541 121.399 33.9618 121.399 34.4231C121.399 34.8461 121.697 35.115 122.215 35.2499L124.483 35.8457C125.955 36.2304 126.91 37.0951 126.91 38.422C126.91 40.3251 125.339 41.6128 122.712 41.6128V41.6132ZM133.834 39.0369C134.212 39.0369 134.61 39.0178 134.889 38.9795V41.3247C134.451 41.4017 133.735 41.4787 132.859 41.4787C131.427 41.4787 129.457 41.1711 129.457 38.076V34.3844H127.945V32.0579H129.457V29.3088H132.501V32.0579H134.67V34.3844H132.501V37.4603C132.501 38.8254 133.078 39.0365 133.834 39.0365L133.834 39.0369ZM140.46 41.5749C137.594 41.5749 135.943 39.4791 135.943 36.6917C135.943 33.9231 137.714 31.8085 140.499 31.8085C141.892 31.8085 142.986 32.443 143.504 33.3847V32.0583H146.528V41.3251H143.504V40.0174C142.986 40.9404 141.793 41.5749 140.46 41.5749ZM141.335 39.1331C142.847 39.1331 143.623 38.0373 143.623 36.6917C143.623 35.3652 142.847 34.2694 141.335 34.2694C139.922 34.2694 139.047 35.2882 139.047 36.6917C139.047 38.0952 139.923 39.1331 141.335 39.1331ZM149.055 32.0587H152.099V33.4043C152.517 32.4813 153.512 31.8085 154.845 31.8085C156.556 31.8085 157.431 32.5392 157.849 33.5196C158.366 32.52 159.5 31.8085 160.913 31.8085C163.659 31.8085 164.315 33.635 164.315 35.5767V41.3243H161.252V36.1147C161.252 34.8269 160.754 34.2886 159.819 34.2886C158.864 34.2886 158.207 34.8074 158.207 36.5572V41.3251H155.143V36.0951C155.143 34.8074 154.666 34.2882 153.73 34.2882C152.756 34.2882 152.099 34.807 152.099 36.5568V41.3247H149.055V32.0579V32.0587ZM166.723 32.0587H169.767V33.3847C170.265 32.5004 171.458 31.8085 172.891 31.8085C175.517 31.8085 177.308 33.7694 177.308 36.6917C177.308 39.5944 175.458 41.5749 172.811 41.5749C171.398 41.5749 170.245 40.8825 169.767 40.0174V45.17H166.723V32.0583V32.0587ZM171.936 39.1331C173.269 39.1331 174.204 38.1335 174.204 36.6917C174.204 35.2691 173.269 34.2694 171.936 34.2694C170.563 34.2694 169.628 35.2499 169.628 36.6917C169.628 38.1526 170.583 39.1331 171.936 39.1331H171.936ZM176.31 32.2307C176.14 32.2307 175.99 32.194 175.863 32.1206C175.738 32.0496 175.636 31.946 175.569 31.8215C175.5 31.6913 175.465 31.5466 175.467 31.4002C175.467 31.2473 175.501 31.108 175.569 30.9816C175.638 30.8557 175.736 30.7563 175.863 30.6829C175.99 30.6096 176.14 30.5729 176.31 30.5729C176.479 30.5729 176.628 30.6096 176.756 30.6829C176.884 30.7563 176.983 30.8557 177.051 30.9816C177.12 31.108 177.154 31.2473 177.154 31.4002C177.154 31.555 177.12 31.6956 177.051 31.8215C176.983 31.9479 176.884 32.0473 176.756 32.1206C176.628 32.194 176.48 32.2307 176.31 32.2307ZM176.31 32.0946C176.447 32.0946 176.567 32.0632 176.67 32.0012C176.772 31.9393 176.851 31.8558 176.905 31.7502C176.96 31.6451 176.987 31.5281 176.987 31.4002C176.987 31.2738 176.96 31.1585 176.905 31.053C176.853 30.9495 176.771 30.8625 176.669 30.8019C176.561 30.7386 176.437 30.7064 176.311 30.709C176.174 30.709 176.054 30.74 175.951 30.8019C175.849 30.8643 175.77 30.9478 175.714 31.053C175.658 31.1606 175.629 31.2796 175.631 31.4002C175.631 31.5281 175.658 31.6447 175.714 31.7506C175.77 31.8558 175.849 31.9393 175.951 32.0012C176.054 32.0632 176.174 32.0946 176.31 32.0946ZM176.006 30.9507H176.358C176.448 30.9507 176.522 30.9804 176.58 31.0391C176.608 31.0673 176.63 31.1005 176.645 31.1369C176.66 31.1734 176.667 31.2123 176.666 31.2514C176.667 31.3126 176.649 31.3726 176.614 31.4234C176.578 31.4743 176.525 31.512 176.464 31.5302L176.66 31.8276H176.503L176.323 31.546H176.147V31.828H176.006V30.9507ZM176.349 31.4283C176.373 31.4293 176.397 31.4252 176.419 31.4164C176.441 31.4075 176.461 31.394 176.477 31.3769C176.51 31.3426 176.527 31.2977 176.525 31.2514C176.527 31.2041 176.51 31.158 176.477 31.1226C176.461 31.1056 176.441 31.0922 176.419 31.0834C176.397 31.0746 176.373 31.0706 176.349 31.0717H176.15V31.4283H176.349Z" fill="white"/>
</g>
<defs>
<linearGradient id="paint0_linear" x1="0.466797" y1="0.488892" x2="215.179" y2="58.9007" gradientUnits="userSpaceOnUse">
<stop stop-color="#A0D2EB"/>
<stop offset="1" stop-color="#7B78FF"/>
</linearGradient>
<clipPath id="clip0">
<rect width="157.733" height="28.9333" fill="white" transform="translate(21.0005 20.0889)"/>
</clipPath>
</defs>
</svg>
