<svg width="244" height="75" viewBox="0 0 244 75" fill="none" xmlns="http://www.w3.org/2000/svg">
<rect x="0.5" y="0.5" width="243" height="74" rx="7.5" stroke="url(#paint0_linear)"/>
<path d="M65.4611 36.3978C65.4624 34.017 64.7461 31.6874 63.3997 29.6935L68.4033 24.8584L64.6455 21.2266L59.6451 26.0617C57.581 24.7611 55.1701 24.0686 52.7059 24.0686C50.2418 24.0686 47.8308 24.7611 45.7668 26.0617L40.7587 21.2266L37 24.8584L42.004 29.6931C40.658 31.6874 39.9413 34.017 39.9413 36.398C39.9413 38.779 40.658 41.1086 42.004 43.103L37 47.9385L40.7587 51.5703L45.7627 46.7352C47.8267 48.0358 50.2377 48.7283 52.7019 48.7283C55.166 48.7283 57.577 48.0358 59.641 46.7352L64.6451 51.5703L68.4033 47.9385L63.3997 43.1073C64.7471 41.1119 65.4635 38.7804 65.4611 36.3978ZM45.2584 36.3978C45.2564 35.3248 45.503 34.2649 45.9799 33.2959C46.4569 32.3269 47.1522 31.4733 48.0148 30.7977C48.8775 30.122 49.8857 29.6414 50.9656 29.3911C52.0454 29.1408 53.1696 29.1271 54.2556 29.351C55.3416 29.5749 56.3621 30.0308 57.2421 30.6853C58.1221 31.3397 58.8395 32.1761 59.3415 33.1332C59.8436 34.0903 60.1177 35.1438 60.1437 36.2165C60.1697 37.2892 59.947 38.354 59.4919 39.3327L54.5819 34.5819L50.8218 38.2146L55.7337 42.9593C54.6012 43.4514 53.3591 43.6613 52.1209 43.5698C50.8828 43.4784 49.6881 43.0885 48.6462 42.4358C47.6042 41.7831 46.7482 40.8885 46.1564 39.8337C45.5646 38.7789 45.2558 37.5976 45.2584 36.3978Z" fill="#4CBBFD"/>
<path fill-rule="evenodd" clip-rule="evenodd" d="M92.4906 36.5437C92.4906 39.5096 90.9343 42.1874 88.163 43.4231L89.6338 45.2769L86.6067 46.7606L84.5815 44.1653H84.5177C79.5078 44.1653 76.5449 40.6431 76.5449 36.5441C76.5449 32.4447 79.5078 28.9225 84.5177 28.9225C89.5272 28.9225 92.4906 32.4447 92.4906 36.5441V36.5437ZM84.5177 41.178C87.3528 41.178 88.8873 39.0564 88.8873 36.5437C88.8873 34.0305 87.3528 31.909 84.5177 31.909C81.661 31.909 80.126 34.0305 80.1477 36.5437C80.126 39.0564 81.6615 41.178 84.5173 41.178H84.5177ZM98.0757 44.0204C95.6026 44.0204 94.2813 42.5376 94.2813 39.9628V33.8244H97.5854V39.2625C97.5854 40.6217 98.0545 41.3635 99.2908 41.3635C100.676 41.3635 101.273 40.4981 101.273 39.1595V33.8244H104.514V43.7531H101.274V42.3315C100.698 43.382 99.6319 44.0208 98.0757 44.0208V44.0204ZM111.314 44.0204C108.244 44.0204 106.475 41.7753 106.475 38.7888C106.475 35.8224 108.372 33.5568 111.357 33.5568C112.849 33.5568 114.021 34.2366 114.575 35.2456V33.8244H117.816V43.7531H114.576V42.352C114.021 43.341 112.742 44.0208 111.314 44.0208V44.0204ZM112.252 41.405C113.872 41.405 114.704 40.2305 114.704 38.7888C114.704 37.3676 113.872 36.1935 112.252 36.1935C110.738 36.1935 109.8 37.2851 109.8 38.7888C109.8 40.2925 110.738 41.4046 112.252 41.4046V41.405ZM120.523 33.8244H123.785V35.2666C124.381 34.1541 125.554 33.5568 127.111 33.5568C129.605 33.5568 130.862 34.9164 130.862 37.6147V43.7523H127.579V38.6438C127.579 36.9759 127.089 36.2136 125.767 36.2136C124.467 36.2136 123.785 37.0375 123.785 38.5617V43.7523H120.523V33.8244ZM138.856 41.3015C139.262 41.3015 139.688 41.281 139.986 41.24V43.7527C139.517 43.8352 138.75 43.9178 137.812 43.9178C136.277 43.9178 134.167 43.5881 134.167 40.272V36.3166H132.546V33.824H134.167V30.8785H137.428V33.824H139.752V36.3166H137.428V39.6122C137.428 41.0749 138.046 41.3011 138.856 41.3011V41.3015ZM145.976 44.0618C142.971 44.0618 141.116 42.6406 141.116 40.7662H144.356C144.356 41.446 145.038 41.9403 146.041 41.9403C146.744 41.9403 147.234 41.5901 147.234 41.0134C147.234 40.6217 147.042 40.2925 146.488 40.1689L143.973 39.5507C142.267 39.1389 141.393 38.109 141.393 36.6878C141.393 34.8339 143.077 33.5362 145.785 33.5362C148.791 33.5362 150.368 34.7514 150.368 36.6258H147.149C147.149 35.9254 146.616 35.5342 145.742 35.5342C145.038 35.5342 144.57 35.8639 144.57 36.3581C144.57 36.8113 144.889 37.0995 145.444 37.244L147.874 37.8824C149.451 38.2945 150.474 39.221 150.474 40.6427C150.474 42.6817 148.791 44.0614 145.976 44.0614V44.0618ZM157.893 41.3015C158.298 41.3015 158.725 41.281 159.023 41.24V43.7527C158.554 43.8352 157.786 43.9178 156.848 43.9178C155.314 43.9178 153.203 43.5881 153.203 40.272V36.3166H151.583V33.824H153.203V30.8785H156.465V33.824H158.788V36.3166H156.465V39.6122C156.465 41.0749 157.083 41.3011 157.893 41.3011L157.893 41.3015ZM164.992 44.0208C161.922 44.0208 160.152 41.7753 160.152 38.7888C160.152 35.8224 162.05 33.5568 165.034 33.5568C166.527 33.5568 167.699 34.2366 168.254 35.2456V33.8244H171.494V43.7531H168.254V42.352C167.699 43.341 166.42 44.0208 164.992 44.0208ZM165.93 41.4046C167.55 41.4046 168.382 40.2305 168.382 38.7888C168.382 37.3676 167.55 36.1935 165.93 36.1935C164.416 36.1935 163.478 37.2851 163.478 38.7888C163.478 40.2925 164.416 41.4046 165.93 41.4046ZM174.201 33.8249H177.463V35.2666C177.91 34.2776 178.977 33.5568 180.404 33.5568C182.238 33.5568 183.176 34.3396 183.624 35.3901C184.178 34.3191 185.393 33.5568 186.906 33.5568C189.848 33.5568 190.552 35.5137 190.552 37.5942V43.7523H187.269V38.1705C187.269 36.7908 186.736 36.214 185.734 36.214C184.711 36.214 184.007 36.7698 184.007 38.6447V43.7531H180.724V38.1496C180.724 36.7699 180.213 36.2136 179.211 36.2136C178.166 36.2136 177.463 36.7694 177.463 38.6443V43.7527H174.201V33.824V33.8249ZM193.131 33.8249H196.393V35.2456C196.926 34.2981 198.205 33.5568 199.74 33.5568C202.553 33.5568 204.472 35.6578 204.472 38.7888C204.472 41.8988 202.49 44.0208 199.654 44.0208C198.14 44.0208 196.905 43.279 196.393 42.352V47.8727H193.131V33.8244V33.8249ZM198.716 41.4046C200.144 41.4046 201.147 40.3335 201.147 38.7888C201.147 37.2645 200.144 36.1935 198.717 36.1935C197.245 36.1935 196.243 37.244 196.243 38.7888C196.243 40.3541 197.267 41.4046 198.717 41.4046H198.716ZM203.403 34.0091C203.22 34.0091 203.06 33.9698 202.924 33.8912C202.79 33.8151 202.681 33.7041 202.609 33.5707C202.535 33.4312 202.497 33.2762 202.5 33.1193C202.5 32.9555 202.536 32.8062 202.609 32.6709C202.683 32.5359 202.788 32.4294 202.924 32.3508C203.06 32.2722 203.22 32.2329 203.403 32.2329C203.584 32.2329 203.744 32.2722 203.881 32.3508C204.018 32.4294 204.124 32.5359 204.197 32.6709C204.27 32.8062 204.307 32.9555 204.307 33.1193C204.307 33.2852 204.27 33.4358 204.197 33.5707C204.124 33.7061 204.018 33.8126 203.881 33.8912C203.744 33.9698 203.585 34.0091 203.403 34.0091ZM203.403 33.8633C203.55 33.8633 203.679 33.8297 203.788 33.7633C203.898 33.6969 203.983 33.6074 204.041 33.4943C204.1 33.3817 204.129 33.2564 204.129 33.1193C204.129 32.9839 204.099 32.8604 204.041 32.7473C203.984 32.6364 203.897 32.5432 203.788 32.4783C203.672 32.4105 203.539 32.376 203.404 32.3788C203.257 32.3788 203.128 32.4119 203.018 32.4783C202.909 32.5451 202.824 32.6346 202.764 32.7473C202.704 32.8626 202.674 32.9901 202.675 33.1193C202.675 33.2564 202.705 33.3812 202.764 33.4948C202.824 33.6074 202.909 33.6969 203.018 33.7633C203.129 33.8297 203.257 33.8633 203.403 33.8633ZM203.077 32.6377H203.455C203.551 32.6377 203.63 32.6696 203.692 32.7324C203.722 32.7626 203.746 32.7982 203.762 32.8372C203.778 32.8763 203.786 32.918 203.785 32.9599C203.786 33.0254 203.766 33.0897 203.728 33.1442C203.69 33.1987 203.633 33.2391 203.568 33.2586L203.778 33.5773H203.609L203.417 33.2756H203.228V33.5777H203.077V32.6377ZM203.444 33.1494C203.47 33.1505 203.496 33.1461 203.52 33.1366C203.544 33.1271 203.565 33.1127 203.582 33.0944C203.617 33.0576 203.635 33.0095 203.634 32.9599C203.636 32.9092 203.617 32.8598 203.582 32.8219C203.565 32.8037 203.543 32.7894 203.52 32.7799C203.496 32.7705 203.47 32.7662 203.444 32.7674H203.232V33.1494H203.444Z" fill="white"/>
<defs>
<linearGradient id="paint0_linear" x1="0" y1="0" x2="261" y2="82.5" gradientUnits="userSpaceOnUse">
<stop stop-color="#A0D2EB"/>
<stop offset="1" stop-color="#7B78FF"/>
</linearGradient>
</defs>
</svg>
