<svg width="171" height="259" viewBox="0 0 171 259" fill="none" xmlns="http://www.w3.org/2000/svg">
<g clip-path="url(#clip0_1_440)">
<g clip-path="url(#clip1_1_440)">
<path d="M107.186 208.944C106.647 208.944 106.111 208.794 105.656 208.488C85.6549 195.026 69.1732 177.328 57.9963 157.307C46.8124 137.276 40.9019 114.854 40.9019 92.468V74.9879C40.9019 73.9898 41.5496 73.0928 42.5441 72.7209L106.685 48.5671C107.319 48.329 108.026 48.329 108.66 48.5704L172.325 72.7242C173.312 73.0993 173.96 73.9963 173.96 74.9911V92.1516C173.96 114.629 168.004 137.129 156.736 157.222C145.475 177.305 128.878 195.03 108.744 208.481C108.282 208.788 107.732 208.944 107.186 208.944ZM46.1541 76.6384V92.468C46.1541 114.071 51.8616 135.713 62.6569 155.049C73.1719 173.883 88.5507 190.597 107.2 203.478C125.989 190.597 141.483 173.854 152.079 154.955C162.958 135.557 168.708 113.839 168.708 92.1483V76.6351L107.666 53.4761L46.1541 76.6384Z" fill="url(#paint0_linear_1_440)"/>
<path d="M120.736 111.263H115.106V103.086C115.106 101.09 114.306 99.2108 112.857 97.7995C111.408 96.3882 109.479 95.6094 107.43 95.6094C103.2 95.6094 99.7541 98.9622 99.7541 103.086V111.259H94.124V103.086C94.124 95.9385 100.092 90.125 107.43 90.125C110.984 90.125 114.325 91.4742 116.84 93.9202C119.351 96.3662 120.736 99.624 120.736 103.086V111.263Z" fill="#9FD2EB"/>
<path d="M125.876 154.226H88.9845C86.9244 154.226 85.2539 152.292 85.2539 149.907V113.71C85.2539 111.325 86.9244 109.391 88.9845 109.391H125.876C127.936 109.391 129.607 111.325 129.607 113.71V149.907C129.607 152.297 127.936 154.226 125.876 154.226Z" fill="url(#paint1_linear_1_440)"/>
<path d="M104.303 138.292C103.804 138.292 103.305 138.102 102.916 137.724L95.383 130.365C94.5784 129.579 94.5463 128.269 95.3106 127.442C96.0749 126.614 97.3488 126.581 98.1533 127.367L104.383 133.454L116.795 122.722C117.645 121.986 118.913 122.099 119.629 122.973C120.345 123.848 120.236 125.152 119.385 125.889L105.598 137.812C105.22 138.129 104.761 138.292 104.303 138.292Z" fill="white"/>
</g>
<path opacity="0.3" d="M108.076 240.774C107.357 240.774 106.643 240.574 106.036 240.166C79.3685 222.242 57.3929 198.676 42.4904 172.018C27.5785 145.347 19.6978 115.492 19.6978 85.685V62.4102C19.6978 61.0812 20.5615 59.8869 21.8874 59.3917L107.409 27.2309C108.254 26.9139 109.197 26.9139 110.042 27.2352L194.928 59.3961C196.245 59.8955 197.109 61.0899 197.109 62.4146V85.2637C197.109 115.192 189.167 145.151 174.143 171.905C159.129 198.645 136.999 222.246 110.154 240.157C109.538 240.565 108.805 240.774 108.076 240.774ZM26.7008 64.6078V85.685C26.7008 114.45 34.3108 143.266 48.7044 169.012C62.7245 194.089 83.2295 216.344 108.095 233.495C133.147 216.344 153.806 194.05 167.934 168.886C182.439 143.058 190.105 114.141 190.105 85.2594V64.6035L108.716 33.7673L26.7008 64.6078Z" fill="url(#paint2_linear_1_440)"/>
<path opacity="0.1" d="M108.051 269C107.172 269 106.299 268.753 105.557 268.249C72.9531 246.114 46.0858 217.013 27.8661 184.092C9.63499 151.156 0 114.288 0 77.4788V48.7364C0 47.0952 1.05597 45.6203 2.67702 45.0089L107.235 5.29298C108.268 4.90145 109.421 4.90145 110.454 5.29834L214.236 45.0142C215.845 45.631 216.901 47.1059 216.901 48.7418V76.9586C216.901 113.918 207.192 150.914 188.824 183.953C170.467 216.975 143.412 246.12 110.591 268.238C109.838 268.743 108.942 269 108.051 269ZM8.5619 51.4503V77.4788C8.5619 113.001 17.8658 148.587 35.4634 180.381C52.6043 211.349 77.6735 238.831 108.074 260.011C138.703 238.831 163.96 211.301 181.233 180.225C198.967 148.329 208.34 112.62 208.34 76.9532V51.4449L108.833 13.3649L8.5619 51.4503Z" fill="url(#paint3_linear_1_440)"/>
</g>
<defs>
<linearGradient id="paint0_linear_1_440" x1="107.431" y1="48.3877" x2="107.431" y2="208.945" gradientUnits="userSpaceOnUse">
<stop stop-color="#9FD2EB"/>
<stop offset="1" stop-color="#7B78FF" stop-opacity="0"/>
</linearGradient>
<linearGradient id="paint1_linear_1_440" x1="107.43" y1="109.391" x2="107.43" y2="154.226" gradientUnits="userSpaceOnUse">
<stop stop-color="#7B78FF"/>
<stop offset="1" stop-color="#7B78FF" stop-opacity="0"/>
</linearGradient>
<linearGradient id="paint2_linear_1_440" x1="108.403" y1="26.992" x2="108.403" y2="240.774" gradientUnits="userSpaceOnUse">
<stop stop-color="#9FD2EB"/>
<stop offset="1" stop-color="#7B78FF" stop-opacity="0"/>
</linearGradient>
<linearGradient id="paint3_linear_1_440" x1="108.451" y1="4.99799" x2="108.451" y2="269" gradientUnits="userSpaceOnUse">
<stop stop-color="#9FD2EB"/>
<stop offset="1" stop-color="#7B78FF" stop-opacity="0"/>
</linearGradient>
<clipPath id="clip0_1_440">
<rect width="171" height="259" fill="white"/>
</clipPath>
<clipPath id="clip1_1_440">
<rect width="133.058" height="160.557" fill="white" transform="translate(40.9019 48.3799)"/>
</clipPath>
</defs>
</svg>
