<svg width="171" height="197" viewBox="0 0 171 197" fill="none" xmlns="http://www.w3.org/2000/svg">
<g clip-path="url(#clip0)">
<g clip-path="url(#clip1)">
<path d="M107.186 182.944C106.647 182.944 106.111 182.794 105.656 182.488C85.6549 169.026 69.1732 151.328 57.9963 131.307C46.8124 111.276 40.9019 88.8539 40.9019 66.468V48.9879C40.9019 47.9898 41.5496 47.0928 42.5441 46.7209L106.685 22.5671C107.319 22.329 108.026 22.329 108.66 22.5704L172.325 46.7242C173.312 47.0993 173.96 47.9963 173.96 48.9911V66.1516C173.96 88.6288 168.004 111.129 156.736 131.222C145.475 151.305 128.878 169.03 108.744 182.481C108.282 182.788 107.732 182.944 107.186 182.944ZM46.1541 50.6384V66.468C46.1541 88.0711 51.8616 109.713 62.6569 129.049C73.1719 147.883 88.5507 164.597 107.2 177.478C125.989 164.597 141.483 147.854 152.079 128.955C162.958 109.557 168.708 87.8395 168.708 66.1483V50.6351L107.666 27.4761L46.1541 50.6384Z" fill="url(#paint0_linear)"/>
<path d="M120.736 85.2626H115.106V77.0862C115.106 75.0899 114.306 73.2106 112.857 71.7993C111.408 70.3879 109.479 69.6091 107.43 69.6091C103.2 69.6091 99.7541 72.9619 99.7541 77.0862V85.2589H94.124V77.0862C94.124 69.9382 100.092 64.1248 107.43 64.1248C110.984 64.1248 114.325 65.4739 116.84 67.92C119.351 70.366 120.736 73.6237 120.736 77.0862V85.2626Z" fill="#9FD2EB"/>
<path d="M125.876 128.226H88.9845C86.9244 128.226 85.2539 126.292 85.2539 123.907V87.7099C85.2539 85.3249 86.9244 83.391 88.9845 83.391H125.876C127.936 83.391 129.607 85.3249 129.607 87.7099V123.907C129.607 126.297 127.936 128.226 125.876 128.226Z" fill="url(#paint1_linear)"/>
<path d="M104.303 112.292C103.804 112.292 103.305 112.101 102.916 111.724L95.383 104.365C94.5784 103.579 94.5463 102.269 95.3106 101.441C96.0749 100.614 97.3488 100.581 98.1533 101.367L104.383 107.454L116.795 96.7223C117.645 95.9859 118.913 96.099 119.629 96.9733C120.345 97.8476 120.236 99.1522 119.385 99.8886L105.598 111.812C105.22 112.129 104.761 112.292 104.303 112.292Z" fill="white"/>
</g>
<path opacity="0.3" d="M108.076 214.774C107.357 214.774 106.643 214.574 106.036 214.165C79.3685 196.241 57.3929 172.676 42.4904 146.018C27.5785 119.346 19.6978 89.4918 19.6978 59.6849V36.4101C19.6978 35.0811 20.5615 33.8867 21.8874 33.3916L107.409 1.23078C108.254 0.913728 109.197 0.913728 110.042 1.23512L194.928 33.396C196.245 33.8954 197.109 35.0898 197.109 36.4144V59.2636C197.109 89.1921 189.167 119.151 174.143 145.905C159.129 172.645 136.999 196.246 110.154 214.157C109.538 214.565 108.805 214.774 108.076 214.774ZM26.7008 38.6077V59.6849C26.7008 88.4494 34.3108 117.266 48.7044 143.012C62.7245 168.089 83.2295 190.343 108.095 207.494C133.147 190.343 153.806 168.05 167.934 142.886C182.439 117.058 190.105 88.1411 190.105 59.2593V38.6034L108.716 7.76718L26.7008 38.6077Z" fill="url(#paint2_linear)"/>
<path opacity="0.1" d="M108.051 243C107.172 243 106.299 242.753 105.557 242.249C72.9531 220.114 46.0858 191.013 27.8661 158.092C9.63499 125.156 0 88.2877 0 51.4788V22.7364C0 21.0952 1.05597 19.6203 2.67702 19.0089L107.235 -20.707C108.268 -21.0985 109.421 -21.0985 110.454 -20.7017L214.236 19.0142C215.845 19.631 216.901 21.1059 216.901 22.7418V50.9586C216.901 87.9177 207.192 124.914 188.824 157.953C170.467 190.975 143.412 220.12 110.591 242.238C109.838 242.743 108.942 243 108.051 243ZM8.5619 25.4503V51.4788C8.5619 87.0005 17.8658 122.587 35.4634 154.381C52.6043 185.349 77.6735 212.831 108.074 234.011C138.703 212.831 163.96 185.301 181.233 154.225C198.967 122.329 208.34 86.6197 208.34 50.9532V25.4449L108.833 -12.6351L8.5619 25.4503Z" fill="url(#paint3_linear)"/>
</g>
<defs>
<linearGradient id="paint0_linear" x1="107.431" y1="22.3877" x2="107.431" y2="182.945" gradientUnits="userSpaceOnUse">
<stop stop-color="#9FD2EB"/>
<stop offset="1" stop-color="#7B78FF" stop-opacity="0"/>
</linearGradient>
<linearGradient id="paint1_linear" x1="107.43" y1="83.391" x2="107.43" y2="128.226" gradientUnits="userSpaceOnUse">
<stop stop-color="#7B78FF"/>
<stop offset="1" stop-color="#7B78FF" stop-opacity="0"/>
</linearGradient>
<linearGradient id="paint2_linear" x1="108.403" y1="0.991904" x2="108.403" y2="214.774" gradientUnits="userSpaceOnUse">
<stop stop-color="#9FD2EB"/>
<stop offset="1" stop-color="#7B78FF" stop-opacity="0"/>
</linearGradient>
<linearGradient id="paint3_linear" x1="108.451" y1="-21.002" x2="108.451" y2="243" gradientUnits="userSpaceOnUse">
<stop stop-color="#9FD2EB"/>
<stop offset="1" stop-color="#7B78FF" stop-opacity="0"/>
</linearGradient>
<clipPath id="clip0">
<rect width="171" height="197" fill="white"/>
</clipPath>
<clipPath id="clip1">
<rect width="133.058" height="160.557" fill="white" transform="translate(40.9019 22.3798)"/>
</clipPath>
</defs>
</svg>
