<svg width="158" height="40" viewBox="0 0 158 40" fill="none" xmlns="http://www.w3.org/2000/svg">
<path d="M42.3944 26.7798V14.5221H37.5459V12.4611H49.5798V14.5221H44.7095V26.7798H42.3944Z" fill="white"/>
<path d="M52.8342 26.7798V12.4611H55.1493V26.7798H52.8342Z" fill="white"/>
<path d="M72.7843 12.2225H73.5706V26.7798H71.2555V17.7981L67.1277 23.1784H66.3415L62.1919 17.7764V26.7798H59.8768V12.2225H60.6849L66.7346 20.2279L72.7843 12.2225Z" fill="white"/>
<path d="M78.2874 26.7798V12.4611H87.766V14.5221H80.6024V18.1886H85.997V20.1845H80.6024V24.7187H88.0281V26.7798H78.2874Z" fill="white"/>
<path d="M90.7873 23.916L92.4253 22.6794C93.4736 24.1981 94.7331 24.9574 96.2037 24.9574C96.9462 24.9574 97.5432 24.7766 97.9946 24.415C98.4605 24.0534 98.6934 23.5689 98.6934 22.9615C98.6934 22.4697 98.5406 22.0864 98.2348 21.8116C97.929 21.5224 97.3758 21.1897 96.5749 20.8137L94.9806 20.076C93.8595 19.5698 93.015 19.013 92.4472 18.4055C91.8939 17.7836 91.6172 17.017 91.6172 16.1059C91.6172 14.9633 92.054 14.0304 92.9276 13.3072C93.8012 12.5841 94.8787 12.2225 96.16 12.2225C97.1646 12.2225 98.0746 12.4539 98.89 12.9167C99.7199 13.3795 100.361 14.0015 100.812 14.7825L99.1958 16.0191C98.4095 14.862 97.3976 14.2835 96.16 14.2835C95.5193 14.2835 94.9952 14.4354 94.5875 14.7391C94.1798 15.0428 93.976 15.4695 93.976 16.0191C93.9905 16.2794 94.0196 16.4964 94.0633 16.6699C94.1216 16.829 94.2599 17.0026 94.4783 17.1906C94.6967 17.3642 94.8496 17.4726 94.9369 17.516C95.0243 17.5594 95.3082 17.7041 95.7887 17.9499C95.8761 17.9933 95.9416 18.0295 95.9853 18.0584L97.6014 18.796C98.8099 19.3456 99.6835 19.9314 100.222 20.5533C100.776 21.1752 101.052 21.949 101.052 22.8747C101.052 24.1041 100.594 25.102 99.6763 25.8686C98.7735 26.6351 97.6233 27.0184 96.2255 27.0184C95.0607 27.0184 94.0051 26.7436 93.0587 26.194C92.1123 25.6444 91.3551 24.8851 90.7873 23.916Z" fill="white"/>
<path d="M122.607 12.4611H125.141L119.528 27.0184H118.763L114.461 16.8652L110.158 27.0184H109.372L103.759 12.4611H106.314L109.918 22.1371L114.046 12.2225H114.854L119.004 22.1371L122.607 12.4611Z" fill="white"/>
<path d="M136.753 26.7798L135.727 24.3933H129.24L128.214 26.7798H125.746L132.101 12.2225H132.887L139.243 26.7798H136.753ZM134.897 22.4191L132.494 16.4964L130.07 22.4191H134.897Z" fill="white"/>
<path d="M142.631 26.7798V12.4611H147.894C149.35 12.4611 150.529 12.8733 151.432 13.6977C152.335 14.5077 152.786 15.5563 152.786 16.8435C152.786 18.1307 152.328 19.1865 151.41 20.0109C150.508 20.8354 149.336 21.2476 147.894 21.2476H144.946V26.7798H142.631ZM144.946 19.2082H147.85C148.651 19.2082 149.277 18.9985 149.729 18.5791C150.18 18.1596 150.406 17.5883 150.406 16.8652C150.406 16.142 150.18 15.5707 149.729 15.1513C149.277 14.7174 148.651 14.5004 147.85 14.5004H144.946V19.2082Z" fill="white"/>
<path d="M30.7126 7.62543V9.224C30.7126 10.323 30.4236 11.3649 29.8889 12.2784L25.3799 20.0144L20.6687 11.9501C19.5414 10.0233 16.2898 10.0233 15.1626 11.9501L10.4513 19.9858L5.9713 12.307C5.42214 11.3649 5.11865 10.2945 5.11865 9.224V7.62543C5.11865 6.22668 6.27479 5.08484 7.69105 5.08484H28.1402C29.5565 5.08484 30.7126 6.22668 30.7126 7.62543Z" fill="#7B78FF"/>
<path d="M25.3798 20.0143L20.6686 28.05C20.105 29.0205 19.05 29.62 17.9083 29.62C16.7666 29.62 15.7261 29.0062 15.148 28.05L10.4368 19.9857L15.148 11.9501C16.2753 10.0232 19.5269 10.0232 20.6541 11.9501L25.3798 20.0143Z" fill="#12429F"/>
<path d="M30.7126 30.7619V32.3605C30.7126 33.7592 29.5565 34.9011 28.1402 34.9011H7.69105C6.27479 34.9153 5.11865 33.7735 5.11865 32.3747V30.7476C5.11865 29.6772 5.40769 28.6352 5.9424 27.7218L10.4513 19.9858L15.1626 28.05C15.7262 29.0206 16.7812 29.6201 17.9229 29.6201C19.0645 29.6201 20.1051 29.0063 20.6831 28.05L25.3944 20.0144L29.8744 27.6932C30.4236 28.6352 30.7126 29.7057 30.7126 30.7619Z" fill="#A0D2EB"/>
</svg>
