<svg width="297" height="542" viewBox="0 0 297 542" fill="none" xmlns="http://www.w3.org/2000/svg">
<circle cx="145.5" cy="77.4999" r="60.1864" stroke="white" stroke-opacity="0.2"/>
<circle cx="145.5" cy="77.5" r="68.5932" stroke="white" stroke-opacity="0.1"/>
<circle cx="145.5" cy="77.5" r="77" stroke="white" stroke-opacity="0.05"/>
<circle cx="145.027" cy="76.922" r="52.7525" fill="white"/>
<g clip-path="url(#clip0)">
<path d="M170.553 52.2876V55.5248C170.553 57.7505 169.976 59.8605 168.91 61.7104L159.916 77.3766L150.519 61.0456C148.27 57.1435 141.784 57.1435 139.536 61.0456L130.139 77.3188L121.203 61.7682C120.107 59.8605 119.502 57.6927 119.502 55.5248V52.2876C119.502 49.4549 121.808 47.1426 124.633 47.1426H165.422C168.247 47.1426 170.553 49.4549 170.553 52.2876Z" fill="#7B78FF"/>
<path d="M159.916 77.3767L150.519 93.6499C149.395 95.6154 147.29 96.8293 145.013 96.8293C142.736 96.8293 140.66 95.5864 139.507 93.6499L130.11 77.3189L139.507 61.0457C141.756 57.1436 148.242 57.1436 150.49 61.0457L159.916 77.3767Z" fill="#12429F"/>
<path d="M170.553 99.1417V102.379C170.553 105.212 168.247 107.524 165.422 107.524H124.633C121.808 107.553 119.502 105.24 119.502 102.408V99.1128C119.502 96.9449 120.078 94.8349 121.145 92.985L130.139 77.3188L139.536 93.6498C140.66 95.6153 142.765 96.8293 145.042 96.8293C147.319 96.8293 149.395 95.5864 150.548 93.6498L159.945 77.3767L168.881 92.9272C169.976 94.8349 170.553 97.0027 170.553 99.1417Z" fill="#A0D2EB"/>
</g>
<line x1="145" y1="127" x2="145" y2="216" stroke="url(#paint0_linear)" stroke-width="2" stroke-linecap="round" stroke-linejoin="round"/>
<rect x="94" y="217" width="104" height="38" rx="19" fill="url(#paint1_linear)"/>
<path d="M121.179 235.107H116.318V236.789H119.053C118.67 238.279 117.439 239.25 115.71 239.25C113.543 239.25 112.183 237.719 112.183 235.798C112.183 233.747 113.714 232.25 115.676 232.25C116.872 232.25 117.897 232.811 118.526 233.672L120.297 232.694C119.326 231.272 117.651 230.363 115.683 230.363C112.531 230.363 110.139 232.681 110.139 235.75C110.139 238.819 112.531 241.137 115.683 241.137C118.841 241.137 121.227 238.819 121.227 235.736C121.227 235.504 121.206 235.285 121.179 235.107ZM129.346 241.137C132.498 241.137 134.89 238.819 134.89 235.75C134.89 232.681 132.498 230.363 129.346 230.363C126.195 230.363 123.802 232.681 123.802 235.75C123.802 238.819 126.195 241.137 129.346 241.137ZM129.346 239.25C127.378 239.25 125.846 237.726 125.846 235.75C125.846 233.774 127.378 232.25 129.346 232.25C131.322 232.25 132.846 233.774 132.846 235.75C132.846 237.726 131.322 239.25 129.346 239.25ZM144.575 230.5L141.697 238.546L138.826 230.5H136.673L140.645 241H142.75L146.729 230.5H144.575ZM156.072 232.312V230.5H149.804V241H156.072V239.188H151.841V236.652H155.566V234.861H151.841V232.312H156.072ZM165.928 241H168.143L165.374 236.324C166.461 235.887 167.193 234.889 167.193 233.61C167.193 231.895 166.01 230.5 163.85 230.5H159.748V241H161.786V236.563H163.495L165.928 241ZM161.786 232.223H163.713C164.691 232.223 165.217 232.763 165.217 233.59C165.217 234.431 164.691 234.93 163.713 234.93H161.786V232.223ZM179.113 230.5V237.992L173.125 230.5H171.211V241H173.221V233.48L179.209 241H181.137V230.5H179.113Z" fill="white"/>
<rect x="1" y="282" width="295" height="259" rx="9" stroke="#7B78FF" stroke-opacity="0.2" stroke-width="2"/>
<line x1="145" y1="260" x2="145" y2="281" stroke="#7B78FF" stroke-opacity="0.2" stroke-width="2"/>
<rect x="63" y="312" width="164" height="41" rx="20.5" fill="#7B78FF" fill-opacity="0.25"/>
<path d="M104.28 326.772H100.431V335.772H102.177V332.503H104.28C106.085 332.503 107.245 331.278 107.245 329.661C107.245 328.067 106.085 326.772 104.28 326.772ZM104.017 331.026H102.177V328.243H104.017C105.024 328.243 105.552 328.817 105.552 329.644C105.552 330.505 105.024 331.026 104.017 331.026ZM110.239 330.757V329.567H108.646V335.772H110.315V332.808C110.315 331.571 111.077 331.103 112.378 331.103V329.509C111.3 329.567 110.567 330.183 110.239 330.757ZM116.321 335.89C118.243 335.89 119.714 334.536 119.714 332.667C119.714 330.804 118.243 329.45 116.321 329.45C114.394 329.45 112.929 330.804 112.929 332.667C112.929 334.536 114.394 335.89 116.321 335.89ZM116.315 334.454C115.319 334.454 114.528 333.728 114.528 332.667C114.528 331.618 115.319 330.88 116.315 330.88C117.306 330.88 118.108 331.63 118.108 332.667C118.108 333.71 117.306 334.454 116.315 334.454ZM124.39 330.733V329.567H122.978V327.851H121.302V329.567H120.323V330.733H121.302V333.839C121.302 335.081 122.069 335.772 123.317 335.772H124.372V334.489H123.733C123.288 334.489 122.978 334.22 122.978 333.651V330.733H124.39ZM128.614 335.89C130.536 335.89 132.007 334.536 132.007 332.667C132.007 330.804 130.536 329.45 128.614 329.45C126.687 329.45 125.222 330.804 125.222 332.667C125.222 334.536 126.687 335.89 128.614 335.89ZM128.608 334.454C127.612 334.454 126.821 333.728 126.821 332.667C126.821 331.618 127.612 330.88 128.608 330.88C129.599 330.88 130.401 331.63 130.401 332.667C130.401 333.71 129.599 334.454 128.608 334.454ZM136.22 335.878C137.31 335.878 138.259 335.433 138.868 334.712L137.679 333.71C137.356 334.167 136.835 334.448 136.214 334.448C135.206 334.448 134.427 333.722 134.427 332.667C134.427 331.606 135.206 330.88 136.214 330.88C136.835 330.88 137.356 331.161 137.679 331.618L138.868 330.616C138.259 329.896 137.31 329.45 136.22 329.45C134.292 329.45 132.827 330.798 132.827 332.667C132.827 334.53 134.292 335.878 136.22 335.878ZM142.899 335.89C144.821 335.89 146.292 334.536 146.292 332.667C146.292 330.804 144.821 329.45 142.899 329.45C140.972 329.45 139.507 330.804 139.507 332.667C139.507 334.536 140.972 335.89 142.899 335.89ZM142.894 334.454C141.897 334.454 141.106 333.728 141.106 332.667C141.106 331.618 141.897 330.88 142.894 330.88C143.884 330.88 144.687 331.63 144.687 332.667C144.687 333.71 143.884 334.454 142.894 334.454ZM147.646 335.772H149.315V326.772H147.646V335.772ZM150.2 338.099H151.788L157.63 326.772H156.048L150.2 338.099ZM160.513 334.22V326.772H158.767V335.772H163.577V334.22H160.513ZM168.944 326.772H165.095V335.772H166.841V332.503H168.944C170.749 332.503 171.909 331.278 171.909 329.661C171.909 328.067 170.749 326.772 168.944 326.772ZM168.681 331.026H166.841V328.243H168.681C169.688 328.243 170.216 328.817 170.216 329.644C170.216 330.505 169.688 331.026 168.681 331.026ZM175.296 335.89C176.679 335.89 177.704 335.228 177.704 333.892C177.704 332.62 176.761 332.239 175.917 331.97C175.202 331.741 174.563 331.618 174.563 331.179C174.563 330.851 174.862 330.675 175.296 330.675C175.741 330.675 176.374 330.886 176.819 331.19L177.54 330.095C176.896 329.679 176.099 329.45 175.337 329.45C174.083 329.45 172.999 330.06 172.999 331.349C172.999 332.585 173.995 332.919 174.833 333.194C175.513 333.423 176.087 333.563 176.087 334.038C176.087 334.419 175.765 334.624 175.284 334.624C174.681 334.624 173.907 334.296 173.403 333.897L172.7 335.093C173.362 335.55 174.312 335.89 175.296 335.89ZM188.175 328.325V326.772H182.731V335.772H184.478V332.04H187.671V330.505H184.478V328.325H188.175ZM195.294 332.603C195.265 330.692 193.888 329.438 192.101 329.438C190.19 329.438 188.808 330.874 188.808 332.673C188.808 334.466 190.161 335.89 192.159 335.89C193.483 335.89 194.515 335.263 195.013 334.255L193.688 333.698C193.366 334.261 192.792 334.56 192.153 334.56C191.251 334.56 190.519 333.95 190.448 332.931H195.276L195.294 332.603ZM192.118 330.669C192.909 330.669 193.507 331.132 193.63 331.911H190.507C190.7 331.138 191.31 330.669 192.118 330.669ZM202.583 332.603C202.554 330.692 201.177 329.438 199.39 329.438C197.479 329.438 196.097 330.874 196.097 332.673C196.097 334.466 197.45 335.89 199.448 335.89C200.772 335.89 201.804 335.263 202.302 334.255L200.978 333.698C200.655 334.261 200.081 334.56 199.442 334.56C198.54 334.56 197.808 333.95 197.737 332.931H202.565L202.583 332.603ZM199.407 330.669C200.198 330.669 200.796 331.132 200.919 331.911H197.796C197.989 331.138 198.599 330.669 199.407 330.669ZM205.905 335.89C207.288 335.89 208.313 335.228 208.313 333.892C208.313 332.62 207.37 332.239 206.526 331.97C205.812 331.741 205.173 331.618 205.173 331.179C205.173 330.851 205.472 330.675 205.905 330.675C206.351 330.675 206.983 330.886 207.429 331.19L208.149 330.095C207.505 329.679 206.708 329.45 205.946 329.45C204.692 329.45 203.608 330.06 203.608 331.349C203.608 332.585 204.604 332.919 205.442 333.194C206.122 333.423 206.696 333.563 206.696 334.038C206.696 334.419 206.374 334.624 205.894 334.624C205.29 334.624 204.517 334.296 204.013 333.897L203.31 335.093C203.972 335.55 204.921 335.89 205.905 335.89Z" fill="white"/>
<circle cx="83.8864" cy="331.886" r="6.88636" fill="#7B78FF"/>
<path d="M81.1323 332.181L82.7851 333.952L86.6414 329.82" stroke="white" stroke-width="2" stroke-linecap="round" stroke-linejoin="round"/>
<rect x="50" y="365" width="190" height="41" rx="20.5" fill="#7B78FF" fill-opacity="0.25"/>
<path d="M93.0557 389.884C94.6611 389.884 96.0205 389.017 96.0205 387.294C96.0205 385.618 94.7373 384.974 93.5537 384.452C92.5166 384.007 91.7432 383.72 91.7432 382.987C91.7432 382.425 92.1943 382.138 92.7627 382.138C93.4072 382.138 94.1924 382.448 94.8486 383.087L95.7686 381.839C94.9482 381.106 93.9111 380.655 92.8037 380.655C91.2686 380.655 90.0264 381.569 90.0264 383.163C90.0264 384.751 91.2686 385.337 92.4463 385.853C93.4717 386.304 94.2744 386.603 94.2744 387.405C94.2744 388.044 93.7646 388.407 93.0615 388.407C92.2354 388.407 91.2803 387.903 90.6709 387.194L89.6631 388.454C90.5127 389.339 91.8018 389.884 93.0557 389.884ZM100.808 384.733V383.567H99.3955V381.851H97.7197V383.567H96.7412V384.733H97.7197V387.839C97.7197 389.081 98.4873 389.772 99.7354 389.772H100.79V388.489H100.151C99.7061 388.489 99.3955 388.22 99.3955 387.651V384.733H100.808ZM103.813 384.757V383.567H102.22V389.772H103.89V386.808C103.89 385.571 104.651 385.103 105.952 385.103V383.509C104.874 383.567 104.142 384.183 103.813 384.757ZM109.532 389.901C110.458 389.901 111.144 389.532 111.589 388.981V389.772H113.265V383.567H111.595L111.589 384.353C111.144 383.79 110.452 383.421 109.532 383.421C107.909 383.421 106.526 384.786 106.526 386.655C106.526 388.53 107.909 389.901 109.532 389.901ZM109.989 388.478C108.987 388.478 108.196 387.739 108.196 386.655C108.196 385.577 108.987 384.845 109.989 384.845C110.985 384.845 111.771 385.577 111.771 386.655C111.771 387.739 110.985 388.478 109.989 388.478ZM118.468 384.733V383.567H117.056V381.851H115.38V383.567H114.401V384.733H115.38V387.839C115.38 389.081 116.147 389.772 117.396 389.772H118.45V388.489H117.812C117.366 388.489 117.056 388.22 117.056 387.651V384.733H118.468ZM125.786 386.603C125.757 384.692 124.38 383.438 122.593 383.438C120.683 383.438 119.3 384.874 119.3 386.673C119.3 388.466 120.653 389.89 122.651 389.89C123.976 389.89 125.007 389.263 125.505 388.255L124.181 387.698C123.858 388.261 123.284 388.56 122.646 388.56C121.743 388.56 121.011 387.95 120.94 386.931H125.769L125.786 386.603ZM122.61 384.669C123.401 384.669 123.999 385.132 124.122 385.911H120.999C121.192 385.138 121.802 384.669 122.61 384.669ZM129.823 392.69C131.944 392.69 133.204 391.501 133.204 389.438V383.567H131.528V384.37C131.106 383.819 130.474 383.45 129.571 383.45C127.913 383.45 126.601 384.733 126.601 386.562C126.601 388.39 127.913 389.708 129.595 389.708C130.485 389.708 131.118 389.345 131.528 388.806V389.591C131.528 390.704 130.913 391.343 129.794 391.343C129.114 391.343 128.37 391.108 127.796 390.276L126.724 391.237C127.632 392.386 128.78 392.69 129.823 392.69ZM129.964 388.284C129.021 388.284 128.271 387.593 128.271 386.562C128.271 385.53 129.021 384.833 129.964 384.833C130.907 384.833 131.663 385.53 131.663 386.562C131.663 387.593 130.907 388.284 129.964 388.284ZM135.929 382.577C136.45 382.577 136.89 382.144 136.89 381.61C136.89 381.077 136.45 380.655 135.929 380.655C135.396 380.655 134.956 381.077 134.956 381.61C134.956 382.144 135.396 382.577 135.929 382.577ZM135.091 389.772H136.749V383.567H135.091V389.772ZM141.501 389.878C142.591 389.878 143.54 389.433 144.149 388.712L142.96 387.71C142.638 388.167 142.116 388.448 141.495 388.448C140.487 388.448 139.708 387.722 139.708 386.667C139.708 385.606 140.487 384.88 141.495 384.88C142.116 384.88 142.638 385.161 142.96 385.618L144.149 384.616C143.54 383.896 142.591 383.45 141.501 383.45C139.573 383.45 138.108 384.798 138.108 386.667C138.108 388.53 139.573 389.878 141.501 389.878ZM152.815 380.772H148.966V389.772H150.712V386.503H152.815C154.62 386.503 155.78 385.278 155.78 383.661C155.78 382.067 154.62 380.772 152.815 380.772ZM152.552 385.026H150.712V382.243H152.552C153.56 382.243 154.087 382.817 154.087 383.644C154.087 384.505 153.56 385.026 152.552 385.026ZM159.173 389.901C160.099 389.901 160.784 389.532 161.229 388.981V389.772H162.905V383.567H161.235L161.229 384.353C160.784 383.79 160.093 383.421 159.173 383.421C157.55 383.421 156.167 384.786 156.167 386.655C156.167 388.53 157.55 389.901 159.173 389.901ZM159.63 388.478C158.628 388.478 157.837 387.739 157.837 386.655C157.837 385.577 158.628 384.845 159.63 384.845C160.626 384.845 161.411 385.577 161.411 386.655C161.411 387.739 160.626 388.478 159.63 388.478ZM166.38 384.757V383.567H164.786V389.772H166.456V386.808C166.456 385.571 167.218 385.103 168.519 385.103V383.509C167.44 383.567 166.708 384.183 166.38 384.757ZM173.37 384.733V383.567H171.958V381.851H170.282V383.567H169.304V384.733H170.282V387.839C170.282 389.081 171.05 389.772 172.298 389.772H173.353V388.489H172.714C172.269 388.489 171.958 388.22 171.958 387.651V384.733H173.37ZM178.333 383.45C177.513 383.45 176.868 383.837 176.458 384.44V383.567H174.782V389.772H176.458V386.245C176.464 385.302 176.979 384.851 177.688 384.851C178.333 384.851 178.796 385.138 178.796 386.128V389.772H180.478V385.829C180.478 384.276 179.657 383.45 178.333 383.45ZM188.188 386.603C188.159 384.692 186.782 383.438 184.995 383.438C183.085 383.438 181.702 384.874 181.702 386.673C181.702 388.466 183.056 389.89 185.054 389.89C186.378 389.89 187.409 389.263 187.907 388.255L186.583 387.698C186.261 388.261 185.687 388.56 185.048 388.56C184.146 388.56 183.413 387.95 183.343 386.931H188.171L188.188 386.603ZM185.013 384.669C185.804 384.669 186.401 385.132 186.524 385.911H183.401C183.595 385.138 184.204 384.669 185.013 384.669ZM191.118 384.757V383.567H189.524V389.772H191.194V386.808C191.194 385.571 191.956 385.103 193.257 385.103V383.509C192.179 383.567 191.446 384.183 191.118 384.757ZM196.374 389.89C197.757 389.89 198.782 389.228 198.782 387.892C198.782 386.62 197.839 386.239 196.995 385.97C196.28 385.741 195.642 385.618 195.642 385.179C195.642 384.851 195.94 384.675 196.374 384.675C196.819 384.675 197.452 384.886 197.897 385.19L198.618 384.095C197.974 383.679 197.177 383.45 196.415 383.45C195.161 383.45 194.077 384.06 194.077 385.349C194.077 386.585 195.073 386.919 195.911 387.194C196.591 387.423 197.165 387.563 197.165 388.038C197.165 388.419 196.843 388.624 196.362 388.624C195.759 388.624 194.985 388.296 194.481 387.897L193.778 389.093C194.44 389.55 195.39 389.89 196.374 389.89ZM203.704 383.45C202.884 383.45 202.239 383.831 201.823 384.458V380.772H200.165V389.772H201.823V386.239C201.829 385.302 202.333 384.851 203.083 384.851C203.692 384.851 204.185 385.144 204.185 386.128V389.772H205.843V385.829C205.843 384.276 205.022 383.45 203.704 383.45ZM208.433 382.577C208.954 382.577 209.394 382.144 209.394 381.61C209.394 381.077 208.954 380.655 208.433 380.655C207.899 380.655 207.46 381.077 207.46 381.61C207.46 382.144 207.899 382.577 208.433 382.577ZM207.595 389.772H209.253V383.567H207.595V389.772ZM211.146 392.69H212.815V388.981C213.284 389.562 213.999 389.89 214.854 389.89C216.513 389.89 217.884 388.554 217.884 386.679C217.884 384.81 216.507 383.45 214.854 383.45C213.935 383.45 213.237 383.837 212.815 384.364V383.567H211.146V392.69ZM214.427 388.501C213.425 388.501 212.64 387.763 212.64 386.679C212.64 385.601 213.425 384.862 214.427 384.862C215.423 384.862 216.214 385.601 216.214 386.679C216.214 387.763 215.423 388.501 214.427 388.501ZM221.253 389.89C222.636 389.89 223.661 389.228 223.661 387.892C223.661 386.62 222.718 386.239 221.874 385.97C221.159 385.741 220.521 385.618 220.521 385.179C220.521 384.851 220.819 384.675 221.253 384.675C221.698 384.675 222.331 384.886 222.776 385.19L223.497 384.095C222.853 383.679 222.056 383.45 221.294 383.45C220.04 383.45 218.956 384.06 218.956 385.349C218.956 386.585 219.952 386.919 220.79 387.194C221.47 387.423 222.044 387.563 222.044 388.038C222.044 388.419 221.722 388.624 221.241 388.624C220.638 388.624 219.864 388.296 219.36 387.897L218.657 389.093C219.319 389.55 220.269 389.89 221.253 389.89Z" fill="white"/>
<circle cx="71.8864" cy="384.886" r="6.88636" fill="#7B78FF"/>
<path d="M69.1323 385.181L70.7851 386.952L74.6414 382.82" stroke="white" stroke-width="2" stroke-linecap="round" stroke-linejoin="round"/>
<rect x="70" y="418" width="149" height="41" rx="20.5" fill="#7B78FF" fill-opacity="0.25"/>
<path d="M111.621 434.553V433H106.178V442H107.924V438.268H111.117V436.732H107.924V434.553H111.621ZM115.711 442.117C117.516 442.117 118.582 441.203 118.582 439.709V435.795H116.912V439.604C116.912 440.348 116.396 440.688 115.711 440.688C115.031 440.688 114.521 440.348 114.521 439.604V435.795H112.857V439.709C112.857 441.203 113.918 442.117 115.711 442.117ZM123.621 436.961V435.795H122.209V434.078H120.533V435.795H119.555V436.961H120.533V440.066C120.533 441.309 121.301 442 122.549 442H123.604V440.717H122.965C122.52 440.717 122.209 440.447 122.209 439.879V436.961H123.621ZM127.711 442.117C129.516 442.117 130.582 441.203 130.582 439.709V435.795H128.912V439.604C128.912 440.348 128.396 440.688 127.711 440.688C127.031 440.688 126.521 440.348 126.521 439.604V435.795H124.857V439.709C124.857 441.203 125.918 442.117 127.711 442.117ZM133.893 436.984V435.795H132.299V442H133.969V439.035C133.969 437.799 134.73 437.33 136.031 437.33V435.736C134.953 435.795 134.221 436.41 133.893 436.984ZM143.068 438.83C143.039 436.92 141.662 435.666 139.875 435.666C137.965 435.666 136.582 437.102 136.582 438.9C136.582 440.693 137.936 442.117 139.934 442.117C141.258 442.117 142.289 441.49 142.787 440.482L141.463 439.926C141.141 440.488 140.566 440.787 139.928 440.787C139.025 440.787 138.293 440.178 138.223 439.158H143.051L143.068 438.83ZM139.893 436.896C140.684 436.896 141.281 437.359 141.404 438.139H138.281C138.475 437.365 139.084 436.896 139.893 436.896ZM151.898 433H148.049V442H149.795V438.73H151.898C153.703 438.73 154.863 437.506 154.863 435.889C154.863 434.295 153.703 433 151.898 433ZM151.635 437.254H149.795V434.471H151.635C152.643 434.471 153.17 435.045 153.17 435.871C153.17 436.732 152.643 437.254 151.635 437.254ZM157.857 436.984V435.795H156.264V442H157.934V439.035C157.934 437.799 158.695 437.33 159.996 437.33V435.736C158.918 435.795 158.186 436.41 157.857 436.984ZM163.939 442.117C165.861 442.117 167.332 440.764 167.332 438.895C167.332 437.031 165.861 435.678 163.939 435.678C162.012 435.678 160.547 437.031 160.547 438.895C160.547 440.764 162.012 442.117 163.939 442.117ZM163.934 440.682C162.938 440.682 162.146 439.955 162.146 438.895C162.146 437.846 162.938 437.107 163.934 437.107C164.924 437.107 165.727 437.857 165.727 438.895C165.727 439.938 164.924 440.682 163.934 440.682ZM171.182 442.129C172.107 442.129 172.793 441.76 173.238 441.209V442H174.914V433H173.244L173.238 436.58C172.793 436.018 172.102 435.648 171.182 435.648C169.559 435.648 168.176 437.014 168.176 438.883C168.176 440.758 169.559 442.129 171.182 442.129ZM171.639 440.705C170.637 440.705 169.846 439.967 169.846 438.883C169.846 437.805 170.637 437.072 171.639 437.072C172.635 437.072 173.42 437.805 173.42 438.883C173.42 439.967 172.635 440.705 171.639 440.705ZM179.484 442.117C181.289 442.117 182.355 441.203 182.355 439.709V435.795H180.686V439.604C180.686 440.348 180.17 440.688 179.484 440.688C178.805 440.688 178.295 440.348 178.295 439.604V435.795H176.631V439.709C176.631 441.203 177.691 442.117 179.484 442.117ZM186.932 442.105C188.021 442.105 188.971 441.66 189.58 440.939L188.391 439.938C188.068 440.395 187.547 440.676 186.926 440.676C185.918 440.676 185.139 439.949 185.139 438.895C185.139 437.834 185.918 437.107 186.926 437.107C187.547 437.107 188.068 437.389 188.391 437.846L189.58 436.844C188.971 436.123 188.021 435.678 186.932 435.678C185.004 435.678 183.539 437.025 183.539 438.895C183.539 440.758 185.004 442.105 186.932 442.105ZM194.074 436.961V435.795H192.662V434.078H190.986V435.795H190.008V436.961H190.986V440.066C190.986 441.309 191.754 442 193.002 442H194.057V440.717H193.418C192.973 440.717 192.662 440.447 192.662 439.879V436.961H194.074ZM197.473 442.117C198.855 442.117 199.881 441.455 199.881 440.119C199.881 438.848 198.938 438.467 198.094 438.197C197.379 437.969 196.74 437.846 196.74 437.406C196.74 437.078 197.039 436.902 197.473 436.902C197.918 436.902 198.551 437.113 198.996 437.418L199.717 436.322C199.072 435.906 198.275 435.678 197.514 435.678C196.26 435.678 195.176 436.287 195.176 437.576C195.176 438.812 196.172 439.146 197.01 439.422C197.689 439.65 198.264 439.791 198.264 440.266C198.264 440.646 197.941 440.852 197.461 440.852C196.857 440.852 196.084 440.523 195.58 440.125L194.877 441.32C195.539 441.777 196.488 442.117 197.473 442.117Z" fill="white"/>
<circle cx="90.6593" cy="437.659" r="6.88636" fill="#7B78FF"/>
<path d="M88 437.361L89.6527 439.132L93.5091 435" stroke="white" stroke-width="2" stroke-linecap="round" stroke-linejoin="round"/>
<rect x="39" y="471" width="219" height="41" rx="20.5" fill="#7B78FF" fill-opacity="0.25"/>
<path d="M77.1777 496H80.2598C83.248 496 84.8301 494.225 84.8301 491.5C84.8301 488.775 83.248 487 80.2598 487H77.1777V496ZM78.918 494.447V488.553H80.1836C82.0938 488.553 83.0195 489.596 83.0195 491.5C83.0195 493.404 82.0938 494.447 80.1836 494.447H78.918ZM92.2832 496H94.1055L90.6719 487H88.6445L85.2168 496H87.0391L87.707 494.154H91.6152L92.2832 496ZM88.2402 492.678L89.6641 488.746L91.082 492.678H88.2402ZM99.1914 496.117C101.893 496.117 103.943 494.131 103.943 491.5C103.943 488.869 101.893 486.883 99.1914 486.883C96.4902 486.883 94.4395 488.869 94.4395 491.5C94.4395 494.131 96.4902 496.117 99.1914 496.117ZM99.1914 494.5C97.5039 494.5 96.1914 493.193 96.1914 491.5C96.1914 489.807 97.5039 488.5 99.1914 488.5C100.885 488.5 102.191 489.807 102.191 491.5C102.191 493.193 100.885 494.5 99.1914 494.5ZM112.176 490.961V489.795H110.764V488.078H109.088V489.795H108.109V490.961H109.088V494.066C109.088 495.309 109.855 496 111.104 496H112.158V494.717H111.52C111.074 494.717 110.764 494.447 110.764 493.879V490.961H112.176ZM115.182 490.984V489.795H113.588V496H115.258V493.035C115.258 491.799 116.02 491.33 117.32 491.33V489.736C116.242 489.795 115.51 490.41 115.182 490.984ZM124.357 492.83C124.328 490.92 122.951 489.666 121.164 489.666C119.254 489.666 117.871 491.102 117.871 492.9C117.871 494.693 119.225 496.117 121.223 496.117C122.547 496.117 123.578 495.49 124.076 494.482L122.752 493.926C122.43 494.488 121.855 494.787 121.217 494.787C120.314 494.787 119.582 494.178 119.512 493.158H124.34L124.357 492.83ZM121.182 490.896C121.973 490.896 122.57 491.359 122.693 492.139H119.57C119.764 491.365 120.373 490.896 121.182 490.896ZM128.189 496.129C129.115 496.129 129.801 495.76 130.246 495.209V496H131.922V489.795H130.252L130.246 490.58C129.801 490.018 129.109 489.648 128.189 489.648C126.566 489.648 125.184 491.014 125.184 492.883C125.184 494.758 126.566 496.129 128.189 496.129ZM128.646 494.705C127.645 494.705 126.854 493.967 126.854 492.883C126.854 491.805 127.645 491.072 128.646 491.072C129.643 491.072 130.428 491.805 130.428 492.883C130.428 493.967 129.643 494.705 128.646 494.705ZM135.789 496.117C137.172 496.117 138.197 495.455 138.197 494.119C138.197 492.848 137.254 492.467 136.41 492.197C135.695 491.969 135.057 491.846 135.057 491.406C135.057 491.078 135.355 490.902 135.789 490.902C136.234 490.902 136.867 491.113 137.312 491.418L138.033 490.322C137.389 489.906 136.592 489.678 135.83 489.678C134.576 489.678 133.492 490.287 133.492 491.576C133.492 492.812 134.488 493.146 135.326 493.422C136.006 493.65 136.58 493.791 136.58 494.266C136.58 494.646 136.258 494.852 135.777 494.852C135.174 494.852 134.4 494.523 133.896 494.125L133.193 495.32C133.855 495.777 134.805 496.117 135.789 496.117ZM142.258 496.117C144.062 496.117 145.129 495.203 145.129 493.709V489.795H143.459V493.604C143.459 494.348 142.943 494.688 142.258 494.688C141.578 494.688 141.068 494.348 141.068 493.604V489.795H139.404V493.709C139.404 495.203 140.465 496.117 142.258 496.117ZM148.439 490.984V489.795H146.846V496H148.516V493.035C148.516 491.799 149.277 491.33 150.578 491.33V489.736C149.5 489.795 148.768 490.41 148.439 490.984ZM155.676 489.795L154.246 494.049L152.811 489.795H150.977L153.361 495.631L152.061 498.918H153.777L157.428 489.795H155.676ZM168.959 489.678C168.162 489.678 167.518 490.064 167.09 490.674C166.779 489.988 166.146 489.678 165.344 489.678C164.559 489.678 163.949 490.064 163.551 490.68V489.795H161.881V496H163.551V492.273C163.551 491.541 163.943 491.061 164.617 491.061C165.209 491.061 165.625 491.436 165.625 492.191V496H167.301V492.273C167.301 491.541 167.693 491.061 168.367 491.061C168.953 491.061 169.375 491.436 169.375 492.191V496H171.045V491.74C171.045 490.439 170.213 489.678 168.959 489.678ZM175.311 496.129C176.236 496.129 176.922 495.76 177.367 495.209V496H179.043V489.795H177.373L177.367 490.58C176.922 490.018 176.23 489.648 175.311 489.648C173.688 489.648 172.305 491.014 172.305 492.883C172.305 494.758 173.688 496.129 175.311 496.129ZM175.768 494.705C174.766 494.705 173.975 493.967 173.975 492.883C173.975 491.805 174.766 491.072 175.768 491.072C176.764 491.072 177.549 491.805 177.549 492.883C177.549 493.967 176.764 494.705 175.768 494.705ZM184.475 489.678C183.654 489.678 183.01 490.064 182.6 490.668V489.795H180.924V496H182.6V492.473C182.605 491.529 183.121 491.078 183.83 491.078C184.475 491.078 184.938 491.365 184.938 492.355V496H186.619V492.057C186.619 490.504 185.799 489.678 184.475 489.678ZM190.873 496.129C191.799 496.129 192.484 495.76 192.93 495.209V496H194.605V489.795H192.936L192.93 490.58C192.484 490.018 191.793 489.648 190.873 489.648C189.25 489.648 187.867 491.014 187.867 492.883C187.867 494.758 189.25 496.129 190.873 496.129ZM191.33 494.705C190.328 494.705 189.537 493.967 189.537 492.883C189.537 491.805 190.328 491.072 191.33 491.072C192.326 491.072 193.111 491.805 193.111 492.883C193.111 493.967 192.326 494.705 191.33 494.705ZM199.188 498.918C201.309 498.918 202.568 497.729 202.568 495.666V489.795H200.893V490.598C200.471 490.047 199.838 489.678 198.936 489.678C197.277 489.678 195.965 490.961 195.965 492.789C195.965 494.617 197.277 495.936 198.959 495.936C199.85 495.936 200.482 495.572 200.893 495.033V495.818C200.893 496.932 200.277 497.57 199.158 497.57C198.479 497.57 197.734 497.336 197.16 496.504L196.088 497.465C196.996 498.613 198.145 498.918 199.188 498.918ZM199.328 494.512C198.385 494.512 197.635 493.82 197.635 492.789C197.635 491.758 198.385 491.061 199.328 491.061C200.271 491.061 201.027 491.758 201.027 492.789C201.027 493.82 200.271 494.512 199.328 494.512ZM210.408 492.83C210.379 490.92 209.002 489.666 207.215 489.666C205.305 489.666 203.922 491.102 203.922 492.9C203.922 494.693 205.275 496.117 207.273 496.117C208.598 496.117 209.629 495.49 210.127 494.482L208.803 493.926C208.48 494.488 207.906 494.787 207.268 494.787C206.365 494.787 205.633 494.178 205.562 493.158H210.391L210.408 492.83ZM207.232 490.896C208.023 490.896 208.621 491.359 208.744 492.139H205.621C205.814 491.365 206.424 490.896 207.232 490.896ZM218.822 489.678C218.025 489.678 217.381 490.064 216.953 490.674C216.643 489.988 216.01 489.678 215.207 489.678C214.422 489.678 213.812 490.064 213.414 490.68V489.795H211.744V496H213.414V492.273C213.414 491.541 213.807 491.061 214.48 491.061C215.072 491.061 215.488 491.436 215.488 492.191V496H217.164V492.273C217.164 491.541 217.557 491.061 218.23 491.061C218.816 491.061 219.238 491.436 219.238 492.191V496H220.908V491.74C220.908 490.439 220.076 489.678 218.822 489.678ZM228.631 492.83C228.602 490.92 227.225 489.666 225.438 489.666C223.527 489.666 222.145 491.102 222.145 492.9C222.145 494.693 223.498 496.117 225.496 496.117C226.82 496.117 227.852 495.49 228.35 494.482L227.025 493.926C226.703 494.488 226.129 494.787 225.49 494.787C224.588 494.787 223.855 494.178 223.785 493.158H228.613L228.631 492.83ZM225.455 490.896C226.246 490.896 226.844 491.359 226.967 492.139H223.844C224.037 491.365 224.646 490.896 225.455 490.896ZM233.518 489.678C232.697 489.678 232.053 490.064 231.643 490.668V489.795H229.967V496H231.643V492.473C231.648 491.529 232.164 491.078 232.873 491.078C233.518 491.078 233.98 491.365 233.98 492.355V496H235.662V492.057C235.662 490.504 234.842 489.678 233.518 489.678ZM240.742 490.961V489.795H239.33V488.078H237.654V489.795H236.676V490.961H237.654V494.066C237.654 495.309 238.422 496 239.67 496H240.725V494.717H240.086C239.641 494.717 239.33 494.447 239.33 493.879V490.961H240.742Z" fill="white"/>
<circle cx="59.8864" cy="490.886" r="6.88636" fill="#7B78FF"/>
<path d="M57.1323 491.181L58.7851 492.952L62.6414 488.82" stroke="white" stroke-width="2" stroke-linecap="round" stroke-linejoin="round"/>
<defs>
<linearGradient id="paint0_linear" x1="144" y1="130" x2="144" y2="214.5" gradientUnits="userSpaceOnUse">
<stop stop-color="white"/>
<stop offset="1" stop-color="#394763"/>
</linearGradient>
<linearGradient id="paint1_linear" x1="146" y1="217" x2="146" y2="255" gradientUnits="userSpaceOnUse">
<stop stop-color="#A0D2EB" stop-opacity="0.24"/>
<stop offset="1" stop-opacity="0"/>
</linearGradient>
<clipPath id="clip0">
<rect width="51.0508" height="60.4102" fill="white" transform="translate(119.502 47.1426)"/>
</clipPath>
</defs>
</svg>
