<svg width="859" height="440" viewBox="0 0 859 440" fill="none" xmlns="http://www.w3.org/2000/svg">
<circle cx="147.5" cy="220.5" r="115" stroke="white" stroke-opacity="0.2"/>
<circle cx="147.5" cy="220.5" r="131" stroke="white" stroke-opacity="0.1"/>
<circle cx="147.5" cy="220.5" r="147" stroke="white" stroke-opacity="0.05"/>
<circle cx="146.6" cy="219.4" r="100.4" fill="white"/>
<g clip-path="url(#clip0)">
<path d="M195.181 172.515V178.676C195.181 182.912 194.084 186.928 192.054 190.449L174.937 220.265L157.052 189.183C152.772 181.757 140.428 181.757 136.149 189.183L118.264 220.155L101.257 190.559C99.1719 186.928 98.0198 182.802 98.0198 178.676V172.515C98.0198 167.124 102.409 162.723 107.785 162.723H185.416C190.792 162.723 195.181 167.124 195.181 172.515Z" fill="#7B78FF"/>
<path d="M174.937 220.265L157.052 251.236C154.912 254.977 150.907 257.287 146.573 257.287C142.239 257.287 138.289 254.922 136.094 251.236L118.209 220.155L136.094 189.183C140.374 181.757 152.718 181.757 156.997 189.183L174.937 220.265Z" fill="#12429F"/>
<path d="M195.181 261.689V267.85C195.181 273.241 190.792 277.642 185.416 277.642H107.785C102.409 277.697 98.0198 273.296 98.0198 267.905V261.634C98.0198 257.508 99.117 253.492 101.147 249.971L118.264 220.155L136.149 251.237C138.289 254.977 142.294 257.288 146.628 257.288C150.962 257.288 154.912 254.922 157.107 251.237L174.992 220.265L191.999 249.861C194.084 253.492 195.181 257.618 195.181 261.689Z" fill="#A0D2EB"/>
</g>
<rect x="342" y="201" width="104" height="38" rx="19" fill="url(#paint0_linear)"/>
<path d="M369.179 219.107H364.318V220.789H367.053C366.67 222.279 365.439 223.25 363.71 223.25C361.543 223.25 360.183 221.719 360.183 219.798C360.183 217.747 361.714 216.25 363.676 216.25C364.872 216.25 365.897 216.811 366.526 217.672L368.297 216.694C367.326 215.272 365.651 214.363 363.683 214.363C360.531 214.363 358.139 216.681 358.139 219.75C358.139 222.819 360.531 225.137 363.683 225.137C366.841 225.137 369.227 222.819 369.227 219.736C369.227 219.504 369.206 219.285 369.179 219.107ZM377.346 225.137C380.498 225.137 382.89 222.819 382.89 219.75C382.89 216.681 380.498 214.363 377.346 214.363C374.195 214.363 371.802 216.681 371.802 219.75C371.802 222.819 374.195 225.137 377.346 225.137ZM377.346 223.25C375.378 223.25 373.846 221.726 373.846 219.75C373.846 217.774 375.378 216.25 377.346 216.25C379.322 216.25 380.846 217.774 380.846 219.75C380.846 221.726 379.322 223.25 377.346 223.25ZM392.575 214.5L389.697 222.546L386.826 214.5H384.673L388.645 225H390.75L394.729 214.5H392.575ZM404.072 216.312V214.5H397.804V225H404.072V223.188H399.841V220.652H403.566V218.861H399.841V216.312H404.072ZM413.928 225H416.143L413.374 220.324C414.461 219.887 415.193 218.889 415.193 217.61C415.193 215.895 414.01 214.5 411.85 214.5H407.748V225H409.786V220.563H411.495L413.928 225ZM409.786 216.223H411.713C412.691 216.223 413.217 216.763 413.217 217.59C413.217 218.431 412.691 218.93 411.713 218.93H409.786V216.223ZM427.113 214.5V221.992L421.125 214.5H419.211V225H421.221V217.48L427.209 225H429.137V214.5H427.113Z" fill="white"/>
<rect x="552" width="271" height="60" rx="29" fill="url(#paint1_linear)"/>
<path d="M617.633 36H620.164L617 30.6562C618.242 30.1562 619.078 29.0156 619.078 27.5547C619.078 25.5938 617.727 24 615.258 24H610.57V36H612.898V30.9297H614.852L617.633 36ZM612.898 25.9688H615.102C616.219 25.9688 616.82 26.5859 616.82 27.5312C616.82 28.4922 616.219 29.0625 615.102 29.0625H612.898V25.9688ZM622.875 26.4062C623.57 26.4062 624.156 25.8281 624.156 25.1172C624.156 24.4062 623.57 23.8438 622.875 23.8438C622.164 23.8438 621.578 24.4062 621.578 25.1172C621.578 25.8281 622.164 26.4062 622.875 26.4062ZM621.758 36H623.969V27.7266H621.758V36ZM629.141 36.1562C630.984 36.1562 632.352 35.2734 632.352 33.4922C632.352 31.7969 631.094 31.2891 629.969 30.9297C629.016 30.625 628.164 30.4609 628.164 29.875C628.164 29.4375 628.562 29.2031 629.141 29.2031C629.734 29.2031 630.578 29.4844 631.172 29.8906L632.133 28.4297C631.273 27.875 630.211 27.5703 629.195 27.5703C627.523 27.5703 626.078 28.3828 626.078 30.1016C626.078 31.75 627.406 32.1953 628.523 32.5625C629.43 32.8672 630.195 33.0547 630.195 33.6875C630.195 34.1953 629.766 34.4688 629.125 34.4688C628.32 34.4688 627.289 34.0312 626.617 33.5L625.68 35.0938C626.562 35.7031 627.828 36.1562 629.141 36.1562ZM642.695 36L638.648 31.6016L642.25 27.7266H639.555L636.422 31.2109V24H634.195V36H636.422V32.0938L639.867 36H642.695ZM653.984 24H648.852V36H651.18V31.6406H653.984C656.391 31.6406 657.938 30.0078 657.938 27.8516C657.938 25.7266 656.391 24 653.984 24ZM653.633 29.6719H651.18V25.9609H653.633C654.977 25.9609 655.68 26.7266 655.68 27.8281C655.68 28.9766 654.977 29.6719 653.633 29.6719ZM662.945 36.1562C665.508 36.1562 667.469 34.3516 667.469 31.8594C667.469 29.375 665.508 27.5703 662.945 27.5703C660.375 27.5703 658.422 29.375 658.422 31.8594C658.422 34.3516 660.375 36.1562 662.945 36.1562ZM662.938 34.2422C661.609 34.2422 660.555 33.2734 660.555 31.8594C660.555 30.4609 661.609 29.4766 662.938 29.4766C664.258 29.4766 665.328 30.4766 665.328 31.8594C665.328 33.25 664.258 34.2422 662.938 34.2422ZM669.273 36H671.5V24H669.273V36ZM675.125 26.4062C675.82 26.4062 676.406 25.8281 676.406 25.1172C676.406 24.4062 675.82 23.8438 675.125 23.8438C674.414 23.8438 673.828 24.4062 673.828 25.1172C673.828 25.8281 674.414 26.4062 675.125 26.4062ZM674.008 36H676.219V27.7266H674.008V36ZM682.555 36.1406C684.008 36.1406 685.273 35.5469 686.086 34.5859L684.5 33.25C684.07 33.8594 683.375 34.2344 682.547 34.2344C681.203 34.2344 680.164 33.2656 680.164 31.8594C680.164 30.4453 681.203 29.4766 682.547 29.4766C683.375 29.4766 684.07 29.8516 684.5 30.4609L686.086 29.125C685.273 28.1641 684.008 27.5703 682.555 27.5703C679.984 27.5703 678.031 29.3672 678.031 31.8594C678.031 34.3438 679.984 36.1406 682.555 36.1406ZM688.766 26.4062C689.461 26.4062 690.047 25.8281 690.047 25.1172C690.047 24.4062 689.461 23.8438 688.766 23.8438C688.055 23.8438 687.469 24.4062 687.469 25.1172C687.469 25.8281 688.055 26.4062 688.766 26.4062ZM687.648 36H689.859V27.7266H687.648V36ZM700.32 31.7734C700.281 29.2266 698.445 27.5547 696.062 27.5547C693.516 27.5547 691.672 29.4688 691.672 31.8672C691.672 34.2578 693.477 36.1562 696.141 36.1562C697.906 36.1562 699.281 35.3203 699.945 33.9766L698.18 33.2344C697.75 33.9844 696.984 34.3828 696.133 34.3828C694.93 34.3828 693.953 33.5703 693.859 32.2109H700.297L700.32 31.7734ZM696.086 29.1953C697.141 29.1953 697.938 29.8125 698.102 30.8516H693.938C694.195 29.8203 695.008 29.1953 696.086 29.1953ZM704.75 36.1562C706.594 36.1562 707.961 35.2734 707.961 33.4922C707.961 31.7969 706.703 31.2891 705.578 30.9297C704.625 30.625 703.773 30.4609 703.773 29.875C703.773 29.4375 704.172 29.2031 704.75 29.2031C705.344 29.2031 706.188 29.4844 706.781 29.8906L707.742 28.4297C706.883 27.875 705.82 27.5703 704.805 27.5703C703.133 27.5703 701.688 28.3828 701.688 30.1016C701.688 31.75 703.016 32.1953 704.133 32.5625C705.039 32.8672 705.805 33.0547 705.805 33.6875C705.805 34.1953 705.375 34.4688 704.734 34.4688C703.93 34.4688 702.898 34.0312 702.227 33.5L701.289 35.0938C702.172 35.7031 703.438 36.1562 704.75 36.1562Z" fill="white"/>
<circle cx="582" cy="30" r="10" fill="#7B78FF"/>
<path d="M578 30.4286L580.4 33L586 27" stroke="white" stroke-width="2" stroke-linecap="round" stroke-linejoin="round"/>
<rect x="552" y="76" width="271" height="60" rx="29" fill="url(#paint2_linear)"/>
<path d="M616.078 112.156C617.859 112.156 619.547 111.43 620.672 110.273L619.023 108.727C618.305 109.523 617.227 110 616.078 110C613.82 110 612.078 108.266 612.078 106C612.078 103.734 613.82 102 616.078 102C617.227 102 618.305 102.477 619.023 103.273L620.672 101.727C619.547 100.57 617.859 99.8438 616.078 99.8438C612.469 99.8438 609.742 102.492 609.742 106C609.742 109.508 612.469 112.156 616.078 112.156ZM626.195 112.156C628.758 112.156 630.719 110.352 630.719 107.859C630.719 105.375 628.758 103.57 626.195 103.57C623.625 103.57 621.672 105.375 621.672 107.859C621.672 110.352 623.625 112.156 626.195 112.156ZM626.188 110.242C624.859 110.242 623.805 109.273 623.805 107.859C623.805 106.461 624.859 105.477 626.188 105.477C627.508 105.477 628.578 106.477 628.578 107.859C628.578 109.25 627.508 110.242 626.188 110.242ZM641.961 103.57C640.898 103.57 640.039 104.086 639.469 104.898C639.055 103.984 638.211 103.57 637.141 103.57C636.094 103.57 635.281 104.086 634.75 104.906V103.727H632.523V112H634.75V107.031C634.75 106.055 635.273 105.414 636.172 105.414C636.961 105.414 637.516 105.914 637.516 106.922V112H639.75V107.031C639.75 106.055 640.273 105.414 641.172 105.414C641.953 105.414 642.516 105.914 642.516 106.922V112H644.742V106.32C644.742 104.586 643.633 103.57 641.961 103.57ZM656.539 103.57C655.477 103.57 654.617 104.086 654.047 104.898C653.633 103.984 652.789 103.57 651.719 103.57C650.672 103.57 649.859 104.086 649.328 104.906V103.727H647.102V112H649.328V107.031C649.328 106.055 649.852 105.414 650.75 105.414C651.539 105.414 652.094 105.914 652.094 106.922V112H654.328V107.031C654.328 106.055 654.852 105.414 655.75 105.414C656.531 105.414 657.094 105.914 657.094 106.922V112H659.32V106.32C659.32 104.586 658.211 103.57 656.539 103.57ZM665.25 112.156C667.656 112.156 669.078 110.938 669.078 108.945V103.727H666.852V108.805C666.852 109.797 666.164 110.25 665.25 110.25C664.344 110.25 663.664 109.797 663.664 108.805V103.727H661.445V108.945C661.445 110.938 662.859 112.156 665.25 112.156ZM676.102 103.57C675.008 103.57 674.148 104.086 673.602 104.891V103.727H671.367V112H673.602V107.297C673.609 106.039 674.297 105.438 675.242 105.438C676.102 105.438 676.719 105.82 676.719 107.141V112H678.961V106.742C678.961 104.672 677.867 103.57 676.102 103.57ZM682.422 102.406C683.117 102.406 683.703 101.828 683.703 101.117C683.703 100.406 683.117 99.8438 682.422 99.8438C681.711 99.8438 681.125 100.406 681.125 101.117C681.125 101.828 681.711 102.406 682.422 102.406ZM681.305 112H683.516V103.727H681.305V112ZM690.469 105.281V103.727H688.586V101.438H686.352V103.727H685.047V105.281H686.352V109.422C686.352 111.078 687.375 112 689.039 112H690.445V110.289H689.594C689 110.289 688.586 109.93 688.586 109.172V105.281H690.469ZM697.812 103.727L695.906 109.398L693.992 103.727H691.547L694.727 111.508L692.992 115.891H695.281L700.148 103.727H697.812ZM718.188 105.266H712.633V107.188H715.758C715.32 108.891 713.914 110 711.938 110C709.461 110 707.906 108.25 707.906 106.055C707.906 103.711 709.656 102 711.898 102C713.266 102 714.438 102.641 715.156 103.625L717.18 102.508C716.07 100.883 714.156 99.8438 711.906 99.8438C708.305 99.8438 705.57 102.492 705.57 106C705.57 109.508 708.305 112.156 711.906 112.156C715.516 112.156 718.242 109.508 718.242 105.984C718.242 105.719 718.219 105.469 718.188 105.266ZM723.914 112.156C726.477 112.156 728.438 110.352 728.438 107.859C728.438 105.375 726.477 103.57 723.914 103.57C721.344 103.57 719.391 105.375 719.391 107.859C719.391 110.352 721.344 112.156 723.914 112.156ZM723.906 110.242C722.578 110.242 721.523 109.273 721.523 107.859C721.523 106.461 722.578 105.477 723.906 105.477C725.227 105.477 726.297 106.477 726.297 107.859C726.297 109.25 725.227 110.242 723.906 110.242ZM735.594 103.727L733.492 109.477L731.406 103.727H729.031L732.57 112H734.406L737.969 103.727H735.594ZM747.211 107.773C747.172 105.227 745.336 103.555 742.953 103.555C740.406 103.555 738.562 105.469 738.562 107.867C738.562 110.258 740.367 112.156 743.031 112.156C744.797 112.156 746.172 111.32 746.836 109.977L745.07 109.234C744.641 109.984 743.875 110.383 743.023 110.383C741.82 110.383 740.844 109.57 740.75 108.211H747.188L747.211 107.773ZM742.977 105.195C744.031 105.195 744.828 105.812 744.992 106.852H740.828C741.086 105.82 741.898 105.195 742.977 105.195ZM751.117 105.312V103.727H748.992V112H751.219V108.047C751.219 106.398 752.234 105.773 753.969 105.773V103.648C752.531 103.727 751.555 104.547 751.117 105.312ZM760.211 103.57C759.117 103.57 758.258 104.086 757.711 104.891V103.727H755.477V112H757.711V107.297C757.719 106.039 758.406 105.438 759.352 105.438C760.211 105.438 760.828 105.82 760.828 107.141V112H763.07V106.742C763.07 104.672 761.977 103.57 760.211 103.57ZM773.352 107.773C773.312 105.227 771.477 103.555 769.094 103.555C766.547 103.555 764.703 105.469 764.703 107.867C764.703 110.258 766.508 112.156 769.172 112.156C770.938 112.156 772.312 111.32 772.977 109.977L771.211 109.234C770.781 109.984 770.016 110.383 769.164 110.383C767.961 110.383 766.984 109.57 766.891 108.211H773.328L773.352 107.773ZM769.117 105.195C770.172 105.195 770.969 105.812 771.133 106.852H766.969C767.227 105.82 768.039 105.195 769.117 105.195ZM778.461 112.172C779.695 112.172 780.609 111.68 781.203 110.945V112H783.438V100H781.211L781.203 104.773C780.609 104.023 779.688 103.531 778.461 103.531C776.297 103.531 774.453 105.352 774.453 107.844C774.453 110.344 776.297 112.172 778.461 112.172ZM779.07 110.273C777.734 110.273 776.68 109.289 776.68 107.844C776.68 106.406 777.734 105.43 779.07 105.43C780.398 105.43 781.445 106.406 781.445 107.844C781.445 109.289 780.398 110.273 779.07 110.273ZM800.789 100L797.367 108.211L793.977 100H790.82V112H793.148V103.102L796.766 112H797.977L801.609 103.117V112H803.938V100H800.789ZM810.102 112.172C811.336 112.172 812.25 111.68 812.844 110.945V112H815.078V103.727H812.852L812.844 104.773C812.25 104.023 811.328 103.531 810.102 103.531C807.938 103.531 806.094 105.352 806.094 107.844C806.094 110.344 807.938 112.172 810.102 112.172ZM810.711 110.273C809.375 110.273 808.32 109.289 808.32 107.844C808.32 106.406 809.375 105.43 810.711 105.43C812.039 105.43 813.086 106.406 813.086 107.844C813.086 109.289 812.039 110.273 810.711 110.273ZM819.711 105.312V103.727H817.586V112H819.812V108.047C819.812 106.398 820.828 105.773 822.562 105.773V103.648C821.125 103.727 820.148 104.547 819.711 105.312ZM832.57 112L828.523 107.602L832.125 103.727H829.43L826.297 107.211V100H824.07V112H826.297V108.094L829.742 112H832.57ZM841.445 107.773C841.406 105.227 839.57 103.555 837.188 103.555C834.641 103.555 832.797 105.469 832.797 107.867C832.797 110.258 834.602 112.156 837.266 112.156C839.031 112.156 840.406 111.32 841.07 109.977L839.305 109.234C838.875 109.984 838.109 110.383 837.258 110.383C836.055 110.383 835.078 109.57 834.984 108.211H841.422L841.445 107.773ZM837.211 105.195C838.266 105.195 839.062 105.812 839.227 106.852H835.062C835.32 105.82 836.133 105.195 837.211 105.195ZM847.656 105.281V103.727H845.773V101.438H843.539V103.727H842.234V105.281H843.539V109.422C843.539 111.078 844.562 112 846.227 112H847.633V110.289H846.781C846.188 110.289 845.773 109.93 845.773 109.172V105.281H847.656ZM852.188 112.156C854.031 112.156 855.398 111.273 855.398 109.492C855.398 107.797 854.141 107.289 853.016 106.93C852.062 106.625 851.211 106.461 851.211 105.875C851.211 105.438 851.609 105.203 852.188 105.203C852.781 105.203 853.625 105.484 854.219 105.891L855.18 104.43C854.32 103.875 853.258 103.57 852.242 103.57C850.57 103.57 849.125 104.383 849.125 106.102C849.125 107.75 850.453 108.195 851.57 108.562C852.477 108.867 853.242 109.055 853.242 109.688C853.242 110.195 852.812 110.469 852.172 110.469C851.367 110.469 850.336 110.031 849.664 109.5L848.727 111.094C849.609 111.703 850.875 112.156 852.188 112.156Z" fill="white"/>
<circle cx="582" cy="106" r="10" fill="#7B78FF"/>
<path d="M578 106.429L580.4 109L586 103" stroke="white" stroke-width="2" stroke-linecap="round" stroke-linejoin="round"/>
<rect x="552" y="152" width="271" height="60" rx="29" fill="url(#paint3_linear)"/>
<path d="M615.703 176H610.57V188H612.898V183.641H615.703C618.109 183.641 619.656 182.008 619.656 179.852C619.656 177.727 618.109 176 615.703 176ZM615.352 181.672H612.898V177.961H615.352C616.695 177.961 617.398 178.727 617.398 179.828C617.398 180.977 616.695 181.672 615.352 181.672ZM623.648 181.312V179.727H621.523V188H623.75V184.047C623.75 182.398 624.766 181.773 626.5 181.773V179.648C625.062 179.727 624.086 180.547 623.648 181.312ZM631.758 188.156C634.32 188.156 636.281 186.352 636.281 183.859C636.281 181.375 634.32 179.57 631.758 179.57C629.188 179.57 627.234 181.375 627.234 183.859C627.234 186.352 629.188 188.156 631.758 188.156ZM631.75 186.242C630.422 186.242 629.367 185.273 629.367 183.859C629.367 182.461 630.422 181.477 631.75 181.477C633.07 181.477 634.141 182.477 634.141 183.859C634.141 185.25 633.07 186.242 631.75 186.242ZM642.516 181.281V179.727H640.633V177.438H638.398V179.727H637.094V181.281H638.398V185.422C638.398 187.078 639.422 188 641.086 188H642.492V186.289H641.641C641.047 186.289 640.633 185.93 640.633 185.172V181.281H642.516ZM648.148 188.156C650.711 188.156 652.672 186.352 652.672 183.859C652.672 181.375 650.711 179.57 648.148 179.57C645.578 179.57 643.625 181.375 643.625 183.859C643.625 186.352 645.578 188.156 648.148 188.156ZM648.141 186.242C646.812 186.242 645.758 185.273 645.758 183.859C645.758 182.461 646.812 181.477 648.141 181.477C649.461 181.477 650.531 182.477 650.531 183.859C650.531 185.25 649.461 186.242 648.141 186.242ZM658.289 188.141C659.742 188.141 661.008 187.547 661.82 186.586L660.234 185.25C659.805 185.859 659.109 186.234 658.281 186.234C656.938 186.234 655.898 185.266 655.898 183.859C655.898 182.445 656.938 181.477 658.281 181.477C659.109 181.477 659.805 181.852 660.234 182.461L661.82 181.125C661.008 180.164 659.742 179.57 658.289 179.57C655.719 179.57 653.766 181.367 653.766 183.859C653.766 186.344 655.719 188.141 658.289 188.141ZM667.195 188.156C669.758 188.156 671.719 186.352 671.719 183.859C671.719 181.375 669.758 179.57 667.195 179.57C664.625 179.57 662.672 181.375 662.672 183.859C662.672 186.352 664.625 188.156 667.195 188.156ZM667.188 186.242C665.859 186.242 664.805 185.273 664.805 183.859C664.805 182.461 665.859 181.477 667.188 181.477C668.508 181.477 669.578 182.477 669.578 183.859C669.578 185.25 668.508 186.242 667.188 186.242ZM673.523 188H675.75V176H673.523V188ZM676.93 191.102H679.047L686.836 176H684.727L676.93 191.102ZM690.68 185.93V176H688.352V188H694.766V185.93H690.68ZM701.922 176H696.789V188H699.117V183.641H701.922C704.328 183.641 705.875 182.008 705.875 179.852C705.875 177.727 704.328 176 701.922 176ZM701.57 181.672H699.117V177.961H701.57C702.914 177.961 703.617 178.727 703.617 179.828C703.617 180.977 702.914 181.672 701.57 181.672ZM710.391 188.156C712.234 188.156 713.602 187.273 713.602 185.492C713.602 183.797 712.344 183.289 711.219 182.93C710.266 182.625 709.414 182.461 709.414 181.875C709.414 181.438 709.812 181.203 710.391 181.203C710.984 181.203 711.828 181.484 712.422 181.891L713.383 180.43C712.523 179.875 711.461 179.57 710.445 179.57C708.773 179.57 707.328 180.383 707.328 182.102C707.328 183.75 708.656 184.195 709.773 184.562C710.68 184.867 711.445 185.055 711.445 185.688C711.445 186.195 711.016 186.469 710.375 186.469C709.57 186.469 708.539 186.031 707.867 185.5L706.93 187.094C707.812 187.703 709.078 188.156 710.391 188.156ZM727.562 178.07V176H720.305V188H722.633V183.023H726.891V180.977H722.633V178.07H727.562ZM737.055 183.773C737.016 181.227 735.18 179.555 732.797 179.555C730.25 179.555 728.406 181.469 728.406 183.867C728.406 186.258 730.211 188.156 732.875 188.156C734.641 188.156 736.016 187.32 736.68 185.977L734.914 185.234C734.484 185.984 733.719 186.383 732.867 186.383C731.664 186.383 730.688 185.57 730.594 184.211H737.031L737.055 183.773ZM732.82 181.195C733.875 181.195 734.672 181.812 734.836 182.852H730.672C730.93 181.82 731.742 181.195 732.82 181.195ZM746.773 183.773C746.734 181.227 744.898 179.555 742.516 179.555C739.969 179.555 738.125 181.469 738.125 183.867C738.125 186.258 739.93 188.156 742.594 188.156C744.359 188.156 745.734 187.32 746.398 185.977L744.633 185.234C744.203 185.984 743.438 186.383 742.586 186.383C741.383 186.383 740.406 185.57 740.312 184.211H746.75L746.773 183.773ZM742.539 181.195C743.594 181.195 744.391 181.812 744.555 182.852H740.391C740.648 181.82 741.461 181.195 742.539 181.195ZM751.203 188.156C753.047 188.156 754.414 187.273 754.414 185.492C754.414 183.797 753.156 183.289 752.031 182.93C751.078 182.625 750.227 182.461 750.227 181.875C750.227 181.438 750.625 181.203 751.203 181.203C751.797 181.203 752.641 181.484 753.234 181.891L754.195 180.43C753.336 179.875 752.273 179.57 751.258 179.57C749.586 179.57 748.141 180.383 748.141 182.102C748.141 183.75 749.469 184.195 750.586 184.562C751.492 184.867 752.258 185.055 752.258 185.688C752.258 186.195 751.828 186.469 751.188 186.469C750.383 186.469 749.352 186.031 748.68 185.5L747.742 187.094C748.625 187.703 749.891 188.156 751.203 188.156Z" fill="white"/>
<circle cx="582" cy="182" r="10" fill="#7B78FF"/>
<path d="M578 182.429L580.4 185L586 179" stroke="white" stroke-width="2" stroke-linecap="round" stroke-linejoin="round"/>
<rect x="552" y="228" width="271" height="60" rx="29" fill="url(#paint4_linear)"/>
<path d="M614.07 264.148C616.211 264.148 618.023 262.992 618.023 260.695C618.023 258.461 616.312 257.602 614.734 256.906C613.352 256.312 612.32 255.93 612.32 254.953C612.32 254.203 612.922 253.82 613.68 253.82C614.539 253.82 615.586 254.234 616.461 255.086L617.688 253.422C616.594 252.445 615.211 251.844 613.734 251.844C611.688 251.844 610.031 253.062 610.031 255.188C610.031 257.305 611.688 258.086 613.258 258.773C614.625 259.375 615.695 259.773 615.695 260.844C615.695 261.695 615.016 262.18 614.078 262.18C612.977 262.18 611.703 261.508 610.891 260.562L609.547 262.242C610.68 263.422 612.398 264.148 614.07 264.148ZM624.406 257.281V255.727H622.523V253.438H620.289V255.727H618.984V257.281H620.289V261.422C620.289 263.078 621.312 264 622.977 264H624.383V262.289H623.531C622.938 262.289 622.523 261.93 622.523 261.172V257.281H624.406ZM628.414 257.312V255.727H626.289V264H628.516V260.047C628.516 258.398 629.531 257.773 631.266 257.773V255.648C629.828 255.727 628.852 256.547 628.414 257.312ZM636.039 264.172C637.273 264.172 638.188 263.68 638.781 262.945V264H641.016V255.727H638.789L638.781 256.773C638.188 256.023 637.266 255.531 636.039 255.531C633.875 255.531 632.031 257.352 632.031 259.844C632.031 262.344 633.875 264.172 636.039 264.172ZM636.648 262.273C635.312 262.273 634.258 261.289 634.258 259.844C634.258 258.406 635.312 257.43 636.648 257.43C637.977 257.43 639.023 258.406 639.023 259.844C639.023 261.289 637.977 262.273 636.648 262.273ZM647.953 257.281V255.727H646.07V253.438H643.836V255.727H642.531V257.281H643.836V261.422C643.836 263.078 644.859 264 646.523 264H647.93V262.289H647.078C646.484 262.289 646.07 261.93 646.07 261.172V257.281H647.953ZM657.711 259.773C657.672 257.227 655.836 255.555 653.453 255.555C650.906 255.555 649.062 257.469 649.062 259.867C649.062 262.258 650.867 264.156 653.531 264.156C655.297 264.156 656.672 263.32 657.336 261.977L655.57 261.234C655.141 261.984 654.375 262.383 653.523 262.383C652.32 262.383 651.344 261.57 651.25 260.211H657.688L657.711 259.773ZM653.477 257.195C654.531 257.195 655.328 257.812 655.492 258.852H651.328C651.586 257.82 652.398 257.195 653.477 257.195ZM663.094 267.891C665.922 267.891 667.602 266.305 667.602 263.555V255.727H665.367V256.797C664.805 256.062 663.961 255.57 662.758 255.57C660.547 255.57 658.797 257.281 658.797 259.719C658.797 262.156 660.547 263.914 662.789 263.914C663.977 263.914 664.82 263.43 665.367 262.711V263.758C665.367 265.242 664.547 266.094 663.055 266.094C662.148 266.094 661.156 265.781 660.391 264.672L658.961 265.953C660.172 267.484 661.703 267.891 663.094 267.891ZM663.281 262.016C662.023 262.016 661.023 261.094 661.023 259.719C661.023 258.344 662.023 257.414 663.281 257.414C664.539 257.414 665.547 258.344 665.547 259.719C665.547 261.094 664.539 262.016 663.281 262.016ZM671.234 254.406C671.93 254.406 672.516 253.828 672.516 253.117C672.516 252.406 671.93 251.844 671.234 251.844C670.523 251.844 669.938 252.406 669.938 253.117C669.938 253.828 670.523 254.406 671.234 254.406ZM670.117 264H672.328V255.727H670.117V264ZM678.664 264.141C680.117 264.141 681.383 263.547 682.195 262.586L680.609 261.25C680.18 261.859 679.484 262.234 678.656 262.234C677.312 262.234 676.273 261.266 676.273 259.859C676.273 258.445 677.312 257.477 678.656 257.477C679.484 257.477 680.18 257.852 680.609 258.461L682.195 257.125C681.383 256.164 680.117 255.57 678.664 255.57C676.094 255.57 674.141 257.367 674.141 259.859C674.141 262.344 676.094 264.141 678.664 264.141ZM693.75 252H688.617V264H690.945V259.641H693.75C696.156 259.641 697.703 258.008 697.703 255.852C697.703 253.727 696.156 252 693.75 252ZM693.398 257.672H690.945V253.961H693.398C694.742 253.961 695.445 254.727 695.445 255.828C695.445 256.977 694.742 257.672 693.398 257.672ZM702.227 264.172C703.461 264.172 704.375 263.68 704.969 262.945V264H707.203V255.727H704.977L704.969 256.773C704.375 256.023 703.453 255.531 702.227 255.531C700.062 255.531 698.219 257.352 698.219 259.844C698.219 262.344 700.062 264.172 702.227 264.172ZM702.836 262.273C701.5 262.273 700.445 261.289 700.445 259.844C700.445 258.406 701.5 257.43 702.836 257.43C704.164 257.43 705.211 258.406 705.211 259.844C705.211 261.289 704.164 262.273 702.836 262.273ZM711.836 257.312V255.727H709.711V264H711.938V260.047C711.938 258.398 712.953 257.773 714.688 257.773V255.648C713.25 255.727 712.273 256.547 711.836 257.312ZM721.156 257.281V255.727H719.273V253.438H717.039V255.727H715.734V257.281H717.039V261.422C717.039 263.078 718.062 264 719.727 264H721.133V262.289H720.281C719.688 262.289 719.273 261.93 719.273 261.172V257.281H721.156ZM727.773 255.57C726.68 255.57 725.82 256.086 725.273 256.891V255.727H723.039V264H725.273V259.297C725.281 258.039 725.969 257.438 726.914 257.438C727.773 257.438 728.391 257.82 728.391 259.141V264H730.633V258.742C730.633 256.672 729.539 255.57 727.773 255.57ZM740.914 259.773C740.875 257.227 739.039 255.555 736.656 255.555C734.109 255.555 732.266 257.469 732.266 259.867C732.266 262.258 734.07 264.156 736.734 264.156C738.5 264.156 739.875 263.32 740.539 261.977L738.773 261.234C738.344 261.984 737.578 262.383 736.727 262.383C735.523 262.383 734.547 261.57 734.453 260.211H740.891L740.914 259.773ZM736.68 257.195C737.734 257.195 738.531 257.812 738.695 258.852H734.531C734.789 257.82 735.602 257.195 736.68 257.195ZM744.82 257.312V255.727H742.695V264H744.922V260.047C744.922 258.398 745.938 257.773 747.672 257.773V255.648C746.234 255.727 745.258 256.547 744.82 257.312ZM751.828 264.156C753.672 264.156 755.039 263.273 755.039 261.492C755.039 259.797 753.781 259.289 752.656 258.93C751.703 258.625 750.852 258.461 750.852 257.875C750.852 257.438 751.25 257.203 751.828 257.203C752.422 257.203 753.266 257.484 753.859 257.891L754.82 256.43C753.961 255.875 752.898 255.57 751.883 255.57C750.211 255.57 748.766 256.383 748.766 258.102C748.766 259.75 750.094 260.195 751.211 260.562C752.117 260.867 752.883 261.055 752.883 261.688C752.883 262.195 752.453 262.469 751.812 262.469C751.008 262.469 749.977 262.031 749.305 261.5L748.367 263.094C749.25 263.703 750.516 264.156 751.828 264.156ZM761.602 255.57C760.508 255.57 759.648 256.078 759.094 256.914V252H756.883V264H759.094V259.289C759.102 258.039 759.773 257.438 760.773 257.438C761.586 257.438 762.242 257.828 762.242 259.141V264H764.453V258.742C764.453 256.672 763.359 255.57 761.602 255.57ZM767.906 254.406C768.602 254.406 769.188 253.828 769.188 253.117C769.188 252.406 768.602 251.844 767.906 251.844C767.195 251.844 766.609 252.406 766.609 253.117C766.609 253.828 767.195 254.406 767.906 254.406ZM766.789 264H769V255.727H766.789V264ZM771.523 267.891H773.75V262.945C774.375 263.719 775.328 264.156 776.469 264.156C778.68 264.156 780.508 262.375 780.508 259.875C780.508 257.383 778.672 255.57 776.469 255.57C775.242 255.57 774.312 256.086 773.75 256.789V255.727H771.523V267.891ZM775.898 262.305C774.562 262.305 773.516 261.32 773.516 259.875C773.516 258.438 774.562 257.453 775.898 257.453C777.227 257.453 778.281 258.438 778.281 259.875C778.281 261.32 777.227 262.305 775.898 262.305ZM785 264.156C786.844 264.156 788.211 263.273 788.211 261.492C788.211 259.797 786.953 259.289 785.828 258.93C784.875 258.625 784.023 258.461 784.023 257.875C784.023 257.438 784.422 257.203 785 257.203C785.594 257.203 786.438 257.484 787.031 257.891L787.992 256.43C787.133 255.875 786.07 255.57 785.055 255.57C783.383 255.57 781.938 256.383 781.938 258.102C781.938 259.75 783.266 260.195 784.383 260.562C785.289 260.867 786.055 261.055 786.055 261.688C786.055 262.195 785.625 262.469 784.984 262.469C784.18 262.469 783.148 262.031 782.477 261.5L781.539 263.094C782.422 263.703 783.688 264.156 785 264.156Z" fill="white"/>
<circle cx="582" cy="258" r="10" fill="#7B78FF"/>
<path d="M578 258.429L580.4 261L586 255" stroke="white" stroke-width="2" stroke-linecap="round" stroke-linejoin="round"/>
<rect x="552" y="304" width="271" height="60" rx="29" fill="url(#paint5_linear)"/>
<path d="M617.828 330.07V328H610.57V340H612.898V335.023H617.156V332.977H612.898V330.07H617.828ZM623.281 340.156C625.688 340.156 627.109 338.938 627.109 336.945V331.727H624.883V336.805C624.883 337.797 624.195 338.25 623.281 338.25C622.375 338.25 621.695 337.797 621.695 336.805V331.727H619.477V336.945C619.477 338.938 620.891 340.156 623.281 340.156ZM633.828 333.281V331.727H631.945V329.438H629.711V331.727H628.406V333.281H629.711V337.422C629.711 339.078 630.734 340 632.398 340H633.805V338.289H632.953C632.359 338.289 631.945 337.93 631.945 337.172V333.281H633.828ZM639.281 340.156C641.688 340.156 643.109 338.938 643.109 336.945V331.727H640.883V336.805C640.883 337.797 640.195 338.25 639.281 338.25C638.375 338.25 637.695 337.797 637.695 336.805V331.727H635.477V336.945C635.477 338.938 636.891 340.156 639.281 340.156ZM647.523 333.312V331.727H645.398V340H647.625V336.047C647.625 334.398 648.641 333.773 650.375 333.773V331.648C648.938 331.727 647.961 332.547 647.523 333.312ZM659.758 335.773C659.719 333.227 657.883 331.555 655.5 331.555C652.953 331.555 651.109 333.469 651.109 335.867C651.109 338.258 652.914 340.156 655.578 340.156C657.344 340.156 658.719 339.32 659.383 337.977L657.617 337.234C657.188 337.984 656.422 338.383 655.57 338.383C654.367 338.383 653.391 337.57 653.297 336.211H659.734L659.758 335.773ZM655.523 333.195C656.578 333.195 657.375 333.812 657.539 334.852H653.375C653.633 333.82 654.445 333.195 655.523 333.195ZM671.531 328H666.398V340H668.727V335.641H671.531C673.938 335.641 675.484 334.008 675.484 331.852C675.484 329.727 673.938 328 671.531 328ZM671.18 333.672H668.727V329.961H671.18C672.523 329.961 673.227 330.727 673.227 331.828C673.227 332.977 672.523 333.672 671.18 333.672ZM679.477 333.312V331.727H677.352V340H679.578V336.047C679.578 334.398 680.594 333.773 682.328 333.773V331.648C680.891 331.727 679.914 332.547 679.477 333.312ZM687.586 340.156C690.148 340.156 692.109 338.352 692.109 335.859C692.109 333.375 690.148 331.57 687.586 331.57C685.016 331.57 683.062 333.375 683.062 335.859C683.062 338.352 685.016 340.156 687.586 340.156ZM687.578 338.242C686.25 338.242 685.195 337.273 685.195 335.859C685.195 334.461 686.25 333.477 687.578 333.477C688.898 333.477 689.969 334.477 689.969 335.859C689.969 337.25 688.898 338.242 687.578 338.242ZM697.242 340.172C698.477 340.172 699.391 339.68 699.984 338.945V340H702.219V328H699.992L699.984 332.773C699.391 332.023 698.469 331.531 697.242 331.531C695.078 331.531 693.234 333.352 693.234 335.844C693.234 338.344 695.078 340.172 697.242 340.172ZM697.852 338.273C696.516 338.273 695.461 337.289 695.461 335.844C695.461 334.406 696.516 333.43 697.852 333.43C699.18 333.43 700.227 334.406 700.227 335.844C700.227 337.289 699.18 338.273 697.852 338.273ZM708.312 340.156C710.719 340.156 712.141 338.938 712.141 336.945V331.727H709.914V336.805C709.914 337.797 709.227 338.25 708.312 338.25C707.406 338.25 706.727 337.797 706.727 336.805V331.727H704.508V336.945C704.508 338.938 705.922 340.156 708.312 340.156ZM718.242 340.141C719.695 340.141 720.961 339.547 721.773 338.586L720.188 337.25C719.758 337.859 719.062 338.234 718.234 338.234C716.891 338.234 715.852 337.266 715.852 335.859C715.852 334.445 716.891 333.477 718.234 333.477C719.062 333.477 719.758 333.852 720.188 334.461L721.773 333.125C720.961 332.164 719.695 331.57 718.242 331.57C715.672 331.57 713.719 333.367 713.719 335.859C713.719 338.344 715.672 340.141 718.242 340.141ZM727.766 333.281V331.727H725.883V329.438H723.648V331.727H722.344V333.281H723.648V337.422C723.648 339.078 724.672 340 726.336 340H727.742V338.289H726.891C726.297 338.289 725.883 337.93 725.883 337.172V333.281H727.766ZM732.297 340.156C734.141 340.156 735.508 339.273 735.508 337.492C735.508 335.797 734.25 335.289 733.125 334.93C732.172 334.625 731.32 334.461 731.32 333.875C731.32 333.438 731.719 333.203 732.297 333.203C732.891 333.203 733.734 333.484 734.328 333.891L735.289 332.43C734.43 331.875 733.367 331.57 732.352 331.57C730.68 331.57 729.234 332.383 729.234 334.102C729.234 335.75 730.562 336.195 731.68 336.562C732.586 336.867 733.352 337.055 733.352 337.688C733.352 338.195 732.922 338.469 732.281 338.469C731.477 338.469 730.445 338.031 729.773 337.5L728.836 339.094C729.719 339.703 730.984 340.156 732.297 340.156Z" fill="white"/>
<circle cx="582" cy="334" r="10" fill="#7B78FF"/>
<path d="M578 334.429L580.4 337L586 331" stroke="white" stroke-width="2" stroke-linecap="round" stroke-linejoin="round"/>
<rect x="552" y="380" width="271" height="60" rx="29" fill="url(#paint6_linear)"/>
<path d="M610.57 416H614.68C618.664 416 620.773 413.633 620.773 410C620.773 406.367 618.664 404 614.68 404H610.57V416ZM612.891 413.93V406.07H614.578C617.125 406.07 618.359 407.461 618.359 410C618.359 412.539 617.125 413.93 614.578 413.93H612.891ZM626.18 416.172C627.414 416.172 628.328 415.68 628.922 414.945V416H631.156V407.727H628.93L628.922 408.773C628.328 408.023 627.406 407.531 626.18 407.531C624.016 407.531 622.172 409.352 622.172 411.844C622.172 414.344 624.016 416.172 626.18 416.172ZM626.789 414.273C625.453 414.273 624.398 413.289 624.398 411.844C624.398 410.406 625.453 409.43 626.789 409.43C628.117 409.43 629.164 410.406 629.164 411.844C629.164 413.289 628.117 414.273 626.789 414.273ZM637.477 416.156C640.039 416.156 642 414.352 642 411.859C642 409.375 640.039 407.57 637.477 407.57C634.906 407.57 632.953 409.375 632.953 411.859C632.953 414.352 634.906 416.156 637.477 416.156ZM637.469 414.242C636.141 414.242 635.086 413.273 635.086 411.859C635.086 410.461 636.141 409.477 637.469 409.477C638.789 409.477 639.859 410.477 639.859 411.859C639.859 413.25 638.789 414.242 637.469 414.242ZM655.922 406.07V404H648.664V416H650.992V411.023H655.25V408.977H650.992V406.07H655.922ZM661.375 416.156C663.781 416.156 665.203 414.938 665.203 412.945V407.727H662.977V412.805C662.977 413.797 662.289 414.25 661.375 414.25C660.469 414.25 659.789 413.797 659.789 412.805V407.727H657.57V412.945C657.57 414.938 658.984 416.156 661.375 416.156ZM672.227 407.57C671.133 407.57 670.273 408.086 669.727 408.891V407.727H667.492V416H669.727V411.297C669.734 410.039 670.422 409.438 671.367 409.438C672.227 409.438 672.844 409.82 672.844 411.141V416H675.086V410.742C675.086 408.672 673.992 407.57 672.227 407.57ZM680.758 416.172C681.992 416.172 682.906 415.68 683.5 414.945V416H685.734V404H683.508L683.5 408.773C682.906 408.023 681.984 407.531 680.758 407.531C678.594 407.531 676.75 409.352 676.75 411.844C676.75 414.344 678.594 416.172 680.758 416.172ZM681.367 414.273C680.031 414.273 678.977 413.289 678.977 411.844C678.977 410.406 680.031 409.43 681.367 409.43C682.695 409.43 683.742 410.406 683.742 411.844C683.742 413.289 682.695 414.273 681.367 414.273ZM703.086 404L699.664 412.211L696.273 404H693.117V416H695.445V407.102L699.062 416H700.273L703.906 407.117V416H706.234V404H703.086ZM712.398 416.172C713.633 416.172 714.547 415.68 715.141 414.945V416H717.375V407.727H715.148L715.141 408.773C714.547 408.023 713.625 407.531 712.398 407.531C710.234 407.531 708.391 409.352 708.391 411.844C708.391 414.344 710.234 416.172 712.398 416.172ZM713.008 414.273C711.672 414.273 710.617 413.289 710.617 411.844C710.617 410.406 711.672 409.43 713.008 409.43C714.336 409.43 715.383 410.406 715.383 411.844C715.383 413.289 714.336 414.273 713.008 414.273ZM724.617 407.57C723.523 407.57 722.664 408.086 722.117 408.891V407.727H719.883V416H722.117V411.297C722.125 410.039 722.812 409.438 723.758 409.438C724.617 409.438 725.234 409.82 725.234 411.141V416H727.477V410.742C727.477 408.672 726.383 407.57 724.617 407.57ZM733.148 416.172C734.383 416.172 735.297 415.68 735.891 414.945V416H738.125V407.727H735.898L735.891 408.773C735.297 408.023 734.375 407.531 733.148 407.531C730.984 407.531 729.141 409.352 729.141 411.844C729.141 414.344 730.984 416.172 733.148 416.172ZM733.758 414.273C732.422 414.273 731.367 413.289 731.367 411.844C731.367 410.406 732.422 409.43 733.758 409.43C735.086 409.43 736.133 410.406 736.133 411.844C736.133 413.289 735.086 414.273 733.758 414.273ZM744.234 419.891C747.062 419.891 748.742 418.305 748.742 415.555V407.727H746.508V408.797C745.945 408.062 745.102 407.57 743.898 407.57C741.688 407.57 739.938 409.281 739.938 411.719C739.938 414.156 741.688 415.914 743.93 415.914C745.117 415.914 745.961 415.43 746.508 414.711V415.758C746.508 417.242 745.688 418.094 744.195 418.094C743.289 418.094 742.297 417.781 741.531 416.672L740.102 417.953C741.312 419.484 742.844 419.891 744.234 419.891ZM744.422 414.016C743.164 414.016 742.164 413.094 742.164 411.719C742.164 410.344 743.164 409.414 744.422 409.414C745.68 409.414 746.688 410.344 746.688 411.719C746.688 413.094 745.68 414.016 744.422 414.016ZM759.195 411.773C759.156 409.227 757.32 407.555 754.938 407.555C752.391 407.555 750.547 409.469 750.547 411.867C750.547 414.258 752.352 416.156 755.016 416.156C756.781 416.156 758.156 415.32 758.82 413.977L757.055 413.234C756.625 413.984 755.859 414.383 755.008 414.383C753.805 414.383 752.828 413.57 752.734 412.211H759.172L759.195 411.773ZM754.961 409.195C756.016 409.195 756.812 409.812 756.977 410.852H752.812C753.07 409.82 753.883 409.195 754.961 409.195ZM770.414 407.57C769.352 407.57 768.492 408.086 767.922 408.898C767.508 407.984 766.664 407.57 765.594 407.57C764.547 407.57 763.734 408.086 763.203 408.906V407.727H760.977V416H763.203V411.031C763.203 410.055 763.727 409.414 764.625 409.414C765.414 409.414 765.969 409.914 765.969 410.922V416H768.203V411.031C768.203 410.055 768.727 409.414 769.625 409.414C770.406 409.414 770.969 409.914 770.969 410.922V416H773.195V410.32C773.195 408.586 772.086 407.57 770.414 407.57ZM783.492 411.773C783.453 409.227 781.617 407.555 779.234 407.555C776.688 407.555 774.844 409.469 774.844 411.867C774.844 414.258 776.648 416.156 779.312 416.156C781.078 416.156 782.453 415.32 783.117 413.977L781.352 413.234C780.922 413.984 780.156 414.383 779.305 414.383C778.102 414.383 777.125 413.57 777.031 412.211H783.469L783.492 411.773ZM779.258 409.195C780.312 409.195 781.109 409.812 781.273 410.852H777.109C777.367 409.82 778.18 409.195 779.258 409.195ZM790.008 407.57C788.914 407.57 788.055 408.086 787.508 408.891V407.727H785.273V416H787.508V411.297C787.516 410.039 788.203 409.438 789.148 409.438C790.008 409.438 790.625 409.82 790.625 411.141V416H792.867V410.742C792.867 408.672 791.773 407.57 790.008 407.57ZM799.641 409.281V407.727H797.758V405.438H795.523V407.727H794.219V409.281H795.523V413.422C795.523 415.078 796.547 416 798.211 416H799.617V414.289H798.766C798.172 414.289 797.758 413.93 797.758 413.172V409.281H799.641Z" fill="white"/>
<circle cx="582" cy="410" r="10" fill="#7B78FF"/>
<path d="M578 410.429L580.4 413L586 407" stroke="white" stroke-width="2" stroke-linecap="round" stroke-linejoin="round"/>
<line x1="250" y1="219" x2="339" y2="219" stroke="url(#paint7_linear)" stroke-width="2" stroke-linecap="round" stroke-linejoin="round"/>
<path d="M453 219H475.769C486.815 219 495.769 210.046 495.769 199V53C495.769 41.9543 504.724 33 515.769 33H538" stroke="url(#paint8_linear)" stroke-width="2" stroke-linecap="round" stroke-linejoin="round"/>
<path d="M453 219H475.769C486.815 219 495.769 227.954 495.769 239V385C495.769 396.046 504.724 405 515.769 405H538" stroke="url(#paint9_linear)" stroke-width="2" stroke-linecap="round" stroke-linejoin="round"/>
<path d="M453 219H475.769C486.815 219 495.769 210.046 495.769 199V126C495.769 114.954 504.724 106 515.769 106H538" stroke="url(#paint10_linear)" stroke-width="2" stroke-linecap="round" stroke-linejoin="round"/>
<path d="M453 219H475.769C486.815 219 495.769 227.954 495.769 239V312C495.769 323.046 504.724 332 515.769 332H538" stroke="url(#paint11_linear)" stroke-width="2" stroke-linecap="round" stroke-linejoin="round"/>
<path d="M453 219H477.269C487.487 219 495.769 210.717 495.769 200.5V200.5C495.769 190.283 504.052 182 514.269 182H538" stroke="url(#paint12_linear)" stroke-width="2" stroke-linecap="round" stroke-linejoin="round"/>
<path d="M453 219H477.269C487.487 219 495.769 227.283 495.769 237.5V237.5C495.769 247.717 504.052 256 514.269 256H538" stroke="url(#paint13_linear)" stroke-width="2" stroke-linecap="round" stroke-linejoin="round"/>
<defs>
<linearGradient id="paint0_linear" x1="342" y1="220.061" x2="470.241" y2="220.061" gradientUnits="userSpaceOnUse">
<stop stop-color="#A0D2EB" stop-opacity="0.24"/>
<stop offset="1" stop-opacity="0"/>
</linearGradient>
<linearGradient id="paint1_linear" x1="552" y1="30.0965" x2="886.165" y2="30.0965" gradientUnits="userSpaceOnUse">
<stop stop-color="#7B78FF" stop-opacity="0.25"/>
<stop offset="1" stop-opacity="0"/>
</linearGradient>
<linearGradient id="paint2_linear" x1="552" y1="106.096" x2="886.165" y2="106.096" gradientUnits="userSpaceOnUse">
<stop stop-color="#7B78FF" stop-opacity="0.25"/>
<stop offset="1" stop-opacity="0"/>
</linearGradient>
<linearGradient id="paint3_linear" x1="552" y1="182.096" x2="886.165" y2="182.096" gradientUnits="userSpaceOnUse">
<stop stop-color="#7B78FF" stop-opacity="0.25"/>
<stop offset="1" stop-opacity="0"/>
</linearGradient>
<linearGradient id="paint4_linear" x1="552" y1="258.096" x2="886.165" y2="258.096" gradientUnits="userSpaceOnUse">
<stop stop-color="#7B78FF" stop-opacity="0.25"/>
<stop offset="1" stop-opacity="0"/>
</linearGradient>
<linearGradient id="paint5_linear" x1="552" y1="334.096" x2="886.165" y2="334.096" gradientUnits="userSpaceOnUse">
<stop stop-color="#7B78FF" stop-opacity="0.25"/>
<stop offset="1" stop-opacity="0"/>
</linearGradient>
<linearGradient id="paint6_linear" x1="552" y1="410.096" x2="886.165" y2="410.096" gradientUnits="userSpaceOnUse">
<stop stop-color="#7B78FF" stop-opacity="0.25"/>
<stop offset="1" stop-opacity="0"/>
</linearGradient>
<linearGradient id="paint7_linear" x1="253" y1="220" x2="337.5" y2="220" gradientUnits="userSpaceOnUse">
<stop stop-color="white"/>
<stop offset="1" stop-color="#394763"/>
</linearGradient>
<linearGradient id="paint8_linear" x1="457.024" y1="220.003" x2="542.024" y2="220.003" gradientUnits="userSpaceOnUse">
<stop stop-color="#36435F"/>
<stop offset="1" stop-color="#313369"/>
</linearGradient>
<linearGradient id="paint9_linear" x1="457.024" y1="217.997" x2="542.024" y2="217.997" gradientUnits="userSpaceOnUse">
<stop stop-color="#36435F"/>
<stop offset="1" stop-color="#313369"/>
</linearGradient>
<linearGradient id="paint10_linear" x1="457.024" y1="219.609" x2="542.024" y2="219.609" gradientUnits="userSpaceOnUse">
<stop stop-color="#36435F"/>
<stop offset="1" stop-color="#313369"/>
</linearGradient>
<linearGradient id="paint11_linear" x1="457.024" y1="218.391" x2="542.024" y2="218.391" gradientUnits="userSpaceOnUse">
<stop stop-color="#36435F"/>
<stop offset="1" stop-color="#313369"/>
</linearGradient>
<linearGradient id="paint12_linear" x1="457.024" y1="219.2" x2="542.024" y2="219.2" gradientUnits="userSpaceOnUse">
<stop stop-color="#36435F"/>
<stop offset="1" stop-color="#313369"/>
</linearGradient>
<linearGradient id="paint13_linear" x1="457.024" y1="218.8" x2="542.024" y2="218.8" gradientUnits="userSpaceOnUse">
<stop stop-color="#36435F"/>
<stop offset="1" stop-color="#313369"/>
</linearGradient>
<clipPath id="clip0">
<rect width="97.1613" height="114.974" fill="white" transform="translate(98.0198 162.723)"/>
</clipPath>
</defs>
</svg>
