<svg width="859" height="295" viewBox="0 0 859 295" fill="none" xmlns="http://www.w3.org/2000/svg">
<circle cx="147.5" cy="147.5" r="115" stroke="white" stroke-opacity="0.2"/>
<circle cx="147.5" cy="147.5" r="131" stroke="white" stroke-opacity="0.1"/>
<circle cx="147.5" cy="147.5" r="147" stroke="white" stroke-opacity="0.05"/>
<circle cx="146.6" cy="146.4" r="100.4" fill="white"/>
<g clip-path="url(#clip0)">
<path d="M195.181 99.5148V105.676C195.181 109.912 194.084 113.928 192.054 117.449L174.937 147.265L157.052 116.183C152.772 108.757 140.428 108.757 136.149 116.183L118.264 147.155L101.257 117.559C99.1719 113.928 98.0198 109.802 98.0198 105.676V99.5148C98.0198 94.1237 102.409 89.7228 107.785 89.7228H185.416C190.792 89.7228 195.181 94.1237 195.181 99.5148Z" fill="#7B78FF"/>
<path d="M174.937 147.265L157.052 178.236C154.912 181.977 150.907 184.288 146.573 184.288C142.239 184.288 138.289 181.922 136.094 178.236L118.209 147.155L136.094 116.183C140.374 108.757 152.718 108.757 156.997 116.183L174.937 147.265Z" fill="#12429F"/>
<path d="M195.181 188.689V194.85C195.181 200.241 190.792 204.642 185.416 204.642H107.785C102.409 204.697 98.0198 200.296 98.0198 194.905V188.634C98.0198 184.508 99.117 180.492 101.147 176.971L118.264 147.155L136.149 178.237C138.289 181.977 142.294 184.288 146.628 184.288C150.962 184.288 154.912 181.922 157.107 178.237L174.992 147.265L191.999 176.861C194.084 180.492 195.181 184.618 195.181 188.689Z" fill="#A0D2EB"/>
</g>
<rect x="342" y="128" width="104" height="38" rx="19" fill="url(#paint0_linear)"/>
<path d="M369.179 146.107H364.318V147.789H367.053C366.67 149.279 365.439 150.25 363.71 150.25C361.543 150.25 360.183 148.719 360.183 146.798C360.183 144.747 361.714 143.25 363.676 143.25C364.872 143.25 365.897 143.811 366.526 144.672L368.297 143.694C367.326 142.272 365.651 141.363 363.683 141.363C360.531 141.363 358.139 143.681 358.139 146.75C358.139 149.819 360.531 152.137 363.683 152.137C366.841 152.137 369.227 149.819 369.227 146.736C369.227 146.504 369.206 146.285 369.179 146.107ZM377.346 152.137C380.498 152.137 382.89 149.819 382.89 146.75C382.89 143.681 380.498 141.363 377.346 141.363C374.195 141.363 371.802 143.681 371.802 146.75C371.802 149.819 374.195 152.137 377.346 152.137ZM377.346 150.25C375.378 150.25 373.846 148.726 373.846 146.75C373.846 144.774 375.378 143.25 377.346 143.25C379.322 143.25 380.846 144.774 380.846 146.75C380.846 148.726 379.322 150.25 377.346 150.25ZM392.575 141.5L389.697 149.546L386.826 141.5H384.673L388.645 152H390.75L394.729 141.5H392.575ZM404.072 143.312V141.5H397.804V152H404.072V150.188H399.841V147.652H403.566V145.861H399.841V143.312H404.072ZM413.928 152H416.143L413.374 147.324C414.461 146.887 415.193 145.889 415.193 144.61C415.193 142.895 414.01 141.5 411.85 141.5H407.748V152H409.786V147.563H411.495L413.928 152ZM409.786 143.223H411.713C412.691 143.223 413.217 143.763 413.217 144.59C413.217 145.431 412.691 145.93 411.713 145.93H409.786V143.223ZM427.113 141.5V148.992L421.125 141.5H419.211V152H421.221V144.48L427.209 152H429.137V141.5H427.113Z" fill="white"/>
<rect x="552" y="3" width="271" height="60" rx="29" fill="url(#paint1_linear)"/>
<path d="M615.703 27H610.57V39H612.898V34.6406H615.703C618.109 34.6406 619.656 33.0078 619.656 30.8516C619.656 28.7266 618.109 27 615.703 27ZM615.352 32.6719H612.898V28.9609H615.352C616.695 28.9609 617.398 29.7266 617.398 30.8281C617.398 31.9766 616.695 32.6719 615.352 32.6719ZM623.648 32.3125V30.7266H621.523V39H623.75V35.0469C623.75 33.3984 624.766 32.7734 626.5 32.7734V30.6484C625.062 30.7266 624.086 31.5469 623.648 32.3125ZM631.758 39.1562C634.32 39.1562 636.281 37.3516 636.281 34.8594C636.281 32.375 634.32 30.5703 631.758 30.5703C629.188 30.5703 627.234 32.375 627.234 34.8594C627.234 37.3516 629.188 39.1562 631.758 39.1562ZM631.75 37.2422C630.422 37.2422 629.367 36.2734 629.367 34.8594C629.367 33.4609 630.422 32.4766 631.75 32.4766C633.07 32.4766 634.141 33.4766 634.141 34.8594C634.141 36.25 633.07 37.2422 631.75 37.2422ZM642.516 32.2812V30.7266H640.633V28.4375H638.398V30.7266H637.094V32.2812H638.398V36.4219C638.398 38.0781 639.422 39 641.086 39H642.492V37.2891H641.641C641.047 37.2891 640.633 36.9297 640.633 36.1719V32.2812H642.516ZM648.148 39.1562C650.711 39.1562 652.672 37.3516 652.672 34.8594C652.672 32.375 650.711 30.5703 648.148 30.5703C645.578 30.5703 643.625 32.375 643.625 34.8594C643.625 37.3516 645.578 39.1562 648.148 39.1562ZM648.141 37.2422C646.812 37.2422 645.758 36.2734 645.758 34.8594C645.758 33.4609 646.812 32.4766 648.141 32.4766C649.461 32.4766 650.531 33.4766 650.531 34.8594C650.531 36.25 649.461 37.2422 648.141 37.2422ZM658.289 39.1406C659.742 39.1406 661.008 38.5469 661.82 37.5859L660.234 36.25C659.805 36.8594 659.109 37.2344 658.281 37.2344C656.938 37.2344 655.898 36.2656 655.898 34.8594C655.898 33.4453 656.938 32.4766 658.281 32.4766C659.109 32.4766 659.805 32.8516 660.234 33.4609L661.82 32.125C661.008 31.1641 659.742 30.5703 658.289 30.5703C655.719 30.5703 653.766 32.3672 653.766 34.8594C653.766 37.3438 655.719 39.1406 658.289 39.1406ZM667.195 39.1562C669.758 39.1562 671.719 37.3516 671.719 34.8594C671.719 32.375 669.758 30.5703 667.195 30.5703C664.625 30.5703 662.672 32.375 662.672 34.8594C662.672 37.3516 664.625 39.1562 667.195 39.1562ZM667.188 37.2422C665.859 37.2422 664.805 36.2734 664.805 34.8594C664.805 33.4609 665.859 32.4766 667.188 32.4766C668.508 32.4766 669.578 33.4766 669.578 34.8594C669.578 36.25 668.508 37.2422 667.188 37.2422ZM673.523 39H675.75V27H673.523V39ZM676.93 42.1016H679.047L686.836 27H684.727L676.93 42.1016ZM690.68 36.9297V27H688.352V39H694.766V36.9297H690.68ZM701.922 27H696.789V39H699.117V34.6406H701.922C704.328 34.6406 705.875 33.0078 705.875 30.8516C705.875 28.7266 704.328 27 701.922 27ZM701.57 32.6719H699.117V28.9609H701.57C702.914 28.9609 703.617 29.7266 703.617 30.8281C703.617 31.9766 702.914 32.6719 701.57 32.6719ZM710.391 39.1562C712.234 39.1562 713.602 38.2734 713.602 36.4922C713.602 34.7969 712.344 34.2891 711.219 33.9297C710.266 33.625 709.414 33.4609 709.414 32.875C709.414 32.4375 709.812 32.2031 710.391 32.2031C710.984 32.2031 711.828 32.4844 712.422 32.8906L713.383 31.4297C712.523 30.875 711.461 30.5703 710.445 30.5703C708.773 30.5703 707.328 31.3828 707.328 33.1016C707.328 34.75 708.656 35.1953 709.773 35.5625C710.68 35.8672 711.445 36.0547 711.445 36.6875C711.445 37.1953 711.016 37.4688 710.375 37.4688C709.57 37.4688 708.539 37.0312 707.867 36.5L706.93 38.0938C707.812 38.7031 709.078 39.1562 710.391 39.1562ZM727.562 29.0703V27H720.305V39H722.633V34.0234H726.891V31.9766H722.633V29.0703H727.562ZM737.055 34.7734C737.016 32.2266 735.18 30.5547 732.797 30.5547C730.25 30.5547 728.406 32.4688 728.406 34.8672C728.406 37.2578 730.211 39.1562 732.875 39.1562C734.641 39.1562 736.016 38.3203 736.68 36.9766L734.914 36.2344C734.484 36.9844 733.719 37.3828 732.867 37.3828C731.664 37.3828 730.688 36.5703 730.594 35.2109H737.031L737.055 34.7734ZM732.82 32.1953C733.875 32.1953 734.672 32.8125 734.836 33.8516H730.672C730.93 32.8203 731.742 32.1953 732.82 32.1953ZM746.773 34.7734C746.734 32.2266 744.898 30.5547 742.516 30.5547C739.969 30.5547 738.125 32.4688 738.125 34.8672C738.125 37.2578 739.93 39.1562 742.594 39.1562C744.359 39.1562 745.734 38.3203 746.398 36.9766L744.633 36.2344C744.203 36.9844 743.438 37.3828 742.586 37.3828C741.383 37.3828 740.406 36.5703 740.312 35.2109H746.75L746.773 34.7734ZM742.539 32.1953C743.594 32.1953 744.391 32.8125 744.555 33.8516H740.391C740.648 32.8203 741.461 32.1953 742.539 32.1953ZM751.203 39.1562C753.047 39.1562 754.414 38.2734 754.414 36.4922C754.414 34.7969 753.156 34.2891 752.031 33.9297C751.078 33.625 750.227 33.4609 750.227 32.875C750.227 32.4375 750.625 32.2031 751.203 32.2031C751.797 32.2031 752.641 32.4844 753.234 32.8906L754.195 31.4297C753.336 30.875 752.273 30.5703 751.258 30.5703C749.586 30.5703 748.141 31.3828 748.141 33.1016C748.141 34.75 749.469 35.1953 750.586 35.5625C751.492 35.8672 752.258 36.0547 752.258 36.6875C752.258 37.1953 751.828 37.4688 751.188 37.4688C750.383 37.4688 749.352 37.0312 748.68 36.5L747.742 38.0938C748.625 38.7031 749.891 39.1562 751.203 39.1562Z" fill="white"/>
<circle cx="582" cy="33" r="10" fill="#7B78FF"/>
<path d="M578 33.4286L580.4 36L586 30" stroke="white" stroke-width="2" stroke-linecap="round" stroke-linejoin="round"/>
<rect x="552" y="79" width="271" height="60" rx="29" fill="url(#paint2_linear)"/>
<path d="M614.07 115.148C616.211 115.148 618.023 113.992 618.023 111.695C618.023 109.461 616.312 108.602 614.734 107.906C613.352 107.312 612.32 106.93 612.32 105.953C612.32 105.203 612.922 104.82 613.68 104.82C614.539 104.82 615.586 105.234 616.461 106.086L617.688 104.422C616.594 103.445 615.211 102.844 613.734 102.844C611.688 102.844 610.031 104.062 610.031 106.188C610.031 108.305 611.688 109.086 613.258 109.773C614.625 110.375 615.695 110.773 615.695 111.844C615.695 112.695 615.016 113.18 614.078 113.18C612.977 113.18 611.703 112.508 610.891 111.562L609.547 113.242C610.68 114.422 612.398 115.148 614.07 115.148ZM624.406 108.281V106.727H622.523V104.438H620.289V106.727H618.984V108.281H620.289V112.422C620.289 114.078 621.312 115 622.977 115H624.383V113.289H623.531C622.938 113.289 622.523 112.93 622.523 112.172V108.281H624.406ZM628.414 108.312V106.727H626.289V115H628.516V111.047C628.516 109.398 629.531 108.773 631.266 108.773V106.648C629.828 106.727 628.852 107.547 628.414 108.312ZM636.039 115.172C637.273 115.172 638.188 114.68 638.781 113.945V115H641.016V106.727H638.789L638.781 107.773C638.188 107.023 637.266 106.531 636.039 106.531C633.875 106.531 632.031 108.352 632.031 110.844C632.031 113.344 633.875 115.172 636.039 115.172ZM636.648 113.273C635.312 113.273 634.258 112.289 634.258 110.844C634.258 109.406 635.312 108.43 636.648 108.43C637.977 108.43 639.023 109.406 639.023 110.844C639.023 112.289 637.977 113.273 636.648 113.273ZM647.953 108.281V106.727H646.07V104.438H643.836V106.727H642.531V108.281H643.836V112.422C643.836 114.078 644.859 115 646.523 115H647.93V113.289H647.078C646.484 113.289 646.07 112.93 646.07 112.172V108.281H647.953ZM657.711 110.773C657.672 108.227 655.836 106.555 653.453 106.555C650.906 106.555 649.062 108.469 649.062 110.867C649.062 113.258 650.867 115.156 653.531 115.156C655.297 115.156 656.672 114.32 657.336 112.977L655.57 112.234C655.141 112.984 654.375 113.383 653.523 113.383C652.32 113.383 651.344 112.57 651.25 111.211H657.688L657.711 110.773ZM653.477 108.195C654.531 108.195 655.328 108.812 655.492 109.852H651.328C651.586 108.82 652.398 108.195 653.477 108.195ZM663.094 118.891C665.922 118.891 667.602 117.305 667.602 114.555V106.727H665.367V107.797C664.805 107.062 663.961 106.57 662.758 106.57C660.547 106.57 658.797 108.281 658.797 110.719C658.797 113.156 660.547 114.914 662.789 114.914C663.977 114.914 664.82 114.43 665.367 113.711V114.758C665.367 116.242 664.547 117.094 663.055 117.094C662.148 117.094 661.156 116.781 660.391 115.672L658.961 116.953C660.172 118.484 661.703 118.891 663.094 118.891ZM663.281 113.016C662.023 113.016 661.023 112.094 661.023 110.719C661.023 109.344 662.023 108.414 663.281 108.414C664.539 108.414 665.547 109.344 665.547 110.719C665.547 112.094 664.539 113.016 663.281 113.016ZM671.234 105.406C671.93 105.406 672.516 104.828 672.516 104.117C672.516 103.406 671.93 102.844 671.234 102.844C670.523 102.844 669.938 103.406 669.938 104.117C669.938 104.828 670.523 105.406 671.234 105.406ZM670.117 115H672.328V106.727H670.117V115ZM678.664 115.141C680.117 115.141 681.383 114.547 682.195 113.586L680.609 112.25C680.18 112.859 679.484 113.234 678.656 113.234C677.312 113.234 676.273 112.266 676.273 110.859C676.273 109.445 677.312 108.477 678.656 108.477C679.484 108.477 680.18 108.852 680.609 109.461L682.195 108.125C681.383 107.164 680.117 106.57 678.664 106.57C676.094 106.57 674.141 108.367 674.141 110.859C674.141 113.344 676.094 115.141 678.664 115.141ZM693.75 103H688.617V115H690.945V110.641H693.75C696.156 110.641 697.703 109.008 697.703 106.852C697.703 104.727 696.156 103 693.75 103ZM693.398 108.672H690.945V104.961H693.398C694.742 104.961 695.445 105.727 695.445 106.828C695.445 107.977 694.742 108.672 693.398 108.672ZM702.227 115.172C703.461 115.172 704.375 114.68 704.969 113.945V115H707.203V106.727H704.977L704.969 107.773C704.375 107.023 703.453 106.531 702.227 106.531C700.062 106.531 698.219 108.352 698.219 110.844C698.219 113.344 700.062 115.172 702.227 115.172ZM702.836 113.273C701.5 113.273 700.445 112.289 700.445 110.844C700.445 109.406 701.5 108.43 702.836 108.43C704.164 108.43 705.211 109.406 705.211 110.844C705.211 112.289 704.164 113.273 702.836 113.273ZM711.836 108.312V106.727H709.711V115H711.938V111.047C711.938 109.398 712.953 108.773 714.688 108.773V106.648C713.25 106.727 712.273 107.547 711.836 108.312ZM721.156 108.281V106.727H719.273V104.438H717.039V106.727H715.734V108.281H717.039V112.422C717.039 114.078 718.062 115 719.727 115H721.133V113.289H720.281C719.688 113.289 719.273 112.93 719.273 112.172V108.281H721.156ZM727.773 106.57C726.68 106.57 725.82 107.086 725.273 107.891V106.727H723.039V115H725.273V110.297C725.281 109.039 725.969 108.438 726.914 108.438C727.773 108.438 728.391 108.82 728.391 110.141V115H730.633V109.742C730.633 107.672 729.539 106.57 727.773 106.57ZM740.914 110.773C740.875 108.227 739.039 106.555 736.656 106.555C734.109 106.555 732.266 108.469 732.266 110.867C732.266 113.258 734.07 115.156 736.734 115.156C738.5 115.156 739.875 114.32 740.539 112.977L738.773 112.234C738.344 112.984 737.578 113.383 736.727 113.383C735.523 113.383 734.547 112.57 734.453 111.211H740.891L740.914 110.773ZM736.68 108.195C737.734 108.195 738.531 108.812 738.695 109.852H734.531C734.789 108.82 735.602 108.195 736.68 108.195ZM744.82 108.312V106.727H742.695V115H744.922V111.047C744.922 109.398 745.938 108.773 747.672 108.773V106.648C746.234 106.727 745.258 107.547 744.82 108.312ZM751.828 115.156C753.672 115.156 755.039 114.273 755.039 112.492C755.039 110.797 753.781 110.289 752.656 109.93C751.703 109.625 750.852 109.461 750.852 108.875C750.852 108.438 751.25 108.203 751.828 108.203C752.422 108.203 753.266 108.484 753.859 108.891L754.82 107.43C753.961 106.875 752.898 106.57 751.883 106.57C750.211 106.57 748.766 107.383 748.766 109.102C748.766 110.75 750.094 111.195 751.211 111.562C752.117 111.867 752.883 112.055 752.883 112.688C752.883 113.195 752.453 113.469 751.812 113.469C751.008 113.469 749.977 113.031 749.305 112.5L748.367 114.094C749.25 114.703 750.516 115.156 751.828 115.156ZM761.602 106.57C760.508 106.57 759.648 107.078 759.094 107.914V103H756.883V115H759.094V110.289C759.102 109.039 759.773 108.438 760.773 108.438C761.586 108.438 762.242 108.828 762.242 110.141V115H764.453V109.742C764.453 107.672 763.359 106.57 761.602 106.57ZM767.906 105.406C768.602 105.406 769.188 104.828 769.188 104.117C769.188 103.406 768.602 102.844 767.906 102.844C767.195 102.844 766.609 103.406 766.609 104.117C766.609 104.828 767.195 105.406 767.906 105.406ZM766.789 115H769V106.727H766.789V115ZM771.523 118.891H773.75V113.945C774.375 114.719 775.328 115.156 776.469 115.156C778.68 115.156 780.508 113.375 780.508 110.875C780.508 108.383 778.672 106.57 776.469 106.57C775.242 106.57 774.312 107.086 773.75 107.789V106.727H771.523V118.891ZM775.898 113.305C774.562 113.305 773.516 112.32 773.516 110.875C773.516 109.438 774.562 108.453 775.898 108.453C777.227 108.453 778.281 109.438 778.281 110.875C778.281 112.32 777.227 113.305 775.898 113.305ZM785 115.156C786.844 115.156 788.211 114.273 788.211 112.492C788.211 110.797 786.953 110.289 785.828 109.93C784.875 109.625 784.023 109.461 784.023 108.875C784.023 108.438 784.422 108.203 785 108.203C785.594 108.203 786.438 108.484 787.031 108.891L787.992 107.43C787.133 106.875 786.07 106.57 785.055 106.57C783.383 106.57 781.938 107.383 781.938 109.102C781.938 110.75 783.266 111.195 784.383 111.562C785.289 111.867 786.055 112.055 786.055 112.688C786.055 113.195 785.625 113.469 784.984 113.469C784.18 113.469 783.148 113.031 782.477 112.5L781.539 114.094C782.422 114.703 783.688 115.156 785 115.156Z" fill="white"/>
<circle cx="582" cy="109" r="10" fill="#7B78FF"/>
<path d="M578 109.429L580.4 112L586 106" stroke="white" stroke-width="2" stroke-linecap="round" stroke-linejoin="round"/>
<rect x="552" y="155" width="271" height="60" rx="29" fill="url(#paint3_linear)"/>
<path d="M617.828 181.07V179H610.57V191H612.898V186.023H617.156V183.977H612.898V181.07H617.828ZM623.281 191.156C625.688 191.156 627.109 189.938 627.109 187.945V182.727H624.883V187.805C624.883 188.797 624.195 189.25 623.281 189.25C622.375 189.25 621.695 188.797 621.695 187.805V182.727H619.477V187.945C619.477 189.938 620.891 191.156 623.281 191.156ZM633.828 184.281V182.727H631.945V180.438H629.711V182.727H628.406V184.281H629.711V188.422C629.711 190.078 630.734 191 632.398 191H633.805V189.289H632.953C632.359 189.289 631.945 188.93 631.945 188.172V184.281H633.828ZM639.281 191.156C641.688 191.156 643.109 189.938 643.109 187.945V182.727H640.883V187.805C640.883 188.797 640.195 189.25 639.281 189.25C638.375 189.25 637.695 188.797 637.695 187.805V182.727H635.477V187.945C635.477 189.938 636.891 191.156 639.281 191.156ZM647.523 184.312V182.727H645.398V191H647.625V187.047C647.625 185.398 648.641 184.773 650.375 184.773V182.648C648.938 182.727 647.961 183.547 647.523 184.312ZM659.758 186.773C659.719 184.227 657.883 182.555 655.5 182.555C652.953 182.555 651.109 184.469 651.109 186.867C651.109 189.258 652.914 191.156 655.578 191.156C657.344 191.156 658.719 190.32 659.383 188.977L657.617 188.234C657.188 188.984 656.422 189.383 655.57 189.383C654.367 189.383 653.391 188.57 653.297 187.211H659.734L659.758 186.773ZM655.523 184.195C656.578 184.195 657.375 184.812 657.539 185.852H653.375C653.633 184.82 654.445 184.195 655.523 184.195ZM671.531 179H666.398V191H668.727V186.641H671.531C673.938 186.641 675.484 185.008 675.484 182.852C675.484 180.727 673.938 179 671.531 179ZM671.18 184.672H668.727V180.961H671.18C672.523 180.961 673.227 181.727 673.227 182.828C673.227 183.977 672.523 184.672 671.18 184.672ZM679.477 184.312V182.727H677.352V191H679.578V187.047C679.578 185.398 680.594 184.773 682.328 184.773V182.648C680.891 182.727 679.914 183.547 679.477 184.312ZM687.586 191.156C690.148 191.156 692.109 189.352 692.109 186.859C692.109 184.375 690.148 182.57 687.586 182.57C685.016 182.57 683.062 184.375 683.062 186.859C683.062 189.352 685.016 191.156 687.586 191.156ZM687.578 189.242C686.25 189.242 685.195 188.273 685.195 186.859C685.195 185.461 686.25 184.477 687.578 184.477C688.898 184.477 689.969 185.477 689.969 186.859C689.969 188.25 688.898 189.242 687.578 189.242ZM697.242 191.172C698.477 191.172 699.391 190.68 699.984 189.945V191H702.219V179H699.992L699.984 183.773C699.391 183.023 698.469 182.531 697.242 182.531C695.078 182.531 693.234 184.352 693.234 186.844C693.234 189.344 695.078 191.172 697.242 191.172ZM697.852 189.273C696.516 189.273 695.461 188.289 695.461 186.844C695.461 185.406 696.516 184.43 697.852 184.43C699.18 184.43 700.227 185.406 700.227 186.844C700.227 188.289 699.18 189.273 697.852 189.273ZM708.312 191.156C710.719 191.156 712.141 189.938 712.141 187.945V182.727H709.914V187.805C709.914 188.797 709.227 189.25 708.312 189.25C707.406 189.25 706.727 188.797 706.727 187.805V182.727H704.508V187.945C704.508 189.938 705.922 191.156 708.312 191.156ZM718.242 191.141C719.695 191.141 720.961 190.547 721.773 189.586L720.188 188.25C719.758 188.859 719.062 189.234 718.234 189.234C716.891 189.234 715.852 188.266 715.852 186.859C715.852 185.445 716.891 184.477 718.234 184.477C719.062 184.477 719.758 184.852 720.188 185.461L721.773 184.125C720.961 183.164 719.695 182.57 718.242 182.57C715.672 182.57 713.719 184.367 713.719 186.859C713.719 189.344 715.672 191.141 718.242 191.141ZM727.766 184.281V182.727H725.883V180.438H723.648V182.727H722.344V184.281H723.648V188.422C723.648 190.078 724.672 191 726.336 191H727.742V189.289H726.891C726.297 189.289 725.883 188.93 725.883 188.172V184.281H727.766ZM732.297 191.156C734.141 191.156 735.508 190.273 735.508 188.492C735.508 186.797 734.25 186.289 733.125 185.93C732.172 185.625 731.32 185.461 731.32 184.875C731.32 184.438 731.719 184.203 732.297 184.203C732.891 184.203 733.734 184.484 734.328 184.891L735.289 183.43C734.43 182.875 733.367 182.57 732.352 182.57C730.68 182.57 729.234 183.383 729.234 185.102C729.234 186.75 730.562 187.195 731.68 187.562C732.586 187.867 733.352 188.055 733.352 188.688C733.352 189.195 732.922 189.469 732.281 189.469C731.477 189.469 730.445 189.031 729.773 188.5L728.836 190.094C729.719 190.703 730.984 191.156 732.297 191.156Z" fill="white"/>
<circle cx="582" cy="185" r="10" fill="#7B78FF"/>
<path d="M578 185.429L580.4 188L586 182" stroke="white" stroke-width="2" stroke-linecap="round" stroke-linejoin="round"/>
<rect x="552" y="231" width="271" height="60" rx="29" fill="url(#paint4_linear)"/>
<path d="M610.57 267H614.68C618.664 267 620.773 264.633 620.773 261C620.773 257.367 618.664 255 614.68 255H610.57V267ZM612.891 264.93V257.07H614.578C617.125 257.07 618.359 258.461 618.359 261C618.359 263.539 617.125 264.93 614.578 264.93H612.891ZM630.711 267H633.141L628.562 255H625.859L621.289 267H623.719L624.609 264.539H629.82L630.711 267ZM625.32 262.57L627.219 257.328L629.109 262.57H625.32ZM639.922 267.156C643.523 267.156 646.258 264.508 646.258 261C646.258 257.492 643.523 254.844 639.922 254.844C636.32 254.844 633.586 257.492 633.586 261C633.586 264.508 636.32 267.156 639.922 267.156ZM639.922 265C637.672 265 635.922 263.258 635.922 261C635.922 258.742 637.672 257 639.922 257C642.18 257 643.922 258.742 643.922 261C643.922 263.258 642.18 265 639.922 265ZM657.234 260.281V258.727H655.352V256.438H653.117V258.727H651.812V260.281H653.117V264.422C653.117 266.078 654.141 267 655.805 267H657.211V265.289H656.359C655.766 265.289 655.352 264.93 655.352 264.172V260.281H657.234ZM661.242 260.312V258.727H659.117V267H661.344V263.047C661.344 261.398 662.359 260.773 664.094 260.773V258.648C662.656 258.727 661.68 259.547 661.242 260.312ZM673.477 262.773C673.438 260.227 671.602 258.555 669.219 258.555C666.672 258.555 664.828 260.469 664.828 262.867C664.828 265.258 666.633 267.156 669.297 267.156C671.062 267.156 672.438 266.32 673.102 264.977L671.336 264.234C670.906 264.984 670.141 265.383 669.289 265.383C668.086 265.383 667.109 264.57 667.016 263.211H673.453L673.477 262.773ZM669.242 260.195C670.297 260.195 671.094 260.812 671.258 261.852H667.094C667.352 260.82 668.164 260.195 669.242 260.195ZM678.586 267.172C679.82 267.172 680.734 266.68 681.328 265.945V267H683.562V258.727H681.336L681.328 259.773C680.734 259.023 679.812 258.531 678.586 258.531C676.422 258.531 674.578 260.352 674.578 262.844C674.578 265.344 676.422 267.172 678.586 267.172ZM679.195 265.273C677.859 265.273 676.805 264.289 676.805 262.844C676.805 261.406 677.859 260.43 679.195 260.43C680.523 260.43 681.57 261.406 681.57 262.844C681.57 264.289 680.523 265.273 679.195 265.273ZM688.719 267.156C690.562 267.156 691.93 266.273 691.93 264.492C691.93 262.797 690.672 262.289 689.547 261.93C688.594 261.625 687.742 261.461 687.742 260.875C687.742 260.438 688.141 260.203 688.719 260.203C689.312 260.203 690.156 260.484 690.75 260.891L691.711 259.43C690.852 258.875 689.789 258.57 688.773 258.57C687.102 258.57 685.656 259.383 685.656 261.102C685.656 262.75 686.984 263.195 688.102 263.562C689.008 263.867 689.773 264.055 689.773 264.688C689.773 265.195 689.344 265.469 688.703 265.469C687.898 265.469 686.867 265.031 686.195 264.5L685.258 266.094C686.141 266.703 687.406 267.156 688.719 267.156ZM697.344 267.156C699.75 267.156 701.172 265.938 701.172 263.945V258.727H698.945V263.805C698.945 264.797 698.258 265.25 697.344 265.25C696.438 265.25 695.758 264.797 695.758 263.805V258.727H693.539V263.945C693.539 265.938 694.953 267.156 697.344 267.156ZM705.586 260.312V258.727H703.461V267H705.688V263.047C705.688 261.398 706.703 260.773 708.438 260.773V258.648C707 258.727 706.023 259.547 705.586 260.312ZM715.234 258.727L713.328 264.398L711.414 258.727H708.969L712.148 266.508L710.414 270.891H712.703L717.57 258.727H715.234ZM732.945 258.57C731.883 258.57 731.023 259.086 730.453 259.898C730.039 258.984 729.195 258.57 728.125 258.57C727.078 258.57 726.266 259.086 725.734 259.906V258.727H723.508V267H725.734V262.031C725.734 261.055 726.258 260.414 727.156 260.414C727.945 260.414 728.5 260.914 728.5 261.922V267H730.734V262.031C730.734 261.055 731.258 260.414 732.156 260.414C732.938 260.414 733.5 260.914 733.5 261.922V267H735.727V261.32C735.727 259.586 734.617 258.57 732.945 258.57ZM741.414 267.172C742.648 267.172 743.562 266.68 744.156 265.945V267H746.391V258.727H744.164L744.156 259.773C743.562 259.023 742.641 258.531 741.414 258.531C739.25 258.531 737.406 260.352 737.406 262.844C737.406 265.344 739.25 267.172 741.414 267.172ZM742.023 265.273C740.688 265.273 739.633 264.289 739.633 262.844C739.633 261.406 740.688 260.43 742.023 260.43C743.352 260.43 744.398 261.406 744.398 262.844C744.398 264.289 743.352 265.273 742.023 265.273ZM753.633 258.57C752.539 258.57 751.68 259.086 751.133 259.891V258.727H748.898V267H751.133V262.297C751.141 261.039 751.828 260.438 752.773 260.438C753.633 260.438 754.25 260.82 754.25 262.141V267H756.492V261.742C756.492 259.672 755.398 258.57 753.633 258.57ZM762.164 267.172C763.398 267.172 764.312 266.68 764.906 265.945V267H767.141V258.727H764.914L764.906 259.773C764.312 259.023 763.391 258.531 762.164 258.531C760 258.531 758.156 260.352 758.156 262.844C758.156 265.344 760 267.172 762.164 267.172ZM762.773 265.273C761.438 265.273 760.383 264.289 760.383 262.844C760.383 261.406 761.438 260.43 762.773 260.43C764.102 260.43 765.148 261.406 765.148 262.844C765.148 264.289 764.102 265.273 762.773 265.273ZM773.25 270.891C776.078 270.891 777.758 269.305 777.758 266.555V258.727H775.523V259.797C774.961 259.062 774.117 258.57 772.914 258.57C770.703 258.57 768.953 260.281 768.953 262.719C768.953 265.156 770.703 266.914 772.945 266.914C774.133 266.914 774.977 266.43 775.523 265.711V266.758C775.523 268.242 774.703 269.094 773.211 269.094C772.305 269.094 771.312 268.781 770.547 267.672L769.117 268.953C770.328 270.484 771.859 270.891 773.25 270.891ZM773.438 265.016C772.18 265.016 771.18 264.094 771.18 262.719C771.18 261.344 772.18 260.414 773.438 260.414C774.695 260.414 775.703 261.344 775.703 262.719C775.703 264.094 774.695 265.016 773.438 265.016ZM788.211 262.773C788.172 260.227 786.336 258.555 783.953 258.555C781.406 258.555 779.562 260.469 779.562 262.867C779.562 265.258 781.367 267.156 784.031 267.156C785.797 267.156 787.172 266.32 787.836 264.977L786.07 264.234C785.641 264.984 784.875 265.383 784.023 265.383C782.82 265.383 781.844 264.57 781.75 263.211H788.188L788.211 262.773ZM783.977 260.195C785.031 260.195 785.828 260.812 785.992 261.852H781.828C782.086 260.82 782.898 260.195 783.977 260.195ZM799.43 258.57C798.367 258.57 797.508 259.086 796.938 259.898C796.523 258.984 795.68 258.57 794.609 258.57C793.562 258.57 792.75 259.086 792.219 259.906V258.727H789.992V267H792.219V262.031C792.219 261.055 792.742 260.414 793.641 260.414C794.43 260.414 794.984 260.914 794.984 261.922V267H797.219V262.031C797.219 261.055 797.742 260.414 798.641 260.414C799.422 260.414 799.984 260.914 799.984 261.922V267H802.211V261.32C802.211 259.586 801.102 258.57 799.43 258.57ZM812.508 262.773C812.469 260.227 810.633 258.555 808.25 258.555C805.703 258.555 803.859 260.469 803.859 262.867C803.859 265.258 805.664 267.156 808.328 267.156C810.094 267.156 811.469 266.32 812.133 264.977L810.367 264.234C809.938 264.984 809.172 265.383 808.32 265.383C807.117 265.383 806.141 264.57 806.047 263.211H812.484L812.508 262.773ZM808.273 260.195C809.328 260.195 810.125 260.812 810.289 261.852H806.125C806.383 260.82 807.195 260.195 808.273 260.195ZM819.023 258.57C817.93 258.57 817.07 259.086 816.523 259.891V258.727H814.289V267H816.523V262.297C816.531 261.039 817.219 260.438 818.164 260.438C819.023 260.438 819.641 260.82 819.641 262.141V267H821.883V261.742C821.883 259.672 820.789 258.57 819.023 258.57ZM828.656 260.281V258.727H826.773V256.438H824.539V258.727H823.234V260.281H824.539V264.422C824.539 266.078 825.562 267 827.227 267H828.633V265.289H827.781C827.188 265.289 826.773 264.93 826.773 264.172V260.281H828.656Z" fill="white"/>
<circle cx="582" cy="261" r="10" fill="#7B78FF"/>
<path d="M578 261.429L580.4 264L586 258" stroke="white" stroke-width="2" stroke-linecap="round" stroke-linejoin="round"/>
<line x1="250" y1="146" x2="339" y2="146" stroke="url(#paint5_linear)" stroke-width="2" stroke-linecap="round" stroke-linejoin="round"/>
<path d="M453 146H475.769C486.815 146 495.769 137.046 495.769 126V53C495.769 41.9543 504.724 33 515.769 33H538" stroke="url(#paint6_linear)" stroke-width="2" stroke-linecap="round" stroke-linejoin="round"/>
<path d="M453 146H475.769C486.815 146 495.769 154.954 495.769 166V239C495.769 250.046 504.724 259 515.769 259H538" stroke="url(#paint7_linear)" stroke-width="2" stroke-linecap="round" stroke-linejoin="round"/>
<path d="M453 146H477.269C487.487 146 495.769 137.717 495.769 127.5V127.5C495.769 117.283 504.052 109 514.269 109H538" stroke="url(#paint8_linear)" stroke-width="2" stroke-linecap="round" stroke-linejoin="round"/>
<path d="M453 146H477.269C487.487 146 495.769 154.283 495.769 164.5V164.5C495.769 174.717 504.052 183 514.269 183H538" stroke="url(#paint9_linear)" stroke-width="2" stroke-linecap="round" stroke-linejoin="round"/>
<defs>
<linearGradient id="paint0_linear" x1="342" y1="147.061" x2="470.241" y2="147.061" gradientUnits="userSpaceOnUse">
<stop stop-color="#A0D2EB" stop-opacity="0.24"/>
<stop offset="1" stop-opacity="0"/>
</linearGradient>
<linearGradient id="paint1_linear" x1="552" y1="33.0965" x2="886.165" y2="33.0965" gradientUnits="userSpaceOnUse">
<stop stop-color="#7B78FF" stop-opacity="0.25"/>
<stop offset="1" stop-opacity="0"/>
</linearGradient>
<linearGradient id="paint2_linear" x1="552" y1="109.096" x2="886.165" y2="109.096" gradientUnits="userSpaceOnUse">
<stop stop-color="#7B78FF" stop-opacity="0.25"/>
<stop offset="1" stop-opacity="0"/>
</linearGradient>
<linearGradient id="paint3_linear" x1="552" y1="185.096" x2="886.165" y2="185.096" gradientUnits="userSpaceOnUse">
<stop stop-color="#7B78FF" stop-opacity="0.25"/>
<stop offset="1" stop-opacity="0"/>
</linearGradient>
<linearGradient id="paint4_linear" x1="552" y1="261.096" x2="886.165" y2="261.096" gradientUnits="userSpaceOnUse">
<stop stop-color="#7B78FF" stop-opacity="0.25"/>
<stop offset="1" stop-opacity="0"/>
</linearGradient>
<linearGradient id="paint5_linear" x1="253" y1="147" x2="337.5" y2="147" gradientUnits="userSpaceOnUse">
<stop stop-color="white"/>
<stop offset="1" stop-color="#394763"/>
</linearGradient>
<linearGradient id="paint6_linear" x1="457.024" y1="146.609" x2="542.024" y2="146.609" gradientUnits="userSpaceOnUse">
<stop stop-color="#36435F"/>
<stop offset="1" stop-color="#313369"/>
</linearGradient>
<linearGradient id="paint7_linear" x1="457.024" y1="145.391" x2="542.024" y2="145.391" gradientUnits="userSpaceOnUse">
<stop stop-color="#36435F"/>
<stop offset="1" stop-color="#313369"/>
</linearGradient>
<linearGradient id="paint8_linear" x1="457.024" y1="146.2" x2="542.024" y2="146.2" gradientUnits="userSpaceOnUse">
<stop stop-color="#36435F"/>
<stop offset="1" stop-color="#313369"/>
</linearGradient>
<linearGradient id="paint9_linear" x1="457.024" y1="145.8" x2="542.024" y2="145.8" gradientUnits="userSpaceOnUse">
<stop stop-color="#36435F"/>
<stop offset="1" stop-color="#313369"/>
</linearGradient>
<clipPath id="clip0">
<rect width="97.1613" height="114.974" fill="white" transform="translate(98.0198 89.7228)"/>
</clipPath>
</defs>
</svg>
