<svg width="197" height="71" viewBox="0 0 197 71" fill="none" xmlns="http://www.w3.org/2000/svg">
<rect x="0.966797" y="0.988892" width="195" height="69" rx="7.5" stroke="url(#paint0_linear)"/>
<path fill-rule="evenodd" clip-rule="evenodd" d="M95.4465 15.4482C95.4465 15.4482 97.9839 16.2264 98.9845 16.5104L102.591 17.5783L102.654 12.6223L96.3124 13.8833L95.4465 15.4482ZM116.966 14.5764L120.711 17.0047L118.991 22.4805L114.871 21.2422L116.966 14.5764ZM109.051 54.2159L113.95 52.7731L115.791 46.965L111.267 47.2746L109.051 54.2159ZM88.0967 56.3517L88.0861 56.3544C88.1141 56.3544 88.1618 56.3515 88.0975 56.3515L82.0109 53.0343L80.5401 57.4223L88.0862 56.3544C88.0634 56.3544 88.0519 56.3544 88.0967 56.3517ZM74.72 33.9714L70.2675 33.9601C70.4638 33.3488 70.7967 32.3497 71.1432 31.3098L71.1433 31.3096C71.5711 30.0257 72.0196 28.6796 72.2572 27.9249L76.3055 28.9984L74.72 33.9714ZM61.9815 29.3392L65.313 32.8099L67.2311 26.6525L63.1427 25.5676L61.9815 29.3392ZM130.963 45.8262C131.992 46.8969 132.476 47.4677 132.545 49.2115C132.603 50.6175 131.837 52.3443 131.158 53.5484C129.65 56.2153 127.253 56.7719 124.357 56.7719C121.579 56.7719 118.652 55.9227 118.652 52.614C118.652 51.6484 118.947 50.6231 119.302 49.7143H123.827H123.855C123.5 50.2993 123.262 51.1769 123.233 51.8529C123.233 52.7589 123.735 53.5484 124.741 53.5484C126.545 53.5484 128.408 51.566 128.199 49.8506C128.01 48.2885 127.092 47.1241 125.596 46.184L130.963 45.8262ZM75.9101 13.0713L61.9562 13.0826L60.8667 16.5107L65.9815 16.505L63.4528 24.4744L67.5441 25.5593L70.3853 16.5021L74.8206 16.4965L75.9101 13.0713ZM78.9406 25.3092C78.4389 25.3092 77.9343 25.3092 77.4325 25.3404L76.5953 27.959L72.55 26.8883C72.9826 25.5129 73.4122 24.137 73.8417 22.7615L73.8419 22.7608L73.8421 22.7602C74.8555 19.5147 75.8683 16.271 76.9193 13.0399L82.1804 13.0342C85.2252 13.0313 88.2126 14.0254 88.2155 17.5642C88.2184 20.7564 86.3892 23.304 83.1065 23.7471L82.6649 23.8068C84.1729 24.0708 85.4746 24.744 85.4746 26.4424C85.476 27.6565 85.1064 28.8027 84.7367 29.9496C84.3392 31.1824 83.9414 32.416 84.0038 33.7358L79.4223 33.7415C79.4964 32.4222 79.8776 31.1245 80.2583 29.8289L80.2583 29.8289L80.2583 29.8288L80.2583 29.8288L80.2583 29.8288L80.2583 29.8288L80.2583 29.8287L80.2583 29.8287L80.2583 29.8287C80.3341 29.5709 80.4098 29.3131 80.4831 29.0553C80.7181 28.2941 81.0135 27.2972 81.0106 26.5077C81.0106 25.366 79.7692 25.3064 78.9406 25.3092ZM81.7417 16.2833L80.2623 16.2861L78.4647 22.0856L80.8902 22.0828C82.7824 22.0828 83.935 19.4159 83.9321 17.834C83.9293 16.5446 82.8369 16.2833 81.7417 16.2833ZM89.83 33.7926L92.1895 29.3676L97.8376 29.362L97.6656 33.8124L102.101 33.8096L102.454 18.6576L98.6433 17.513C98.2963 20.356 98.1013 23.2302 98.1013 26.0816H98.0727L93.8151 26.0845C95.3461 23.216 96.8141 20.3247 98.1358 17.3596L95.0824 16.4423L85.2169 33.7954L89.83 33.7926ZM122.351 30.3929L121.23 33.7641L110.823 33.7727L114.489 22.2731L118.609 23.5113L116.408 30.4015L122.351 30.3929ZM93.7 35.0904H87.8771L82.4096 52.0346L89.368 55.7892C93.5338 55.633 96.4524 52.5799 96.4524 48.3879C96.4524 46.7776 95.4461 45.5194 93.8807 45.0792C96.9571 44.3776 98.9353 42.4151 98.9353 39.1944C98.9324 36.0561 96.4783 35.0904 93.7 35.0904ZM91.3061 51.3444C90.4775 52.5742 89.5916 52.6623 88.2011 52.6623H86.3977L88.3788 46.5731C88.5841 46.5811 88.812 46.581 89.0519 46.5809C90.5042 46.5802 92.3984 46.5793 92.3984 48.3879C92.3984 49.3223 91.8394 50.5833 91.3061 51.3444ZM90.9506 43.6108H89.2934L91.0366 38.2515C91.2465 38.2611 91.4863 38.2585 91.741 38.2558H91.741C93.0659 38.2417 94.7924 38.2232 94.7924 39.8931C94.824 42.2362 93.3159 43.6108 90.9506 43.6108ZM103.385 34.92L107.803 20.2877C108.53 20.4759 109.808 20.8666 110.812 21.1734L110.812 21.1735C111.399 21.3529 111.892 21.5036 112.127 21.5686L107.556 35.8715H107.551L104.168 46.431L99.4829 46.7888L103.385 34.92ZM109.994 35.1218L108.899 38.5441H114.017L111.623 46.1641L116.089 45.8603L118.42 38.5441H122.853L123.948 35.1218H109.994ZM122.973 42.4692C122.973 38.0755 125.694 34.9145 130.275 34.9145C132.936 34.9145 136.07 35.7921 136.067 38.9872C136.067 39.6319 135.654 41.0377 135.387 41.6541H131.13C131.191 41.4439 131.266 41.2365 131.341 41.0294C131.517 40.5427 131.692 40.058 131.692 39.5439C131.692 38.4021 131.041 38.1096 129.977 38.1096C128.409 38.1096 127.649 39.8733 127.649 41.2224C127.649 42.205 129.306 44.054 130.244 44.8378L124.733 45.207C123.555 44.6817 122.979 43.1082 122.973 42.4692ZM79.7549 35.2127C77.8313 35.2127 77.429 36.5115 76.9727 37.9843L76.9726 37.9847C76.9345 38.1077 76.896 38.2319 76.8562 38.3567C76.8091 38.5164 76.7502 38.6857 76.6897 38.8599L76.6897 38.8599C76.5295 39.321 76.3574 39.8165 76.3574 40.2596C76.3574 41.4354 77.4096 41.6598 78.3873 41.6598C79.5828 41.6683 80.2193 41.2707 80.6436 40.1574C80.9332 39.3962 81.6872 37.303 81.6872 36.5674C81.6872 35.5251 80.6264 35.2127 79.7549 35.2127ZM79.9701 38.0273L79.9701 38.0273L79.9383 38.121L79.4767 39.5467C79.2961 40.0864 79.0782 40.7055 78.3902 40.7055C78.0002 40.7055 77.7479 40.4811 77.7479 40.0778C77.7479 39.6853 77.9777 39.0411 78.1649 38.5161C78.2269 38.3422 78.2842 38.1814 78.327 38.0472C78.3512 37.9719 78.3764 37.886 78.4035 37.7935L78.4036 37.7935C78.57 37.2268 78.8097 36.4106 79.3248 36.2323C79.4595 36.1869 79.6058 36.1698 79.752 36.1698C80.0243 36.1698 80.3512 36.4113 80.3512 36.7009L80.3369 36.7094C80.3369 36.9471 80.0903 37.6734 79.9701 38.0273ZM85.3738 37.8141L85.0585 38.8479H83.255L82.3949 41.5772H81.0073L82.9913 35.2381H86.2913L85.9558 36.2719H84.0521L83.5618 37.8141H85.3738Z" fill="white"/>
<defs>
<linearGradient id="paint0_linear" x1="0.466797" y1="0.488892" x2="215.179" y2="58.9007" gradientUnits="userSpaceOnUse">
<stop stop-color="#A0D2EB"/>
<stop offset="1" stop-color="#7B78FF"/>
</linearGradient>
</defs>
</svg>
