<svg width="24" height="24" viewBox="0 0 24 24" fill="none" xmlns="http://www.w3.org/2000/svg">
<rect width="24" height="24" rx="12" fill="#0F1426"/>
<path fill-rule="evenodd" clip-rule="evenodd" d="M9.54098 12.0533V18.8172C9.54098 18.9086 9.62295 19 9.7377 19H12.4426C12.541 19 12.6393 18.9238 12.6393 18.8172V11.9314H14.5902C14.6885 11.9314 14.7705 11.8553 14.7869 11.7639L14.9508 9.70729C14.9672 9.60065 14.8689 9.50925 14.7541 9.50925H12.623V8.04679C12.623 7.69641 12.918 7.4222 13.2951 7.4222H14.8033C14.9016 7.4222 15 7.34603 15 7.23939V5.18281C15 5.0914 14.918 5 14.8033 5H12.2459C10.7541 5 9.54098 6.12731 9.54098 7.5136V9.50925H8.19672C8.09836 9.50925 8 9.58542 8 9.69206V11.7639C8 11.8553 8.08197 11.9467 8.19672 11.9467H9.54098V12.0533Z" fill="#A0D2EB"/>
</svg>
