<svg width="24" height="24" viewBox="0 0 24 24" fill="none" xmlns="http://www.w3.org/2000/svg">
<rect width="24" height="24" rx="12" fill="#A0D2EB"/>
<path d="M3.97655 11.7786C5.5111 10.9333 7.22406 10.2278 8.82457 9.51877C11.5781 8.35736 14.3425 7.21608 17.1348 6.15356C17.6781 5.97253 18.6543 5.79551 18.75 6.6006C18.6976 7.74024 18.482 8.87321 18.3341 10.0062C17.9587 12.4977 17.5249 14.9807 17.1018 17.464C16.956 18.2911 15.9198 18.7193 15.2568 18.19C13.6634 17.1137 12.0577 16.0479 10.4847 14.9466C9.9694 14.423 10.4472 13.6711 10.9074 13.2972C12.2198 12.0039 13.6116 10.905 14.8554 9.54486C15.1909 8.7347 14.1996 9.41748 13.8726 9.6267C12.0759 10.8648 10.3233 12.1785 8.42903 13.2666C7.46146 13.7992 6.33374 13.3441 5.36661 13.0469C4.49948 12.6878 3.22877 12.3261 3.97646 11.7787L3.97655 11.7786Z" fill="#14161E"/>
</svg>
