<svg width="24" height="24" viewBox="0 0 24 24" fill="none" xmlns="http://www.w3.org/2000/svg">
<rect width="24" height="24" rx="12" fill="#A0D2EB"/>
<path d="M19.4965 10.5243C19.5302 9.599 19.317 8.68061 18.8765 7.85442C18.5776 7.51541 18.1629 7.28664 17.7045 7.20796C15.8085 7.04474 13.9048 6.97784 12.0013 7.00755C10.1047 6.9765 8.20779 7.04123 6.3185 7.20149C5.94498 7.26596 5.59931 7.43218 5.32367 7.67987C4.71042 8.21644 4.64228 9.13442 4.57415 9.91017C4.47528 11.305 4.47528 12.7045 4.57415 14.0993C4.59386 14.5359 4.66238 14.9693 4.77856 15.3922C4.86072 15.7187 5.02694 16.0208 5.26235 16.2714C5.53986 16.5322 5.89358 16.7079 6.27762 16.7756C7.74663 16.9477 9.22681 17.0189 10.7066 16.9889C13.0915 17.0213 15.1834 16.9889 17.6568 16.8079C18.0503 16.7444 18.4139 16.5685 18.6993 16.3037C18.8901 16.1226 19.0326 15.901 19.115 15.6572C19.3587 14.9478 19.4783 14.2053 19.4693 13.4593C19.4965 13.0972 19.4965 10.9122 19.4965 10.5243ZM10.4613 13.8471V9.84553L14.4952 11.856C13.3641 12.4508 11.8718 13.1231 10.4613 13.8471Z" fill="black"/>
</svg>
