<svg width="24" height="24" viewBox="0 0 24 24" fill="none" xmlns="http://www.w3.org/2000/svg">
<rect width="24" height="24" rx="12" fill="#A0D2EB"/>
<path d="M9.233 4.39203C9.12835 5.26183 8.77131 6.06426 8.20498 6.68293C8.10648 6.78093 8.03262 6.89732 8.03262 6.93407C8.03262 6.97695 7.98337 7.01982 7.92797 7.0382C7.86641 7.0627 7.74945 7.12396 7.66942 7.18521C7.52168 7.29547 7.51553 7.29547 7.55246 7.15458C7.58324 7.0382 7.57709 7.02595 7.50322 7.0872C7.4355 7.14233 7.42935 7.17908 7.48475 7.24646C7.52784 7.28934 7.54631 7.33222 7.534 7.34447C7.28161 7.49148 7.10925 7.57111 7.06616 7.57111C7.04153 7.57111 7.05384 7.54661 7.10309 7.51598C7.15849 7.47923 7.16465 7.4486 7.1154 7.4241C7.05384 7.38735 7.01691 7.46085 7.04153 7.58949C7.06 7.69362 6.09354 8.03664 5.6257 8.09177C5.44103 8.11015 5.24404 8.14077 5.18864 8.15915C5.08399 8.18978 5.07783 8.49605 5.07783 13.4331L5 17.8908L5.74266 18.6275C6.51829 18.5785 7.23852 18.4621 8.00184 18.2477C8.57433 18.0884 9.61465 17.6903 9.6639 17.6106C9.68237 17.5861 9.7193 16.7286 9.75624 15.7056C9.78702 14.6888 9.83011 13.5005 9.84857 13.0778L9.88551 12.3122L9.68852 12.11C9.58388 11.9998 9.46076 11.816 9.41151 11.7058C9.29455 11.4301 9.30071 10.8727 9.42382 10.5848C9.52847 10.3337 9.79933 10.0213 9.91629 10.0213C9.95322 10.0213 10.0209 9.89264 10.0579 9.73338C10.101 9.58024 10.1687 9.3781 10.2179 9.28622C10.2979 9.13309 10.2918 9.11471 10.1256 8.9922C9.71315 8.68593 8.70975 7.07495 8.70975 6.71968C8.70975 6.51754 8.85134 6.34603 9.01139 6.34603C9.10988 6.34603 9.41151 6.53592 9.51001 6.6523C9.52847 6.6768 9.75008 6.82381 10.0025 6.98307C10.2549 7.14846 10.5257 7.33222 10.6057 7.40572L10.7412 7.52823L10.8827 7.40572C11.092 7.21584 11.2644 7.14233 11.523 7.14233C11.7138 7.14233 11.7877 7.10558 11.9231 6.93407C12.2616 6.51754 12.828 6.51141 13.1973 6.92794C13.3574 7.1117 13.4251 7.14233 13.6529 7.14233C13.8683 7.14233 13.9668 7.18521 14.1761 7.36285C14.3177 7.47923 14.4346 7.55273 14.4346 7.52211C14.4346 7.49148 14.5824 7.3751 14.7609 7.25872C14.9333 7.14233 15.278 6.91569 15.5181 6.75643C16.0906 6.37666 16.4045 6.38278 16.4045 6.76868C16.4045 7.08108 15.3642 8.71044 14.9887 8.9922L14.8101 9.12084L14.9209 9.34135C14.9825 9.46386 15.0564 9.64762 15.0748 9.75175C15.0995 9.86814 15.2103 10.0151 15.358 10.1377C15.5981 10.3275 15.8505 10.8421 15.8505 11.1483C15.8505 11.3995 15.6658 11.8405 15.4503 12.0855C15.3272 12.2325 15.2534 12.3796 15.2657 12.4469C15.278 12.5082 15.3395 14.1743 15.3949 16.1467C15.4503 18.1191 15.5181 19.7484 15.5365 19.779C15.5612 19.8035 15.7458 19.7239 15.949 19.6014C17.4448 18.7071 18.8483 17.0839 19.4024 15.5954C19.6178 15.0319 19.8517 14.2355 19.9195 13.819C20.0364 13.1575 20.0241 11.522 19.8948 10.8788C19.2977 7.859 17.1863 5.45785 14.2931 4.50228C13.185 4.13476 12.7049 4.06738 10.9197 4.03675L9.27609 4L9.233 4.39203ZM8.12495 8.9187C8.83287 9.24947 8.95598 9.42098 8.7036 9.7395C8.53739 9.95389 8.29116 9.94164 8.00799 9.70275C7.97106 9.67825 7.7556 9.51286 7.52784 9.34135C7.08462 9.01671 7.01691 8.8697 7.23852 8.71656C7.38626 8.6063 7.50937 8.63693 8.12495 8.9187ZM17.808 8.74719C17.9619 8.90032 17.8757 9.04121 17.4387 9.36585C16.78 9.84976 16.7 9.89876 16.5522 9.89876C16.3799 9.89876 16.2075 9.69663 16.2075 9.50061C16.2075 9.34135 16.3737 9.10246 16.4907 9.09634C16.5276 9.09634 16.7554 9.00445 16.9893 8.88807C17.4448 8.66756 17.6849 8.62468 17.808 8.74719ZM7.3247 12.1345C7.41088 12.2142 7.47859 12.3551 7.47859 12.4408C7.47859 12.6674 7.22005 12.9002 6.97382 12.9002C6.69065 12.8941 6.27206 12.6981 6.23512 12.5449C6.12432 12.1284 6.99229 11.7976 7.3247 12.1345ZM18.6452 12.1345C18.8545 12.2325 18.873 12.2632 18.8545 12.4653C18.836 12.6674 18.8114 12.6919 18.5159 12.8022C18.0173 12.9798 17.6972 12.839 17.6972 12.4408C17.6972 11.9998 18.0912 11.8773 18.6452 12.1345ZM8.58664 15.1666C8.78362 15.2707 8.85134 15.4606 8.77131 15.6566C8.71591 15.7975 8.57433 15.8833 8.05724 16.116C7.44166 16.3917 7.40472 16.3978 7.25698 16.3059C6.98613 16.1283 7.05384 16.0119 7.69405 15.5525C8.35887 15.0809 8.39581 15.0625 8.58664 15.1666ZM16.8231 15.2095C17.3279 15.528 17.8819 15.9874 17.8819 16.0854C17.8819 16.2018 17.728 16.3917 17.6418 16.3917C17.5803 16.3917 16.8416 16.0854 16.5153 15.9323C16.2444 15.8037 16.1398 15.5954 16.2198 15.381C16.2691 15.2462 16.4476 15.1237 16.6076 15.1115C16.6323 15.1054 16.7308 15.1544 16.8231 15.2095Z" fill="black"/>
<path d="M11.7877 11.2464C11.7877 11.3015 11.8985 11.4362 12.0339 11.5465C12.2001 11.6874 12.2986 11.8221 12.3417 11.9998C12.4586 12.4469 12.4709 12.4714 12.5633 12.4714C12.6618 12.4714 12.6741 12.4469 12.7726 12.0672C12.8095 11.9079 12.9265 11.7241 13.0742 11.5771C13.4805 11.179 13.462 11.1667 12.5756 11.1545C11.8923 11.1483 11.7877 11.1606 11.7877 11.2464Z" fill="black"/>
<path d="M5.00008 6.60716C5.00008 5.18276 6.16052 4.02805 7.59199 4.02805H10.1839L8.23997 6.92955L5.00008 9.18628V6.60716Z" fill="black"/>
<path d="M5.07808 17.5684H9.67689L9.53593 19.8251L7.14633 19.995C5.9978 20.0766 5.03008 19.1525 5.06478 18.0073L5.07808 17.5684Z" fill="black"/>
</svg>
