<svg width="24" height="24" viewBox="0 0 24 24" fill="none" xmlns="http://www.w3.org/2000/svg">
<rect width="24" height="24" rx="12" fill="#0F1426"/>
<path fill-rule="evenodd" clip-rule="evenodd" d="M11.9997 4.5C7.85782 4.5 4.5 7.87093 4.5 12.0303C4.5 15.3566 6.64875 18.1788 9.62938 19.1744C10.0044 19.2438 10.1416 19.0112 10.1416 18.8119C10.1416 18.6328 10.135 18.1594 10.1309 17.5313C8.04468 17.9863 7.60438 16.5219 7.60438 16.5219C7.26376 15.6519 6.77219 15.4203 6.77219 15.4203C6.09094 14.9531 6.82374 14.9625 6.82374 14.9625C7.57593 15.0156 7.97187 15.7384 7.97187 15.7384C8.64156 16.8894 9.7275 16.5572 10.155 16.3641C10.2228 15.8775 10.4169 15.5456 10.6312 15.3575C8.96562 15.1672 7.215 14.5216 7.215 11.6363C7.215 10.8144 7.50688 10.1422 7.98688 9.61562C7.90969 9.425 7.6525 8.65968 8.06031 7.62281C8.06031 7.62281 8.68999 7.42063 10.1228 8.39469C10.7212 8.22782 11.3625 8.14437 12.0003 8.14124C12.6375 8.14437 13.2791 8.22782 13.8784 8.39469C15.3097 7.42063 15.9384 7.62281 15.9384 7.62281C16.3478 8.65968 16.0903 9.425 16.0131 9.61562C16.4937 10.1422 16.7841 10.8141 16.7841 11.6363C16.7841 14.5288 15.0306 15.1653 13.36 15.3519C13.6287 15.5844 13.8691 16.0434 13.8691 16.7462C13.8691 17.7525 13.8597 18.5647 13.8597 18.8119C13.8597 19.0131 13.9947 19.2475 14.3753 19.1734C17.3531 18.1759 19.5 15.3556 19.5 12.0303C19.5 7.87093 16.1419 4.5 11.9997 4.5Z" fill="#A0D2EB"/>
</svg>
