<svg width="50" height="50" viewBox="0 0 50 50" fill="none" xmlns="http://www.w3.org/2000/svg">
<path d="M48.7051 28.6182C48.6526 28.6182 48.5988 28.6142 48.545 28.605C48.0082 28.5171 47.6447 28.0105 47.7339 27.4738C48.5319 22.6154 47.7156 17.5194 45.4334 13.1243C43.0776 8.58613 39.3768 5.04273 34.731 2.87732C34.2388 2.64765 34.0249 2.06234 34.2546 1.56888C34.4842 1.07543 35.0696 0.86283 35.563 1.09249C40.6051 3.44426 44.6223 7.29082 47.1801 12.2161C49.6566 16.9853 50.5424 22.5183 49.6762 27.7927C49.5962 28.2756 49.1789 28.6182 48.7051 28.6182Z" fill="url(#paint0_linear)"/>
<path d="M24.904 48.6567C19.8854 48.6567 14.9076 47.1317 10.7802 44.314C10.3314 44.0069 10.2159 43.3954 10.523 42.9465C10.8301 42.4977 11.4417 42.3822 11.8905 42.6893C15.9562 45.4663 20.9209 46.8797 25.8685 46.6684C30.9763 46.4519 35.7507 44.5949 39.6773 41.3008C40.0933 40.9517 40.7141 41.0055 41.0645 41.4216C41.4136 41.8376 41.3598 42.4583 40.9437 42.8087C36.6812 46.385 31.4973 48.4007 25.9525 48.6357C25.6034 48.6488 25.253 48.6567 24.904 48.6567Z" fill="url(#paint1_linear)"/>
<path d="M1.81412 30.7835C1.37972 30.7835 0.982075 30.4935 0.863962 30.0539C-0.575708 24.6797 -0.210869 19.1297 1.91911 14.0049C3.98084 9.04282 7.64892 4.8078 12.2475 2.08069C12.7147 1.80378 13.3184 1.95733 13.5966 2.42585C13.8735 2.89305 13.7199 3.49674 13.2514 3.77496C9.0151 6.28553 5.63574 10.1872 3.73543 14.7608C1.77343 19.4814 1.43747 24.5944 2.76427 29.5447C2.9047 30.0696 2.59367 30.609 2.06872 30.7507C1.98341 30.773 1.89811 30.7835 1.81412 30.7835Z" fill="url(#paint2_linear)"/>
<path d="M25 36C31.6274 36 37 30.6274 37 24C37 17.3726 31.6274 12 25 12C18.3726 12 13 17.3726 13 24C13 30.6274 18.3726 36 25 36Z" fill="url(#paint3_linear)"/>
<path d="M22 24L25 19L28 24L25 29L22 24Z" fill="white" stroke="#A0D2EB"/>
<defs>
<linearGradient id="paint0_linear" x1="34.5" y1="1.5" x2="48.5" y2="27.5" gradientUnits="userSpaceOnUse">
<stop stop-color="#9FD2EB"/>
<stop offset="1" stop-color="#7B78FF" stop-opacity="0"/>
</linearGradient>
<linearGradient id="paint1_linear" x1="40.5" y1="41.5" x2="10" y2="44" gradientUnits="userSpaceOnUse">
<stop stop-color="#9FD2EB"/>
<stop offset="1" stop-color="#7B78FF" stop-opacity="0"/>
</linearGradient>
<linearGradient id="paint2_linear" x1="11.2085" y1="6.02274" x2="-3.22705" y2="28.421" gradientUnits="userSpaceOnUse">
<stop stop-color="#7B78FF" stop-opacity="0"/>
<stop offset="0.901042" stop-color="#9FD2EB"/>
</linearGradient>
<linearGradient id="paint3_linear" x1="25" y1="12" x2="25" y2="36" gradientUnits="userSpaceOnUse">
<stop stop-color="#7B78FF"/>
<stop offset="1" stop-color="#7B78FF" stop-opacity="0"/>
</linearGradient>
</defs>
</svg>
