<svg width="42" height="50" viewBox="0 0 42 50" fill="none" xmlns="http://www.w3.org/2000/svg">
<g clip-path="url(#clip0)">
<path d="M20.9226 50.0013C20.7524 50.0013 20.5833 49.9546 20.4396 49.8591C14.1264 45.667 8.92389 40.1553 5.39589 33.9204C1.86568 27.6825 0 20.7 0 13.7287V8.28506C0 7.97423 0.204474 7.69489 0.518368 7.57909L20.7646 0.0571969C20.9646 -0.0169554 21.1879 -0.0169554 21.3879 0.0582127L41.4838 7.5801C41.7955 7.69692 42 7.97626 42 8.28607V13.6301C42 20.6299 40.1199 27.6368 36.5632 33.894C33.0087 40.1482 27.7697 45.668 21.4145 49.8571C21.2686 49.9526 21.0951 50.0013 20.9226 50.0013ZM1.65789 8.79905V13.7287C1.65789 20.4562 3.45947 27.1959 6.867 33.2175C10.1861 39.0827 15.0404 44.2875 20.9271 48.2989C26.8579 44.2875 31.7487 39.0735 35.0932 33.1881C38.5273 27.1472 40.3421 20.3841 40.3421 13.6291V8.79803L21.0741 1.58595L1.65789 8.79905Z" fill="url(#paint0_linear)"/>
<path d="M25.2 19.5827H23.4228V17.0364C23.4228 16.4147 23.1705 15.8295 22.7132 15.39C22.2558 14.9505 21.6469 14.7079 21 14.7079C19.6648 14.7079 18.5771 15.752 18.5771 17.0364V19.5815H16.8V17.0364C16.8 14.8104 18.6838 13 21 13C22.122 13 23.1764 13.4202 23.9702 14.1819C24.7628 14.9436 25.2 15.9581 25.2 17.0364V19.5827Z" fill="#9FD2EB"/>
<path d="M26.8224 32.9623H15.1776C14.5273 32.9623 14 32.36 14 31.6173V20.345C14 19.6022 14.5273 19 15.1776 19H26.8224C27.4727 19 28 19.6022 28 20.345V31.6173C28 32.3615 27.4727 32.9623 26.8224 32.9623Z" fill="url(#paint1_linear)"/>
<path d="M20.0129 28C19.8554 28 19.698 27.9407 19.5752 27.8231L17.1973 25.5315C16.9434 25.2867 16.9332 24.8787 17.1745 24.621C17.4157 24.3633 17.8178 24.353 18.0718 24.5978L20.0383 26.4935L23.956 23.1514C24.2243 22.9221 24.6247 22.9573 24.8508 23.2296C25.0768 23.5019 25.0421 23.9081 24.7737 24.1375L20.4218 27.8505C20.3024 27.9493 20.1576 28 20.0129 28Z" fill="white"/>
</g>
<defs>
<linearGradient id="paint0_linear" x1="21" y1="0.00132871" x2="21" y2="50.0014" gradientUnits="userSpaceOnUse">
<stop stop-color="#9FD2EB"/>
<stop offset="1" stop-color="#7B78FF" stop-opacity="0"/>
</linearGradient>
<linearGradient id="paint1_linear" x1="21" y1="19" x2="21" y2="32.9623" gradientUnits="userSpaceOnUse">
<stop stop-color="#7B78FF"/>
<stop offset="1" stop-color="#7B78FF" stop-opacity="0"/>
</linearGradient>
<clipPath id="clip0">
<rect width="42" height="50" fill="white"/>
</clipPath>
</defs>
</svg>
