<svg width="48" height="50" viewBox="0 0 48 50" fill="none" xmlns="http://www.w3.org/2000/svg">
<path d="M17.8346 47.5298C17.7405 47.5298 17.6449 47.5185 17.5493 47.4929C7.21665 44.7457 0 35.4844 0 24.9702C0 12.1037 10.67 1.63635 23.7857 1.63635C24.3852 1.63635 24.8717 2.11363 24.8717 2.7017C24.8717 3.28976 24.3852 3.76704 23.7857 3.76704C11.8675 3.76704 2.17195 13.2784 2.17195 24.9702C2.17195 34.5256 8.72978 42.9418 18.1184 45.4375C18.6976 45.5909 19.0393 46.1761 18.8829 46.7443C18.7511 47.2187 18.3124 47.5298 17.8346 47.5298Z" fill="url(#paint0_linear)"/>
<path d="M17.8505 50C19.8105 50 21.3994 48.4413 21.3994 46.5185C21.3994 44.5957 19.8105 43.0369 17.8505 43.0369C15.8904 43.0369 14.3015 44.5957 14.3015 46.5185C14.3015 48.4413 15.8904 50 17.8505 50Z" fill="#9FD2EB"/>
<path d="M24.2143 48.3636C23.6149 48.3636 23.1284 47.8863 23.1284 47.2983C23.1284 46.7102 23.6149 46.2329 24.2143 46.2329C36.1325 46.2329 45.8281 36.7216 45.8281 25.0298C45.8281 15.4744 39.2703 7.05822 29.8817 4.56248C29.3025 4.40908 28.9608 3.82385 29.1171 3.25567C29.2735 2.68748 29.8701 2.35226 30.4493 2.50567C40.7819 5.25282 47.9986 14.5142 47.9986 25.0298C48 37.8963 37.33 48.3636 24.2143 48.3636Z" fill="url(#paint1_linear)"/>
<path d="M30.1495 6.96307C32.1096 6.96307 33.6985 5.40433 33.6985 3.48153C33.6985 1.55874 32.1096 0 30.1495 0C28.1895 0 26.6006 1.55874 26.6006 3.48153C26.6006 5.40433 28.1895 6.96307 30.1495 6.96307Z" fill="#9FD2EB"/>
<path d="M24.4525 36.8906C31.0799 36.8906 36.4525 31.518 36.4525 24.8906C36.4525 18.2632 31.0799 12.8906 24.4525 12.8906C17.8251 12.8906 12.4525 18.2632 12.4525 24.8906C12.4525 31.518 17.8251 36.8906 24.4525 36.8906Z" fill="url(#paint2_linear)"/>
<path d="M21.707 24.0605C22.8613 24.0605 23.793 23.1172 23.793 21.9629C23.793 20.8086 22.8613 19.8828 21.707 19.8828C20.5586 19.8828 19.6152 20.8086 19.6152 21.9629C19.6152 23.123 20.5527 24.0605 21.707 24.0605ZM22.5684 29L27.5547 20H26.043L21.0566 29H22.5684ZM21.707 22.8711C21.2031 22.8711 20.8047 22.4668 20.8047 21.9629C20.8047 21.459 21.2031 21.0664 21.707 21.0664C22.1934 21.0664 22.6094 21.4707 22.6094 21.9629C22.6094 22.4668 22.2168 22.8711 21.707 22.8711ZM26.9512 29.0938C28.1055 29.0938 29.0312 28.1504 29.0312 27.002C29.0312 25.8535 28.1055 24.9219 26.9512 24.9219C25.7969 24.9219 24.8535 25.8535 24.8535 27.002C24.8535 28.168 25.7852 29.0938 26.9512 29.0938ZM26.9512 27.9043C26.4473 27.9043 26.043 27.5059 26.043 27.002C26.043 26.5039 26.4473 26.1055 26.9512 26.1055C27.4434 26.1055 27.8535 26.5156 27.8535 27.002C27.8535 27.5059 27.4551 27.9043 26.9512 27.9043Z" fill="white"/>
<defs>
<linearGradient id="paint0_linear" x1="27.4171" y1="42.2673" x2="7.5658" y2="7.21792" gradientUnits="userSpaceOnUse">
<stop stop-color="#9FD2EB"/>
<stop offset="1" stop-color="#7B78FF" stop-opacity="0"/>
</linearGradient>
<linearGradient id="paint1_linear" x1="43.4248" y1="8.96078" x2="21.7915" y2="47.1565" gradientUnits="userSpaceOnUse">
<stop stop-color="#9FD2EB"/>
<stop offset="1" stop-color="#7B78FF" stop-opacity="0"/>
</linearGradient>
<linearGradient id="paint2_linear" x1="24.4525" y1="12.8906" x2="24.4525" y2="36.8906" gradientUnits="userSpaceOnUse">
<stop stop-color="#7B78FF"/>
<stop offset="1" stop-color="#7B78FF" stop-opacity="0"/>
</linearGradient>
</defs>
</svg>
