<svg width="50" height="50" viewBox="0 0 50 50" fill="none" xmlns="http://www.w3.org/2000/svg">
<path d="M41 16.5827H39.0959V14.7594C39.0959 14.0264 38.8255 13.3363 38.3355 12.8181C37.8456 12.2998 37.1931 12.0139 36.5 12.0139C35.0694 12.0139 33.9041 13.245 33.9041 14.7594V16.5813H32V14.7594C32 12.1347 34.0183 10 36.5 10C37.7021 10 38.8319 10.4954 39.6824 11.3936C40.5316 12.2918 41 13.488 41 14.7594V16.5827Z" fill="#9FD2EB"/>
<path d="M45.2333 37H27.7629C26.7873 37 25.9962 36.0958 25.9962 34.9807V18.057C25.9962 16.9419 26.7873 16.0377 27.7629 16.0377H45.2333C46.2089 16.0377 47 16.9419 47 18.057V34.9807C47 36.0981 46.2089 37 45.2333 37Z" fill="url(#paint0_linear)"/>
<path d="M1.9678 49.1525L0.112198 48.7859C0.55593 46.5048 1.62744 43.1275 4.20285 39.9901C4.86467 39.1832 5.59708 38.4321 6.37613 37.7572C9.83144 34.7682 14.6583 34.5373 18.3871 37.1837C21.076 39.0918 24.5754 39.1401 27.3034 37.3093C28.6043 36.4352 29.8132 35.4025 30.8936 34.2378C33.1097 31.8514 34.8103 28.8853 35.8124 25.6602L37.6176 26.2273C36.5322 29.7251 34.6842 32.9438 32.2752 35.5382C31.0953 36.8095 29.7754 37.9373 28.3522 38.8927C24.9688 41.1649 20.6298 41.104 17.2967 38.7404C14.2889 36.6065 10.3949 36.7917 7.60774 39.2022C6.90936 39.8061 6.25385 40.4798 5.66011 41.2042C3.33682 44.0334 2.36994 47.0884 1.9678 49.1525Z" fill="#9FD2EB"/>
<path d="M0.945452 49.9531C0.423562 49.9531 0 49.4509 0 48.8322V1.12086C0 0.502146 0.423562 0 0.945452 0C1.46734 0 1.8909 0.502146 1.8909 1.12086V48.8322C1.8909 49.4509 1.46734 49.9531 0.945452 49.9531Z" fill="url(#paint1_linear)"/>
<path d="M36.589 28.9246C38.1903 28.9246 39.4884 27.6182 39.4884 26.0066C39.4884 24.395 38.1903 23.0886 36.589 23.0886C34.9877 23.0886 33.6896 24.395 33.6896 26.0066C33.6896 27.6182 34.9877 28.9246 36.589 28.9246Z" fill="white"/>
<path d="M48.8777 50H1.16874C0.550034 50 0.0478973 49.5737 0.0478973 49.0485C0.0478973 48.5232 0.550034 48.097 1.16874 48.097H48.8792C49.4979 48.097 50 48.5232 50 49.0485C50 49.5737 49.4979 50 48.8777 50Z" fill="url(#paint2_linear)"/>
<defs>
<linearGradient id="paint0_linear" x1="36.4981" y1="16.0377" x2="36.4981" y2="37" gradientUnits="userSpaceOnUse">
<stop stop-color="#7B78FF"/>
<stop offset="1" stop-color="#7B78FF" stop-opacity="0"/>
</linearGradient>
<linearGradient id="paint1_linear" x1="0.945451" y1="49.9531" x2="0.945451" y2="0" gradientUnits="userSpaceOnUse">
<stop stop-color="#9FD2EB"/>
<stop offset="1" stop-color="#7B78FF" stop-opacity="0"/>
</linearGradient>
<linearGradient id="paint2_linear" x1="0.0471501" y1="49.0491" x2="49.9993" y2="49.0491" gradientUnits="userSpaceOnUse">
<stop stop-color="#9FD2EB"/>
<stop offset="1" stop-color="#7B78FF" stop-opacity="0"/>
</linearGradient>
</defs>
</svg>
