<svg width="24" height="24" viewBox="0 0 24 24" fill="none" xmlns="http://www.w3.org/2000/svg">
<rect width="24" height="24" rx="12" fill="#0F1426"/>
<path d="M8.28582 8.89618H8.27072C8.10626 8.90609 7.94153 8.882 7.7868 8.8254C7.63207 8.7688 7.49067 8.6809 7.37144 8.5672C7.2522 8.45351 7.15768 8.31645 7.09379 8.16458C7.0299 8.01272 6.99801 7.84931 7.0001 7.68457C7.00219 7.51983 7.03822 7.35729 7.10595 7.20709C7.17367 7.0569 7.27164 6.92228 7.39372 6.81165C7.51581 6.70101 7.65939 6.61674 7.8155 6.56408C7.97162 6.51143 8.13691 6.49152 8.30107 6.50561C8.46603 6.49366 8.63169 6.51598 8.78761 6.57115C8.94354 6.62631 9.08636 6.71315 9.20711 6.82618C9.32785 6.93922 9.4239 7.07602 9.48922 7.22797C9.55455 7.37992 9.58772 7.54375 9.58667 7.70914C9.58561 7.87453 9.55035 8.03792 9.4831 8.18903C9.41584 8.34014 9.31805 8.4757 9.19588 8.58718C9.0737 8.69867 8.92978 8.78367 8.77316 8.83685C8.61655 8.89003 8.45062 8.91023 8.28582 8.89618Z" fill="#A0D2EB"/>
<path d="M9.36636 10.5054H7.22095V16.9416H9.36636V10.5054Z" fill="#A0D2EB"/>
<path d="M14.9978 10.5054C14.6362 10.5064 14.2796 10.589 13.9545 10.7473C13.6295 10.9055 13.3443 11.1351 13.1205 11.419V10.5054H10.9751V16.9416H13.1205V13.9917C13.1205 13.7072 13.2335 13.4343 13.4347 13.2332C13.6359 13.032 13.9087 12.919 14.1932 12.919C14.4777 12.919 14.7506 13.032 14.9517 13.2332C15.1529 13.4343 15.2659 13.7072 15.2659 13.9917V16.9416H17.4113V12.919C17.4113 12.602 17.3489 12.2882 17.2276 11.9953C17.1063 11.7025 16.9285 11.4364 16.7044 11.2123C16.4803 10.9882 16.2142 10.8104 15.9214 10.6891C15.6286 10.5678 15.3147 10.5054 14.9978 10.5054V10.5054Z" fill="#A0D2EB"/>
</svg>
