<svg width="24" height="24" viewBox="0 0 24 24" fill="none" xmlns="http://www.w3.org/2000/svg">
<rect width="24" height="24" rx="12" fill="#0F1426"/>
<path d="M20.25 8.21295C19.6863 8.45752 19.0901 8.6192 18.48 8.69295C19.1236 8.30844 19.606 7.70354 19.8375 6.99045C19.2327 7.3505 18.5706 7.60417 17.88 7.74045C17.4184 7.23988 16.8037 6.90667 16.1324 6.79309C15.461 6.67951 14.7709 6.79197 14.1703 7.11284C13.5698 7.43372 13.0927 7.94485 12.8139 8.56608C12.5352 9.18731 12.4705 9.88349 12.63 10.5454C11.4071 10.4836 10.2108 10.1652 9.11899 9.61085C8.02715 9.05653 7.06413 8.27872 6.2925 7.32795C6.02185 7.80058 5.87964 8.33582 5.88 8.88045C5.87904 9.38624 6.00316 9.88441 6.24132 10.3306C6.47947 10.7768 6.82426 11.1572 7.245 11.438C6.75598 11.4246 6.27741 11.2934 5.85 11.0554V11.093C5.85367 11.8016 6.102 12.4873 6.55299 13.0339C7.00398 13.5806 7.62994 13.9547 8.325 14.093C8.05744 14.1744 7.77966 14.2173 7.5 14.2205C7.30642 14.2182 7.11332 14.2006 6.9225 14.168C7.12043 14.7776 7.50347 15.3103 8.01831 15.6921C8.53315 16.0738 9.15418 16.2856 9.795 16.298C8.7129 17.1494 7.37691 17.6141 6 17.618C5.7493 17.6188 5.4988 17.6037 5.25 17.573C6.65582 18.4806 8.29411 18.9625 9.9675 18.9604C11.1223 18.9724 12.2679 18.7542 13.3373 18.3185C14.4068 17.8828 15.3788 17.2384 16.1964 16.4228C17.014 15.6073 17.661 14.637 18.0994 13.5686C18.5379 12.5003 18.759 11.3552 18.75 10.2004C18.75 10.0729 18.75 9.93795 18.75 9.80295C19.3385 9.36406 19.8461 8.82602 20.25 8.21295Z" fill="#A0D2EB"/>
</svg>
