<svg width="24" height="24" viewBox="0 0 24 24" fill="none" xmlns="http://www.w3.org/2000/svg">
<g clip-path="url(#clip0_2311_191)">
<circle cx="12" cy="12" r="12" fill="#8247E5"/>
<path d="M15.8192 9.37421C15.5424 9.20296 15.1827 9.20296 14.8782 9.37421L12.7196 10.6871L11.2528 11.5433L9.0941 12.8562C8.81734 13.0275 8.45756 13.0275 8.15314 12.8562L6.43727 11.8288C6.16052 11.6575 5.96679 11.3436 5.96679 11.0011V8.97463C5.96679 8.63214 6.13284 8.31818 6.43727 8.14693L8.12546 7.14799C8.40221 6.97674 8.76199 6.97674 9.06642 7.14799L10.7546 8.14693C11.0314 8.31818 11.2251 8.63214 11.2251 8.97463V10.2875L12.6919 9.40275V8.08985C12.6919 7.74736 12.5258 7.4334 12.2214 7.26216L9.0941 5.37844C8.81734 5.20719 8.45756 5.20719 8.15314 5.37844L4.97048 7.26216C4.66605 7.4334 4.5 7.74736 4.5 8.08985V11.8858C4.5 12.2283 4.66605 12.5423 4.97048 12.7135L8.15314 14.5973C8.42989 14.7685 8.78967 14.7685 9.0941 14.5973L11.2528 13.3129L12.7196 12.4281L14.8782 11.1438C15.155 10.9725 15.5148 10.9725 15.8192 11.1438L17.5074 12.1427C17.7841 12.314 17.9779 12.6279 17.9779 12.9704V14.9968C17.9779 15.3393 17.8118 15.6533 17.5074 15.8245L15.8192 16.852C15.5424 17.0233 15.1827 17.0233 14.8782 16.852L13.19 15.8531C12.9133 15.6818 12.7196 15.3679 12.7196 15.0254V13.7125L11.2528 14.5973V15.9101C11.2528 16.2526 11.4188 16.5666 11.7232 16.7378L14.9059 18.6216C15.1827 18.7928 15.5424 18.7928 15.8469 18.6216L19.0295 16.7378C19.3063 16.5666 19.5 16.2526 19.5 15.9101V12.1142C19.5 11.7717 19.3339 11.4577 19.0295 11.2865L15.8192 9.37421Z" fill="white"/>
</g>
<defs>
<clipPath id="clip0_2311_191">
<rect width="24" height="24" fill="white"/>
</clipPath>
</defs>
</svg>
